<svg xmlns="http://www.w3.org/2000/svg" viewBox="0.0 0.0 256.0 256.0" height="256.0px" width="256.0px"><path fill="#3E313D" fill-opacity="1.0"  filling="0" d="M208.98782348632812 196.54879760742188 L206.10494995117188 198.2471923828125 L203.22207641601562 199.9456024169922 C203.66693115234375 200.65904235839844 204.14840698242188 201.39175415039062 204.66043090820312 202.10675048828125 C205.1724395751953 202.82174682617188 205.71499633789062 203.51901245117188 206.28196716308594 204.16160583496094 C207.41592407226562 205.44677734375 208.6476287841797 206.51315307617188 209.92825317382812 207.06484985351562 C211.20889282226562 207.61654663085938 212.5384521484375 207.653564453125 213.8681640625 206.8800048828125 C215.16246032714844 206.12693786621094 215.48191833496094 204.99554443359375 215.189208984375 203.73255920410156 C214.896484375 202.46957397460938 213.99159240722656 201.074951171875 212.83714294433594 199.79544067382812 C212.25991821289062 199.15567016601562 211.6203155517578 198.544677734375 210.96365356445312 197.9932861328125 C210.30699157714844 197.44190979003906 209.63327026367188 196.95013427734375 208.98782348632812 196.54879760742188"></path>
<path fill="#E69475" fill-opacity="1.0"  filling="0" d="M147.8931121826172 95.43743896484375 C148.11135864257812 95.40351867675781 148.5679931640625 95.38784790039062 149.07679748535156 95.37503814697266 C149.78591918945312 95.30239868164062 150.45791625976562 95.27423858642578 151.12864685058594 95.28511810302734 C152.34014892578125 95.306884765625 153.51808166503906 95.45248413085938 154.6416015625 95.72415924072266 L154.30511474609375 92.1864013671875 L153.96864318847656 88.64864349365234 C153.79840087890625 88.84896850585938 153.6985626220703 88.95807647705078 153.6985626220703 88.95807647705078 L153.95199584960938 88.47456359863281 L153.90528869628906 87.98272705078125 C154.0211181640625 87.86400604248047 154.13824462890625 87.74591827392578 154.25120544433594 87.62400817871094 C154.4852294921875 86.84501647949219 154.85421752929688 85.50183868408203 155.10989379882812 84.01466369628906 C155.36557006835938 82.52749633789062 155.5079345703125 80.89633178710938 155.28871154785156 79.54139709472656 C155.06947326660156 78.18645477294922 154.48863220214844 77.10773468017578 153.29791259765625 76.7254409790039 C152.2355194091797 76.38432312011719 151.4179229736328 76.57904052734375 150.78912353515625 77.06299591064453 C150.1603240966797 77.54695892333984 149.72032165527344 78.32015991210938 149.41311645507812 79.13600158691406 C148.79872131347656 80.76768493652344 148.71551513671875 82.5699234008789 148.71551513671875 82.5699234008789 L146.99839782714844 82.24992370605469 C147.00192260742188 81.28992462158203 147.35748291015625 80.4721450805664 147.79443359375 79.58325958251953 C148.23138427734375 78.69436645507812 148.74974060058594 77.734375 149.078857421875 76.48992919921875 C149.407958984375 75.2454833984375 149.5478515625 73.71659851074219 149.22784423828125 71.68992614746094 C148.98800659179688 70.17088317871094 147.82644653320312 69.06896209716797 146.21868896484375 68.27055358886719 C145.41482543945312 67.87135314941406 144.49940490722656 67.54801940917969 143.53187561035156 67.28636932373047 C142.56436157226562 67.02471923828125 141.54473876953125 66.82473754882812 140.53244018554688 66.6722412109375 C139.5201416015625 66.51974487304688 138.51519775390625 66.41471862792969 137.5770263671875 66.34296417236328 C136.63885498046875 66.27120971679688 135.7674560546875 66.23273468017578 135.0222930908203 66.21333312988281 C133.53195190429688 66.17451477050781 132.54647827148438 66.21199798583984 132.54144287109375 66.212158203125 C131.8211212158203 67.13226318359375 131.1989288330078 68.15167999267578 130.6763458251953 69.25334167480469 C130.1537628173828 70.35501098632812 129.7307891845703 71.53892517089844 129.40887451171875 72.78804016113281 C129.08697509765625 74.03715515136719 128.86614990234375 75.35147094726562 128.7478485107422 76.71392059326172 C128.6450653076172 77.89698791503906 128.60533142089844 78.9942626953125 128.623779296875 80.01167297363281 C128.6422119140625 81.02908325195312 128.7188262939453 81.96662139892578 128.84873962402344 82.83023071289062 C129.1085662841797 84.55744171142578 129.5815887451172 85.98892211914062 130.2288055419922 87.172119140625 C130.8760223388672 88.35531616210938 131.6974334716797 89.29023742675781 132.65403747558594 90.02433776855469 C133.61065673828125 90.75843811035156 134.70245361328125 91.29170989990234 135.89044189453125 91.67162322998047 C137.0784454345703 92.05152893066406 138.36264038085938 92.278076171875 139.70401000976562 92.39871978759766 L140.09536743164062 96.6265640258789 C141.5588836669922 96.25535583496094 143.08248901367188 96.04983520507812 144.453125 95.8912353515625 C145.82376098632812 95.73263549804688 147.04144287109375 95.62095642089844 147.8931121826172 95.43743896484375"></path>
<path fill="#2F9D9E" fill-opacity="1.0"  filling="0" d="M158.84544372558594 138.27456665039062 C158.89952087402344 138.3651123046875 158.9552001953125 138.4553680419922 159.01344299316406 138.54559326171875 C158.9548797607422 138.4556884765625 158.89920043945312 138.3654327392578 158.84544372558594 138.27456665039062"></path>
<path fill="#2F9D9E" fill-opacity="1.0"  filling="0" d="M158.39456176757812 137.3887939453125 C158.4320068359375 137.4783935546875 158.4713592529297 137.56704711914062 158.51263427734375 137.65408325195312 C158.4716796875 137.56704711914062 158.4323272705078 137.4783935546875 158.39456176757812 137.3887939453125"></path>
<path fill="#2F9D9E" fill-opacity="1.0"  filling="0" d="M159.3632049560547 139.0537567138672 C159.36288452148438 139.05343627929688 159.36767578125 139.0592041015625 159.36863708496094 139.06080627441406 C159.31488037109375 138.98719787597656 159.26174926757812 138.9132843017578 159.21119689941406 138.84031677246094 C159.26016235351562 138.91104125976562 159.3113555908203 138.98208618164062 159.3632049560547 139.0537567138672"></path>
<path fill="#2F9D9E" fill-opacity="1.0"  filling="0" d="M209.14144897460938 196.458251953125 C208.15638732910156 195.3100128173828 207.0818634033203 194.10525512695312 205.9372100830078 192.8590545654297 C205.36488342285156 192.23594665527344 204.7750244140625 191.60247802734375 204.1700439453125 190.96051025390625 C203.5650634765625 190.3185577392578 202.94497680664062 189.66812133789062 202.3121795654297 189.0110626220703 C201.67938232421875 188.35400390625 201.03387451171875 187.6903533935547 200.3780975341797 187.02197265625 C199.72230529785156 186.35360717773438 199.0562286376953 185.6804962158203 198.3822784423828 185.00454711914062 C197.7083282470703 184.32859802246094 197.02650451660156 183.64981079101562 196.33921813964844 182.9700469970703 C195.6519317626953 182.290283203125 194.95919799804688 181.60955810546875 194.26339721679688 180.9297637939453 C193.56761169433594 180.2499542236328 192.8687744140625 179.57106018066406 192.16932678222656 178.8949737548828 C191.46986389160156 178.2188720703125 190.769775390625 177.5455780029297 190.07147216796875 176.876953125 C189.3731689453125 176.2083282470703 188.67665100097656 175.54437255859375 187.9843292236328 174.88699340820312 C187.29202270507812 174.22959899902344 186.60391235351562 173.57876586914062 185.9224090576172 172.93637084960938 C185.24090576171875 172.29397583007812 184.56602478027344 171.66001892089844 183.90016174316406 171.036376953125 C183.23431396484375 170.4127197265625 182.57748413085938 169.79940795898438 181.93211364746094 169.19827270507812 C181.2867431640625 168.59713745117188 180.65280151367188 168.00820922851562 180.03273010253906 167.43336486816406 C179.41265869140625 166.8585205078125 178.80642700195312 166.29774475097656 178.21649169921875 165.7529296875 C177.03662109375 164.66329956054688 175.92184448242188 163.6374969482422 174.8914794921875 162.69056701660156 C173.8611297607422 161.74363708496094 172.91519165039062 160.87559509277344 172.07298278808594 160.10145568847656 C171.23077392578125 159.32733154296875 170.4923095703125 158.64710998535156 169.8769073486328 158.0758514404297 C169.26150512695312 157.50460815429688 168.7691650390625 157.04229736328125 168.419189453125 156.70401000976562 C167.37088012695312 155.69064331054688 166.64703369140625 154.53994750976562 166.08456420898438 153.3010711669922 C165.5220947265625 152.06219482421875 165.12098693847656 150.73513793945312 164.71812438964844 149.36907958984375 C164.3152618408203 148.00302124023438 163.91064453125 146.5979461669922 163.34117126464844 145.20303344726562 C162.77169799804688 143.80812072753906 162.037353515625 142.42335510253906 160.97503662109375 141.09791564941406 C160.87551879882812 140.9737548828125 160.77886962890625 140.8534393310547 160.6841583251953 140.73663330078125 C160.53024291992188 140.54623413085938 160.4745635986328 140.47744750976562 160.4198455810547 140.41024780273438 C160.30975341796875 140.27423095703125 160.2291259765625 140.17376708984375 160.150390625 140.07583618164062 C160.04031372070312 139.93792724609375 159.96640014648438 139.84512329101562 159.89503479003906 139.75424194335938 C159.78880310058594 139.61888122558594 159.7193603515625 139.52992248535156 159.65248107910156 139.44192504882812 C159.5539093017578 139.31295776367188 159.48831176757812 139.22528076171875 159.42495727539062 139.1388702392578 C159.36233520507812 139.05503845214844 158.80393981933594 139.35118103027344 157.76063537597656 139.7714385986328 C156.7173309326172 140.19168090820312 155.18911743164062 140.73605346679688 153.24832153320312 141.23313903808594 C152.27792358398438 141.481689453125 151.20437622070312 141.71841430664062 150.03672790527344 141.92189025878906 C148.8690643310547 142.12538146972656 147.6072998046875 142.29562377929688 146.26048278808594 142.41119384765625 C144.91323852539062 142.52682495117188 143.70687866210938 142.568359375 142.63189697265625 142.55728149414062 C141.55691528320312 142.5461883544922 140.61328125 142.4824981689453 139.79147338867188 142.38768005371094 C138.14785766601562 142.19805908203125 136.99151611328125 141.88392639160156 136.24606323242188 141.61721801757812 C135.5006103515625 141.35049438476562 135.16607666015625 141.13119506835938 135.16607666015625 141.13119506835938 C135.12704467773438 140.9740753173828 135.05567932128906 140.6841583251953 134.9606475830078 140.28480529785156 C135.11135864257812 140.9193572998047 135.20191955566406 141.2751922607422 135.20191955566406 141.2751922607422 C135.20191955566406 141.2751922607422 134.99313354492188 141.4527587890625 134.5881805419922 141.8017578125 C134.18324279785156 142.15074157714844 133.5821533203125 142.671142578125 132.79754638671875 143.35678100585938 C132.012939453125 144.04241943359375 131.04483032226562 144.89332580566406 129.9058380126953 145.90330505371094 C129.33633422851562 146.40829467773438 128.72413635253906 146.95306396484375 128.07078552246094 147.53683471679688 C127.41743469238281 148.12060546875 126.72294616699219 148.74337768554688 125.98890686035156 149.4043731689453 C125.25486755371094 150.06536865234375 124.48126220703125 150.76461791992188 123.66968536376953 151.50131225585938 C122.85810089111328 152.23800659179688 122.008544921875 153.0121612548828 121.12258911132812 153.82301330566406 C120.23663330078125 154.63385009765625 119.31427764892578 155.4813995361328 118.35710906982422 156.36485290527344 C117.39993286132812 157.24832153320312 116.40794372558594 158.16769409179688 115.38272094726562 159.1222381591797 C114.16163635253906 160.2592315673828 113.09947204589844 161.33645629882812 112.17709350585938 162.3572235107422 C111.25471496582031 163.37799072265625 110.47210693359375 164.34228515625 109.81011199951172 165.25340270996094 C109.14811706542969 166.16452026367188 108.60675048828125 167.02249145507812 108.16683197021484 167.83056640625 C107.72691345214844 168.63865661621094 107.38845825195312 169.39688110351562 107.13230895996094 170.10853576660156 C106.62000274658203 171.53184509277344 106.43690490722656 172.7688751220703 106.42977142333984 173.84603881835938 C106.4226303100586 174.92318725585938 106.59144592285156 175.8404541015625 106.782958984375 176.62425231933594 C106.9744644165039 177.40805053710938 107.18867492675781 178.05836486816406 107.27232360839844 178.60159301757812 C107.35597229003906 179.1448211669922 107.46649932861328 180.3248748779297 107.58980560302734 181.86526489257812 C107.65145874023438 182.63546752929688 107.71630859375 183.49575805664062 107.7825927734375 184.41159057617188 C107.848876953125 185.32740783691406 107.91659545898438 186.29876708984375 107.9839859008789 187.29110717773438 C108.05137634277344 188.283447265625 108.1184310913086 189.2967529296875 108.18339538574219 190.29647827148438 C108.24836730957031 191.29620361328125 108.31124877929688 192.2823486328125 108.37026977539062 193.22036743164062 C108.48831176757812 195.09637451171875 108.59095001220703 196.77984619140625 108.66407012939453 197.9943084716797 C108.73719024658203 199.20877075195312 108.78079986572266 199.95423889160156 108.78079986572266 199.95423889160156 L112.15040588378906 200.78240966796875 L115.52000427246094 201.61056518554688 C115.83256530761719 200.38491821289062 116.06934356689453 199.16836547851562 116.25422668457031 197.96995544433594 C116.43911743164062 196.77154541015625 116.57209777832031 195.59127807617188 116.67705535888672 194.43814086914062 C116.78201293945312 193.28500366210938 116.85894775390625 192.15904235839844 116.91241455078125 191.06631469726562 C116.96588134765625 189.97360229492188 116.99588012695312 188.91412353515625 117.0069580078125 187.89401245117188 C117.01803588867188 186.8739013671875 117.01020812988281 185.8931427001953 116.9880142211914 184.9578399658203 C116.96582794189453 184.0225372314453 116.92927551269531 183.1326904296875 116.88291931152344 182.29440307617188 C116.79021453857422 180.61781311035156 116.65829467773438 179.1474609375 116.52360534667969 177.93211364746094 C116.388916015625 176.71678161621094 116.25145721435547 175.7564697265625 116.14766693115234 175.10000610351562 C116.04387664794922 174.4435272216797 115.97376251220703 174.09088134765625 115.97376251220703 174.09088134765625 C117.11126708984375 173.56773376464844 118.51617431640625 172.87545776367188 120.08885955810547 172.07305908203125 C120.87519836425781 171.67185974121094 121.7034912109375 171.24313354492188 122.56127166748047 170.79425048828125 C123.41905975341797 170.34536743164062 124.30633544921875 169.8763427734375 125.21065521240234 169.39451599121094 C126.11497497558594 168.91268920898438 127.03633880615234 168.4180908203125 127.96228790283203 167.9180908203125 C128.88824462890625 167.41807556152344 129.81878662109375 166.91265869140625 130.74147033691406 166.4092254638672 C131.66415405273438 165.90577697753906 132.5789794921875 165.404296875 133.47348022460938 164.9121551513672 C134.3679962158203 164.42001342773438 135.2421875 163.93722534179688 136.0836181640625 163.4711456298828 C136.925048828125 163.00506591796875 137.7337188720703 162.5557098388672 138.49716186523438 162.13043212890625 C139.2606201171875 161.70516967773438 139.97885131835938 161.30398559570312 140.63941955566406 160.93426513671875 C141.96055603027344 160.19483947753906 143.051025390625 159.58126831054688 143.8112030029297 159.15255737304688 C144.57138061523438 158.72384643554688 145.00128173828125 158.47999572753906 145.00128173828125 158.47999572753906 C145.59877014160156 159.18385314941406 146.36131286621094 159.96798706054688 147.26519775390625 160.81927490234375 C148.16908264160156 161.67056274414062 149.21429443359375 162.58897399902344 150.37710571289062 163.56137084960938 C151.5399169921875 164.53378295898438 152.82032775878906 165.56016540527344 154.19461059570312 166.6273956298828 C154.88174438476562 167.1610107421875 155.59234619140625 167.70481872558594 156.3234405517578 168.2572021484375 C157.05455017089844 168.80958557128906 157.80615234375 169.37054443359375 158.5752716064453 169.9384002685547 C159.34439086914062 170.50625610351562 160.1310577392578 171.0810546875 160.93228149414062 171.66111755371094 C161.7335205078125 172.24118041992188 162.54931640625 172.82650756835938 163.37669372558594 173.4154815673828 C164.20407104492188 174.00445556640625 165.04306030273438 174.5970458984375 165.89068603515625 175.19163513183594 C166.73829650878906 175.78622436523438 167.59454345703125 176.3828125 168.45645141601562 176.97972106933594 C169.318359375 177.57662963867188 170.18592834472656 178.1739044189453 171.0561981201172 178.76986694335938 C171.9264678955078 179.36582946777344 172.7994384765625 179.96047973632812 173.67213439941406 180.5522003173828 C174.54483032226562 181.1439208984375 175.41725158691406 181.73268127441406 176.28643798828125 182.31686401367188 C177.1556396484375 182.9010467529297 178.02157592773438 183.48065185546875 178.88133239746094 184.0540008544922 C179.7410888671875 184.62734985351562 180.59461975097656 185.19448852539062 181.43899536132812 185.75372314453125 C182.2833709716797 186.31297302246094 183.11856079101562 186.86434936523438 183.94163513183594 187.40618896484375 C184.76470947265625 187.94802856445312 185.57562255859375 188.48036193847656 186.37144470214844 189.00152587890625 C187.16726684570312 189.52268981933594 187.94796752929688 190.03268432617188 188.7106170654297 190.52987670898438 C189.4732666015625 191.02706909179688 190.21783447265625 191.51144409179688 190.9413604736328 191.98135375976562 C191.66488647460938 192.45127868652344 192.3673858642578 192.90675354003906 193.04586791992188 193.34613037109375 C194.40283203125 194.22486877441406 195.66378784179688 195.03921508789062 196.8049774169922 195.77601623535156 C197.9461669921875 196.5128173828125 198.96759033203125 197.1720733642578 199.8455352783203 197.74063110351562 C200.7234649658203 198.3092041015625 201.45790100097656 198.7870635986328 202.0251007080078 199.16107177734375 C202.59231567382812 199.5350799560547 202.99227905273438 199.80523681640625 203.2012939453125 199.95840454101562 L206.0945587158203 198.25375366210938 L208.98782348632812 196.5491180419922"></path>
<path fill="#3E313D" fill-opacity="1.0"  filling="0" d="M146.26016235351562 142.41055297851562 C147.60699462890625 142.29498291015625 148.86874389648438 142.12474060058594 150.03640747070312 141.9212646484375 C151.2040557861328 141.7177734375 152.27760314941406 141.48104858398438 153.2480010986328 141.23251342773438 C155.18881225585938 140.73541259765625 156.71701049804688 140.19105529785156 157.7603302001953 139.7707977294922 C158.8036346435547 139.3505401611328 159.36203002929688 139.0543975830078 159.3632049560547 139.0537567138672 C159.3113555908203 138.98208618164062 159.26048278808594 138.91104125976562 159.21119689941406 138.84031677246094 C159.1347198486328 138.72927856445312 159.07327270507812 138.63839721679688 159.014404296875 138.5471954345703 C158.9548797607422 138.4556884765625 158.89920043945312 138.3651123046875 158.84544372558594 138.27456665039062 C158.77984619140625 138.16448974609375 158.73056030273438 138.0774383544922 158.68319702148438 137.98976135253906 C158.61856079101562 137.8697509765625 158.57504272460938 137.78335571289062 158.53280639648438 137.6953582763672 C158.4713592529297 137.56704711914062 158.4320068359375 137.4783935546875 158.39456176757812 137.3887939453125 C158.3395233154297 137.25567626953125 158.3040008544922 137.1632080078125 158.27008056640625 137.06912231445312 C158.22239685058594 136.93312072753906 158.19007873535156 136.83518981933594 158.16000366210938 136.73440551757812 C158.1196746826172 136.59744262695312 158.09056091308594 136.49119567871094 158.06431579589844 136.38143920898438 C158.0326385498047 136.2499237060547 158.0067138671875 136.1318359375 157.9833526611328 136.01055908203125 C157.82894897460938 135.21023559570312 157.76751708984375 134.25648498535156 157.7946014404297 133.0263214111328 C157.82168579101562 131.79615783691406 157.93728637695312 130.2895965576172 158.136962890625 128.38368225097656 C159.18032836914062 129.74624633789062 160.3892822265625 130.9480743408203 161.69927978515625 131.5617218017578 C163.00927734375 132.17535400390625 164.42031860351562 132.2008056640625 165.86782836914062 131.21055603027344 C166.7364044189453 130.61627197265625 167.2953643798828 129.6406707763672 167.61228942871094 128.39637756347656 C167.92921447753906 127.15209197998047 168.00408935546875 125.63911437988281 167.9044952392578 123.97007751464844 C167.85470581054688 123.13555908203125 167.76129150390625 122.26202392578125 167.63270568847656 121.36355590820312 C167.50411987304688 120.465087890625 167.34036254882812 119.54167938232422 167.14988708496094 118.60741424560547 C166.95941162109375 117.67314910888672 166.74220275878906 116.72802734375 166.5067138671875 115.78612518310547 C166.271240234375 114.84422302246094 166.01747131347656 113.90553283691406 165.75387573242188 112.9841537475586 C165.4902801513672 112.06277465820312 165.21685791015625 111.15868377685547 164.94203186035156 110.28598022460938 C164.66720581054688 109.41326904296875 164.39100646972656 108.57194519042969 164.12185668945312 107.77606964111328 C163.5835723876953 106.18431854248047 163.07351684570312 104.7743911743164 162.65927124023438 103.65892028808594 C162.24502563476562 102.54344177246094 161.92657470703125 101.72242736816406 161.77151489257812 101.30847930908203 C161.21600341796875 99.82560729980469 160.24319458007812 98.62544250488281 159.00439453125 97.69808197021484 C157.76559448242188 96.77072143554688 156.26080322265625 96.11616516113281 154.6412811279297 95.7244873046875 C153.51776123046875 95.45280456542969 152.34014892578125 95.30719757080078 151.15647888183594 95.28608703613281 C150.4575958251953 95.27423858642578 149.78591918945312 95.30272674560547 149.12127685546875 95.37055969238281 C148.5676727294922 95.38816833496094 148.1110382080078 95.40383911132812 147.89280700683594 95.43775939941406 C147.04112243652344 95.62128448486328 145.8234405517578 95.73296356201172 144.4528350830078 95.8916015625 C143.08224487304688 96.05024719238281 141.5587158203125 96.25584411621094 140.09536743164062 96.627197265625 C139.4476776123047 96.79167938232422 138.8112030029297 96.98751831054688 138.2057647705078 97.2271957397461 C137.0718994140625 97.64522552490234 135.92921447753906 98.18492126464844 134.89651489257812 98.88391876220703 C133.86383056640625 99.58291625976562 132.94114685058594 100.44122314453125 132.2472686767578 101.49644470214844 C131.5533905029297 102.55168151855469 131.08831787109375 103.8038330078125 130.97088623046875 105.29055786132812 L127.71028137207031 107.75455474853516 L124.44967651367188 110.21855926513672 L121.18905639648438 112.68255615234375 L117.92845153808594 115.14656066894531 L114.66783905029297 117.61055755615234 L115.32048034667969 122.18240356445312 L115.97311401367188 126.75424194335938 L120.08567810058594 126.74944305419922 L124.19823455810547 126.74464416503906 L128.310791015625 126.73983764648438 L132.42335510253906 126.73503875732422 C132.54591369628906 127.63279724121094 132.67669677734375 128.51513671875 132.812255859375 129.3738555908203 C132.94778442382812 130.23257446289062 133.0880889892578 131.06768798828125 133.2296600341797 131.8709716796875 C133.51280212402344 133.4775390625 133.80104064941406 134.95687866210938 134.06654357910156 136.24337768554688 C134.33206176757812 137.52987670898438 134.5748291015625 138.62356567382812 134.7670440673828 139.45887756347656 C134.7996826171875 139.6009521484375 134.82176208496094 139.69631958007812 134.84320068359375 139.7881622314453 C134.8803253173828 139.9481658935547 134.89471435546875 140.0095977783203 134.90911865234375 140.06976318359375 C134.9481658935547 140.23519897460938 134.95359802246094 140.25888061523438 134.9596710205078 140.28416442871094 C135.05471801757812 140.6835174560547 135.12576293945312 140.97311401367188 135.1651153564453 141.13055419921875 C135.1653289794922 141.13055419921875 135.50001525878906 141.349853515625 136.2455596923828 141.6165771484375 C136.9910888671875 141.88328552246094 138.14749145507812 142.19740295410156 139.7911376953125 142.3870391845703 C140.61294555664062 142.48184204101562 141.55657958984375 142.54554748535156 142.63156127929688 142.55662536621094 C143.70655822753906 142.56771850585938 144.91290283203125 142.52618408203125 146.26016235351562 142.41055297851562"></path>
<path fill="#3E313D" fill-opacity="1.0"  filling="0" d="M159.3632049560547 139.0537567138672 C159.3753662109375 139.07102966308594 159.38784790039062 139.08799743652344 159.40032958984375 139.10528564453125 C159.4879913330078 139.22496032714844 159.55360412597656 139.31231689453125 159.62112426757812 139.4009552001953 C159.7193603515625 139.52896118164062 159.78880310058594 139.6182403564453 159.85952758789062 139.70880126953125 C159.96640014648438 139.844482421875 160.04000854492188 139.93727111816406 160.11520385742188 140.03167724609375 C160.22879028320312 140.17343139648438 160.3094482421875 140.2736053466797 160.39231872558594 140.37599182128906 C160.4742431640625 140.47711181640625 160.52992248535156 140.54591369628906 160.58624267578125 140.6153564453125 C160.778564453125 140.85311889648438 160.87551879882812 140.97311401367188 160.97471618652344 141.09727478027344 C160.98272705078125 141.10751342773438 159.42431640625 139.13087463378906 159.36831665039062 139.05984497070312"></path>
<path fill="#3E313D" fill-opacity="1.0"  filling="0" d="M108.76192474365234 199.9686279296875 L108.69920349121094 199.95358276367188 C107.44324493408203 200.30645751953125 106.3020248413086 200.67355346679688 105.27891540527344 201.04791259765625 C104.25579833984375 201.42227172851562 103.35079956054688 201.80389404296875 102.56727600097656 202.18585205078125 C101.00022888183594 202.94976806640625 99.91909790039062 203.71498107910156 99.35083770751953 204.42596435546875 C98.78257751464844 205.13693237304688 98.72718811035156 205.79368591308594 99.21162414550781 206.34066772460938 C99.69606018066406 206.88766479492188 100.72032165527344 207.32489013671875 102.31135559082031 207.5968017578125 C103.65066528320312 207.8257598876953 104.91043090820312 207.96322631835938 106.07997131347656 208.03334045410156 C107.24951171875 208.10345458984375 108.32882690429688 208.106201171875 109.30722045898438 208.0657501220703 C111.26400756835938 207.98483276367188 112.81712341308594 207.7310333251953 113.88104248046875 207.49746704101562 C114.94495391845703 207.26390075683594 115.5196762084961 207.05056762695312 115.5196762084961 207.05056762695312 L115.5196762084961 204.41871643066406 L115.5196762084961 201.786865234375 L112.14080047607422 200.7895965576172 L108.76192474365234 199.9686279296875"></path>
<path fill="#53323C" fill-opacity="1.0"  filling="0" d="M149.22816467285156 71.70399475097656 C149.5481719970703 73.73065948486328 149.40829467773438 75.25880432128906 149.0791778564453 76.50225830078125 C148.75006103515625 77.7457046508789 148.23170471191406 78.70446014404297 147.7947540283203 79.59235382080078 C147.3577880859375 80.4802474975586 147.00222778320312 81.29727935791016 146.99871826171875 82.25727844238281 L148.71583557128906 82.57408142089844 C148.71583557128906 82.57408142089844 148.79904174804688 80.77143859863281 149.41343688964844 79.13935852050781 C149.72064208984375 78.32331848144531 150.16064453125 77.54991912841797 150.78944396972656 77.06581115722656 C151.41824340820312 76.58169555664062 152.23583984375 76.38687896728516 153.29824829101562 76.72799682617188 C154.48886108398438 77.11018371582031 155.0696563720703 78.18875885009766 155.2888946533203 79.5435562133789 C155.50811767578125 80.89836120605469 155.3657989501953 82.52937316894531 155.1101531982422 84.01644134521484 C154.85450744628906 85.50350189208984 154.4855499267578 86.84661102294922 154.25152587890625 87.62559509277344 C154.11807250976562 88.06912231445312 154.02816772460938 88.33120727539062 154.02816772460938 88.33120727539062 L153.69888305664062 88.95904541015625 C153.69888305664062 88.95904541015625 153.79840087890625 88.84960174560547 153.96896362304688 88.64927673339844 C154.28456115722656 88.27839660644531 154.85118103027344 87.5850830078125 155.51718139648438 86.64571380615234 C156.1831817626953 85.70634460449219 156.94854736328125 84.52092742919922 157.6616668701172 83.16584777832031 C158.37478637695312 81.8107681274414 159.03564453125 80.28602600097656 159.49261474609375 78.66801452636719 C159.72109985351562 77.8590087890625 159.89859008789062 77.02668762207031 160.0061798095703 76.18059539794922 C160.11375427246094 75.33450317382812 160.15139770507812 74.47464752197266 160.10015869140625 73.61056518554688 C160.04322814941406 72.65056610107422 159.9499053955078 71.7405014038086 159.81973266601562 70.87815856933594 C159.68954467773438 70.01581573486328 159.52249145507812 69.20120239257812 159.31809997558594 68.43209075927734 C158.9093017578125 66.89387512207031 158.3511505126953 65.53771209716797 157.63980102539062 64.34588623046875 C156.928466796875 63.15406799316406 156.06394958496094 62.1265869140625 155.0424346923828 61.245750427246094 C154.02093505859375 60.36491394042969 152.84243774414062 59.63072967529297 151.5031280517578 59.025482177734375 C150.16383361816406 58.42024230957031 148.6637420654297 57.943939208984375 146.99903869628906 57.578880310058594 C145.55770874023438 57.262840270996094 144.20655822753906 57.078521728515625 142.945556640625 56.997928619384766 C141.68453979492188 56.917335510253906 140.513671875 56.94047164916992 139.4329376220703 57.039344787597656 C138.35220336914062 57.13821792602539 137.361572265625 57.312828063964844 136.4610595703125 57.535179138183594 C135.560546875 57.757530212402344 134.7501220703125 58.02762985229492 134.02980041503906 58.317481994628906 C132.58914184570312 58.897186279296875 131.50881958007812 59.55589294433594 130.7886505126953 60.069679260253906 C130.0684814453125 60.583465576171875 129.70848083496094 60.95232391357422 129.70848083496094 60.95232391357422 L131.1248016357422 63.596160888671875 L132.54112243652344 66.24000549316406 C132.54632568359375 66.24000549316406 133.5319061279297 66.20176696777344 135.0223388671875 66.23934173583984 C135.76754760742188 66.25813293457031 136.63897705078125 66.29586791992188 137.5771942138672 66.3668212890625 C138.51539611816406 66.43777465820312 139.52037048339844 66.54193115234375 140.53268432617188 66.69356536865234 C141.5449981689453 66.84519958496094 142.56463623046875 67.04429626464844 143.53216552734375 67.30511474609375 C144.4997100830078 67.56593322753906 145.41513061523438 67.88847351074219 146.21900939941406 68.28700256347656 C147.82675170898438 69.08406066894531 148.98831176757812 70.1850357055664 149.22816467285156 71.70399475097656"></path>
<path fill="#FF493C" fill-opacity="1.0"  filling="0" d="M146.7667236328125 196.35006713867188 C146.7667236328125 196.35006713867188 146.73248291015625 196.3331298828125 146.67391967773438 196.3062286376953 C147.75999450683594 197.44863891601562 148.79295349121094 199.11264038085938 146.73983764648438 199.97503662109375 C145.97264099121094 200.29751586914062 145.1085968017578 200.26683044433594 144.2440948486328 200.03941345214844 C143.37957763671875 199.81201171875 142.51458740234375 199.38784790039062 141.74551391601562 198.92340087890625 C140.2073516845703 197.99447631835938 139.05279541015625 196.90431213378906 139.05279541015625 196.90431213378906 C139.02272033691406 196.77633666992188 138.99615478515625 196.65057373046875 138.967041015625 196.52255249023438 C138.28799438476562 197.44778442382812 138.1363525390625 198.83633422851562 138.2359619140625 200.2765350341797 C138.3355712890625 201.7167205810547 138.68641662597656 203.2085418701172 139.01235961914062 204.34033203125 C139.33831787109375 205.47210693359375 139.6393585205078 206.24383544921875 139.6393585205078 206.24383544921875 L140.66464233398438 202.4832000732422 C140.66464233398438 202.4832000732422 142.50912475585938 203.88511657714844 144.47999572753906 204.71583557128906 C146.07440185546875 205.38800048828125 147.5751953125 205.82830810546875 148.87332153320312 205.9501953125 C150.1714324951172 206.07208251953125 151.26687622070312 205.87551879882812 152.05055236816406 205.27392578125 C153.0194091796875 204.53013610839844 152.75526428222656 203.29066467285156 151.97247314453125 201.96861267089844 C151.189697265625 200.6465606689453 149.88824462890625 199.24192810058594 148.7825164794922 198.1678009033203 C147.67677307128906 197.0936737060547 146.7667236328125 196.35006713867188 146.7667236328125 196.35006713867188"></path>
<path fill="#FFC0AD" fill-opacity="1.0"  filling="0" d="M100.6169662475586 102.9849624633789 C100.56543731689453 102.96160125732422 100.51423645019531 102.94080352783203 100.46272277832031 102.91648864746094 C100.18272399902344 103.22624206542969 99.9094467163086 103.55839538574219 99.6441650390625 103.91488647460938 C99.97471618652344 103.5606460571289 100.30528259277344 103.25215911865234 100.6169662475586 102.9849624633789"></path>
<path fill="#FFC0AD" fill-opacity="1.0"  filling="0" d="M118.78912353515625 142.25054931640625 C118.78912353515625 142.25054931640625 119.10047912597656 141.23904418945312 119.5222396850586 139.53759765625 C118.67619323730469 139.6865997314453 117.8105239868164 139.77073669433594 116.93638610839844 139.80088806152344 C116.062255859375 139.83103942871094 115.17965698242188 139.8072052001953 114.29977416992188 139.74026489257812 C113.41989135742188 139.67332458496094 112.542724609375 139.5632781982422 111.679443359375 139.4210205078125 C110.816162109375 139.27874755859375 109.96676635742188 139.10427856445312 109.14244079589844 138.908447265625 C107.49378204345703 138.51678466796875 105.94537353515625 138.0397491455078 104.58660888671875 137.56439208984375 C103.22784423828125 137.08905029296875 102.0587158203125 136.6153564453125 101.16864013671875 136.23040771484375 C100.90208435058594 136.85952758789062 100.58624267578125 137.4060821533203 100.23712158203125 137.89569091796875 C100.5752944946289 138.25735473632812 101.08972930908203 138.76123046875 101.78250122070312 139.31341552734375 C102.47526550292969 139.86561584472656 103.34637451171875 140.46612548828125 104.39790344238281 141.02108764648438 C105.44942474365234 141.57603454589844 106.6813735961914 142.08543395996094 108.09581756591797 142.4553680419922 C109.51026153564453 142.8253173828125 111.10720825195312 143.05580139160156 112.88872528076172 143.05296325683594 C113.77948760986328 143.05154418945312 114.71639251708984 142.9917755126953 115.69970703125 142.86195373535156 C116.68302154541016 142.7321319580078 117.71273803710938 142.53224182128906 118.78912353515625 142.25054931640625"></path>
<path fill="#FFC0AD" fill-opacity="1.0"  filling="0" d="M74.20704650878906 171.80992126464844 C74.20704650878906 171.80992126464844 73.37040710449219 172.78599548339844 72.32464599609375 173.9014434814453 C71.27888488769531 175.01687622070312 70.02400207519531 176.27166748046875 69.18751525878906 176.82911682128906 C68.85285949707031 177.05221557617188 68.33973693847656 177.17494201660156 67.6503677368164 177.33334350585938 C66.96100616455078 177.49176025390625 66.09540557861328 177.68585205078125 65.05579376220703 178.05174255371094 C64.01618957519531 178.41763305664062 62.802574157714844 178.95530700683594 61.41719055175781 179.8008575439453 C60.72449493408203 180.2236328125 59.98885726928711 180.72335815429688 59.21055603027344 181.3170928955078 C58.432254791259766 181.9108123779297 57.611289978027344 182.5985107421875 56.74794006347656 183.39720153808594 C55.88459014892578 184.19589233398438 54.978851318359375 185.10556030273438 54.031009674072266 186.14324951171875 C53.083168029785156 187.18092346191406 52.09321594238281 188.3466033935547 51.061439514160156 189.65728759765625 C51.061439514160156 189.65728759765625 50.56896209716797 189.90367126464844 49.988800048828125 190.80096435546875 C49.38639831542969 192.9554443359375 49.154319763183594 194.51470947265625 49.162288665771484 195.63401794433594 C49.170257568359375 196.75332641601562 49.418277740478516 197.43264770507812 49.77607727050781 197.82723999023438 C50.49168395996094 198.61639404296875 51.646400451660156 198.26657104492188 52.11167907714844 198.07839965820312 C52.80976104736328 197.5308837890625 53.53248596191406 196.89599609375 54.215484619140625 196.2902069091797 C54.89848327636719 195.6844024658203 55.54176330566406 195.10768127441406 56.080963134765625 194.67648315429688 C56.77808380126953 194.11863708496094 57.806365966796875 193.22972106933594 59.01765441894531 192.19268798828125 C59.6233024597168 191.67417907714844 60.27470397949219 191.11863708496094 60.95334243774414 190.5489501953125 C61.631980895996094 189.979248046875 62.337852478027344 189.39541625976562 63.05244445800781 188.82028198242188 C63.767032623291016 188.24514770507812 64.49034118652344 187.67874145507812 65.20384216308594 187.14390563964844 C65.91735076904297 186.6090850830078 66.62106323242188 186.10586547851562 67.29644775390625 185.65708923339844 C68.64722442626953 184.75953674316406 69.88471984863281 184.079833984375 70.86080169677734 183.80096435546875 C72.1621322631836 183.4291229248047 73.40152740478516 183.0262908935547 74.52732849121094 182.57180786132812 C75.65312194824219 182.11734008789062 76.66531372070312 181.61123657226562 77.51224517822266 181.03289794921875 C78.35917663574219 180.4545440673828 79.04084777832031 179.803955078125 79.50559997558594 179.06048583984375 C79.50559997558594 179.06048583984375 79.87600708007812 178.8907928466797 80.53893280029297 178.5740203857422 C81.20185089111328 178.2572479248047 82.15727996826172 177.79339599609375 83.32732391357422 177.20504760742188 C84.49736785888672 176.61671447753906 85.88202667236328 175.90390014648438 87.40340423583984 175.08920288085938 C88.16409301757812 174.68185424804688 88.95895385742188 174.24903869628906 89.77825927734375 173.7935791015625 C90.59756469726562 173.33811950683594 91.44131469726562 172.86001586914062 92.29977416992188 172.3621063232422 C93.1582260131836 171.86419677734375 94.03138732910156 171.34645080566406 94.90950775146484 170.8117218017578 C95.78763580322266 170.27699279785156 96.67073059082031 169.7252655029297 97.5490493774414 169.1593780517578 C98.4273681640625 168.59347534179688 99.3009262084961 168.013427734375 100.15996551513672 167.42202758789062 C101.01901245117188 166.83062744140625 101.8635482788086 166.22789001464844 102.683837890625 165.61663818359375 C101.07807922363281 165.26919555664062 99.5212173461914 164.76731872558594 98.04862213134766 164.17868041992188 C96.57601928710938 163.59005737304688 95.18768310546875 162.9146728515625 93.91896057128906 162.22023010253906 C92.65023803710938 161.52578735351562 91.50114440917969 160.8123016357422 90.50701904296875 160.14743041992188 C89.51290130615234 159.48255920410156 88.67376708984375 158.86631774902344 88.02496337890625 158.36639404296875 C87.08831787109375 159.0680694580078 86.21189880371094 159.67799377441406 85.31024932861328 160.3434600830078 C84.40859985351562 161.00892639160156 83.48171997070312 161.72994995117188 82.44416046142578 162.65383911132812 C81.40660095214844 163.57772827148438 80.25836181640625 164.7044677734375 78.91399383544922 166.18136596679688 C78.24180603027344 166.91983032226562 77.52059173583984 167.74581909179688 76.73966217041016 168.67776489257812 C75.95873260498047 169.60972595214844 75.11808776855469 170.64764404296875 74.20704650878906 171.80992126464844"></path>
<path fill="#FFC0AD" fill-opacity="1.0"  filling="0" d="M111.70496368408203 101.07807922363281 C113.07200622558594 101.97376251220703 114.2838363647461 102.94944763183594 115.36160278320312 103.98591613769531 C114.1875228881836 102.75007629394531 112.95648193359375 101.77727508544922 111.70496368408203 101.07807922363281"></path>
<path fill="#FFC0AD" fill-opacity="1.0"  filling="0" d="M96.79488372802734 109.6236801147461 C96.79488372802734 109.6236801147461 96.8716812133789 109.71743774414062 97.00736236572266 109.9347152709961 C97.02591705322266 109.47103881835938 97.07679748535156 109.02559661865234 97.16032409667969 108.60095977783203 C97.03456115722656 108.93280029296875 96.91200256347656 109.27232360839844 96.79488372802734 109.6236801147461"></path>
<path fill="#FFC0AD" fill-opacity="1.0"  filling="0" d="M146.7401580810547 199.97503662109375 C148.79327392578125 199.11264038085938 147.76031494140625 197.44863891601562 146.6742401123047 196.3062286376953 C146.00543212890625 195.60191345214844 145.31712341308594 195.09503173828125 145.31712341308594 195.09503173828125 C145.31712341308594 195.09503173828125 145.33456420898438 194.0231475830078 145.36508178710938 192.37611389160156 C145.38034057617188 191.55259704589844 145.39886474609375 190.58529663085938 145.42010498046875 189.53628540039062 C145.4413604736328 188.48727416992188 145.46533203125 187.3565673828125 145.49148559570312 186.20623779296875 C145.51763916015625 185.05592346191406 145.54595947265625 183.885986328125 145.57591247558594 182.758544921875 C145.60586547851562 181.63108825683594 145.637451171875 180.54611206054688 145.67013549804688 179.5657196044922 C145.73550415039062 177.60491943359375 145.80520629882812 176.06240844726562 145.8748779296875 175.43487548828125 C145.9306182861328 174.9329833984375 146.10206604003906 174.3277130126953 146.24749755859375 173.60076904296875 C146.39292907714844 172.8738250732422 146.51234436035156 172.02520751953125 146.46405029296875 171.03663635253906 C146.41574096679688 170.04806518554688 146.19970703125 168.91954040527344 145.6742401123047 167.6327667236328 C145.4114990234375 166.9893798828125 145.0714111328125 166.30642700195312 144.63626098632812 165.58163452148438 C144.2010955810547 164.85684204101562 143.67086791992188 164.09019470214844 143.02784729003906 163.2794189453125 C142.38482666015625 162.46864318847656 141.62901306152344 161.61373901367188 140.74270629882812 160.71240234375 C139.85638427734375 159.81106567382812 138.83958435058594 158.8633270263672 137.674560546875 157.86688232421875 C136.68597412109375 157.02122497558594 135.7300262451172 156.20736694335938 134.8081817626953 155.4258575439453 C133.88632202148438 154.6443634033203 132.9985809326172 153.89523315429688 132.14637756347656 153.17904663085938 C131.294189453125 152.46286010742188 130.4775390625 151.77963256835938 129.6979217529297 151.12991333007812 C129.4075927734375 151.59344482421875 128.9285125732422 152.32606506347656 128.27200317382812 153.22430419921875 C127.61548614501953 154.12255859375 126.78153991699219 155.1864471435547 125.78147888183594 156.31248474121094 C124.78141784667969 157.4385223388672 123.61524963378906 158.62672424316406 122.29429626464844 159.7736053466797 C121.63381958007812 160.3470458984375 120.93464660644531 160.91017150878906 120.19819641113281 161.4500274658203 C119.46173858642578 161.98988342285156 118.68800354003906 162.5064697265625 117.87840270996094 162.98687744140625 C118.59376525878906 163.41970825195312 119.33892059326172 163.86846923828125 120.10350036621094 164.32615661621094 C120.86807250976562 164.7838592529297 121.65206909179688 165.25048828125 122.44510650634766 165.7190704345703 C123.23814392089844 166.18765258789062 124.04022216796875 166.658203125 124.84095764160156 167.12368774414062 C125.64169311523438 167.5891876220703 126.44108581542969 168.04965209960938 127.228759765625 168.4980926513672 C128.0164337158203 168.946533203125 128.79238891601562 169.38294982910156 129.54624938964844 169.8003387451172 C130.3000946044922 170.21774291992188 131.0318603515625 170.61611938476562 131.7311248779297 170.98851013183594 C133.1296844482422 171.7332763671875 134.39833068847656 172.37405395507812 135.45401000976562 172.85491943359375 C136.50970458984375 173.33580017089844 137.35244750976562 173.65676879882812 137.89920043945312 173.7619171142578 C137.89920043945312 173.7619171142578 137.82034301757812 174.13958740234375 137.71847534179688 174.85043334960938 C137.6166229248047 175.56126403808594 137.49176025390625 176.60525512695312 137.3997802734375 177.9378662109375 C137.30780029296875 179.27049255371094 137.24867248535156 180.89175415039062 137.27828979492188 182.7571258544922 C137.2930908203125 183.6898193359375 137.33009338378906 184.68353271484375 137.396240234375 185.73269653320312 C137.46240234375 186.78187561035156 137.55772399902344 187.8865203857422 137.68919372558594 189.0410614013672 C137.8206787109375 190.1956024169922 137.98829650878906 191.40003967285156 138.1990509033203 192.6488037109375 C138.4097900390625 193.8975830078125 138.66368103027344 195.190673828125 138.96768188476562 196.52255249023438 C138.99679565429688 196.65057373046875 139.0233612060547 196.77633666992188 139.05343627929688 196.90431213378906 C139.05328369140625 196.90431213378906 140.207763671875 197.99447631835938 141.74588012695312 198.92340087890625 C142.5149383544922 199.38784790039062 143.37991333007812 199.81201171875 144.24441528320312 200.03941345214844 C145.10891723632812 200.26683044433594 145.97296142578125 200.29751586914062 146.7401580810547 199.97503662109375"></path>
<path fill="#FF493C" fill-opacity="1.0"  filling="0" d="M50.07520294189453 190.74240112304688 L49.988800048828125 190.79583740234375 L47.18592071533203 192.6905517578125 L44.38304138183594 194.5852813720703 L41.58015441894531 196.47999572753906 L44.647674560546875 196.47999572753906 C44.647674560546875 196.47999572753906 43.95055389404297 196.882080078125 43.148834228515625 197.73727416992188 C42.34712219238281 198.5924835205078 41.44080352783203 199.9008026123047 41.02240753173828 201.71328735351562 C40.813209533691406 202.61952209472656 40.65631103515625 203.58245849609375 40.728179931640625 204.33140563964844 C40.800048828125 205.08033752441406 41.100685119628906 205.6152801513672 41.80656433105469 205.66551208496094 C42.512451171875 205.71575927734375 43.623565673828125 205.2812957763672 45.31639099121094 204.0914306640625 C46.16280746459961 203.4965057373047 47.1546516418457 202.7127227783203 48.31398010253906 201.7062530517578 C49.47331237792969 200.69979858398438 50.80012512207031 199.47064208984375 52.31648254394531 197.98495483398438 C52.31648254394531 197.98495483398438 52.24000549316406 198.02622985839844 52.11200714111328 198.0774383544922 C51.64656066894531 198.26559448242188 50.49176025390625 198.6157684326172 49.776123046875 197.82691955566406 C49.41830062866211 197.4324951171875 49.17026901245117 196.75332641601562 49.173095703125 195.6267852783203 C49.17591857910156 194.500244140625 49.42959976196289 192.92633056640625 50.07520294189453 190.74240112304688"></path>
<path fill="#FF3379" fill-opacity="1.0"  filling="0" d="M129.6979217529297 151.12991333007812 C129.91648864746094 150.7811279296875 130.02816772460938 150.5846405029297 130.02816772460938 150.5846405029297 L126.28182220458984 147.80661010742188 L122.53547668457031 145.02857971191406 L118.78912353515625 142.25054931640625 C117.71273803710938 142.53225708007812 116.68302154541016 142.73214721679688 115.69971466064453 142.86196899414062 C114.7164077758789 142.99179077148438 113.77951049804688 143.05154418945312 112.88875579833984 143.05296325683594 C111.10725402832031 143.05580139160156 109.51033782958984 142.8253173828125 108.0959243774414 142.45538330078125 C106.68151092529297 142.08544921875 105.44960021972656 141.57608032226562 104.39810943603516 141.02114868164062 C103.34661865234375 140.46621704101562 102.47554016113281 139.86572265625 101.78279113769531 139.31356811523438 C101.09004211425781 138.76141357421875 100.57562255859375 138.25759887695312 100.23744201660156 137.89599609375 C99.91136169433594 137.5471954345703 99.74656677246094 137.32896423339844 99.74656677246094 137.32896423339844 C99.74656677246094 137.32896423339844 99.05785369873047 137.89361572265625 98.08031463623047 138.83612060546875 C97.59153747558594 139.307373046875 97.03056335449219 139.8730926513672 96.4473648071289 140.50991821289062 C95.86416625976562 141.14674377441406 95.25874328613281 141.85467529296875 94.68108367919922 142.61038208007812 C94.10342407226562 143.36607360839844 93.55352783203125 144.16952514648438 93.08138275146484 144.99740600585938 C92.6092300415039 145.8252716064453 92.21482849121094 146.67755126953125 91.94816589355469 147.5308837890625 C91.68150329589844 148.38421630859375 91.35260772705078 149.2197723388672 90.9896469116211 150.019775390625 C90.62667846679688 150.81976318359375 90.22964477539062 151.58421325683594 89.8266830444336 152.29531860351562 C89.020751953125 153.71754455566406 88.19112396240234 154.9264373779297 87.56298065185547 155.77976989746094 C86.93482971191406 156.6331024169922 86.50816345214844 157.13087463378906 86.50816345214844 157.13087463378906 C86.50816345214844 157.13087463378906 87.05440521240234 157.61888122558594 88.02464294433594 158.36671447753906 C88.67344665527344 158.86663818359375 89.51258087158203 159.48289489746094 90.50670623779297 160.14779663085938 C91.50082397460938 160.81268310546875 92.6499252319336 161.52621459960938 93.91864013671875 162.22067260742188 C95.18736267089844 162.91513061523438 96.57569885253906 163.59051513671875 98.04830169677734 164.17913818359375 C99.5208969116211 164.7677459716797 101.0777587890625 165.26959228515625 102.68351745605469 165.616943359375 C104.00816345214844 165.90350341796875 105.36599731445312 166.08518981933594 106.73719787597656 166.12362670898438 C108.1083984375 166.16207885742188 109.49295806884766 166.05728149414062 110.87103271484375 165.7708740234375 C112.15167999267578 165.504638671875 113.37792205810547 165.1205596923828 114.54676055908203 164.64712524414062 C115.7155990600586 164.17367553710938 116.82703399658203 163.61087036132812 117.8780746459961 162.98719787597656 C118.68767547607422 162.5067596435547 119.46141815185547 161.99012756347656 120.1978759765625 161.4502410888672 C120.93434143066406 160.9103546142578 121.63352966308594 160.3472137451172 122.29402160644531 159.77374267578125 C123.61500549316406 158.62681579589844 124.78121948242188 157.43858337402344 125.78131866455078 156.31251525878906 C126.78141784667969 155.18646240234375 127.61540985107422 154.12255859375 128.27195739746094 153.22430419921875 C128.92849731445312 152.3260498046875 129.4075927734375 151.59344482421875 129.6979217529297 151.12991333007812"></path>
<path fill="#FF493C" fill-opacity="1.0"  filling="0" d="M119.5222396850586 139.5379180908203 C120.0150375366211 139.45120239257812 120.50175476074219 139.34368896484375 120.97887420654297 139.21087646484375 C120.97887420654297 139.21087646484375 121.18228912353516 138.62303161621094 121.4663314819336 137.583251953125 C121.75037384033203 136.54345703125 122.11504364013672 135.05172729492188 122.43755340576172 133.2439422607422 C122.59881591796875 132.34005737304688 122.74952697753906 131.35714721679688 122.87435913085938 130.3122100830078 C122.99919128417969 129.26727294921875 123.09812927246094 128.1603240966797 123.15583801269531 127.0083236694336 C121.9063949584961 126.415283203125 120.5869140625 125.72146606445312 119.25289916992188 124.97509002685547 C117.91888427734375 124.22871398925781 116.5703353881836 123.4297866821289 115.26275634765625 122.62652587890625 C113.9551773071289 121.8232650756836 112.68856811523438 121.01567077636719 111.5184326171875 120.2519760131836 C110.34829711914062 119.48828125 109.27464294433594 118.76847839355469 108.35295867919922 118.14080047607422 C107.10447692871094 118.43472290039062 105.84506225585938 117.96398162841797 104.70343017578125 117.01329803466797 C104.13261413574219 116.53795623779297 103.59125518798828 115.942626953125 103.09542846679688 115.26290130615234 C102.599609375 114.58317565917969 102.14932250976562 113.81904602050781 101.76067352294922 113.00611877441406 C101.37202453613281 112.19319152832031 101.04500579833984 111.33145141601562 100.79571533203125 110.45649719238281 C100.54642486572266 109.58154296875 100.3748550415039 108.69336700439453 100.29710388183594 107.82756042480469 C100.14159393310547 106.09596252441406 100.36135864257812 104.45384216308594 101.08511352539062 103.18592071533203 C100.92959594726562 103.12384033203125 100.7734375 103.05599975585938 100.6169662475586 102.9849624633789 C100.30528259277344 103.25215911865234 99.97503662109375 103.56095886230469 99.6441650390625 103.91488647460938 C99.1193618774414 104.476806640625 98.59640502929688 105.14848327636719 98.1556396484375 105.92964172363281 C97.71488189697266 106.71080017089844 97.3563232421875 107.6014404296875 97.16032409667969 108.60128021240234 C97.07711791992188 109.02559661865234 97.02591705322266 109.47103881835938 97.00736236572266 109.93504333496094 C96.97872161865234 110.66400146484375 97.0367202758789 111.4410400390625 97.20643615722656 112.26679992675781 C97.37615966796875 113.09255981445312 97.6575927734375 113.967041015625 98.07583618164062 114.89087677001953 C98.58306884765625 116.01087951660156 99.00117492675781 117.11167907714844 99.3429183959961 118.1859130859375 C99.68465423583984 119.2601547241211 99.95002746582031 120.3078384399414 100.15177154541016 121.32160186767578 C100.353515625 122.33535766601562 100.49165344238281 123.31520080566406 100.57891082763672 124.2537612915039 C100.66617584228516 125.19232177734375 100.70257568359375 126.089599609375 100.70085906982422 126.93824005126953 C100.69742584228516 128.63552856445312 100.54154205322266 130.13824462890625 100.33521270751953 131.3875274658203 C100.12889099121094 132.63681030273438 99.87213134765625 133.6326446533203 99.66694641113281 134.316162109375 C99.4617691040039 134.9996795654297 99.30816650390625 135.37088012695312 99.30816650390625 135.37088012695312 C99.30816650390625 135.37088012695312 99.9964828491211 135.7235107421875 101.16864013671875 136.2310333251953 C102.05872344970703 136.6158447265625 103.22782135009766 137.0894012451172 104.58656311035156 137.56466674804688 C105.94530487060547 138.03993225097656 107.49368286132812 138.5169219970703 109.14231872558594 138.90855407714844 C109.96663665771484 139.1043701171875 110.81602478027344 139.27886962890625 111.6792984008789 139.42112731933594 C112.54257202148438 139.5634002685547 113.41974639892578 139.67344665527344 114.29963684082031 139.7404022216797 C115.17952728271484 139.80735778808594 116.0621337890625 139.8312225341797 116.93629455566406 139.8011016845703 C117.81045532226562 139.77098083496094 118.67616271972656 139.6868896484375 119.5222396850586 139.5379180908203"></path>
<path fill="#FF493C" fill-opacity="1.0"  filling="0" d="M121.0271987915039 112.46015930175781 C120.62239837646484 111.44927978515625 120.1509017944336 110.45248413085938 119.6044921875 109.4787826538086 C119.05809020996094 108.50508117675781 118.43677520751953 107.55448150634766 117.73236083984375 106.63599395751953 C117.02794647216797 105.71751403808594 116.24043273925781 104.83114624023438 115.36160278320312 103.98591613769531 C114.2838363647461 102.94944763183594 113.07232666015625 101.97376251220703 111.70496368408203 101.07807922363281 C111.70880126953125 101.08560180664062 112.22207641601562 101.84848022460938 112.80123901367188 103.07107543945312 C113.38040161132812 104.2936782836914 114.02543640136719 105.97599792480469 114.29280090332031 107.82240295410156 L117.66000366210938 110.14128112792969 L121.0271987915039 112.46015930175781"></path>
<path fill="#FFC0AD" fill-opacity="1.0"  filling="0" d="M100.3372802734375 81.35456085205078 C100.3372802734375 81.35456085205078 100.33993530273438 81.89321899414062 100.39362335205078 82.79969787597656 C100.44731140136719 83.70616912841797 100.55203247070312 84.98046112060547 100.75614929199219 86.45173645019531 C100.96026611328125 87.92300415039062 101.26378631591797 89.59125518798828 101.71508026123047 91.28563690185547 C101.94072723388672 92.13282775878906 102.20331573486328 92.98655700683594 102.50889587402344 93.8254623413086 C102.8144760131836 94.66436767578125 103.16304779052734 95.48845672607422 103.56065368652344 96.2763671875 C103.95825958251953 97.06427764892578 104.40489959716797 97.81600952148438 104.90662384033203 98.51022338867188 C105.4083480834961 99.20442199707031 105.96514892578125 99.84110260009766 106.58309173583984 100.39889526367188 C107.20103454589844 100.95668029785156 107.88009643554688 101.43559265136719 108.6263427734375 101.81425476074219 C109.3725814819336 102.19291687011719 110.18600463867188 102.47134399414062 111.07263946533203 102.62816619873047 C111.07263946533203 102.62816619873047 110.54386138916016 102.92263793945312 109.6451644897461 103.23775482177734 C108.74647521972656 103.55287170410156 107.47787475585938 103.88862609863281 105.99824523925781 103.97120666503906 C105.25843048095703 104.01249694824219 104.46585083007812 103.99049377441406 103.640380859375 103.8709716796875 C102.81490325927734 103.7514419555664 101.95652770996094 103.53439331054688 101.08511352539062 103.18559265136719 C100.36135864257812 104.4535140991211 100.1415786743164 106.09563446044922 100.29705810546875 107.82723999023438 C100.37480163574219 108.69303894042969 100.54635620117188 109.58121490478516 100.7956314086914 110.4561767578125 C101.04491424560547 111.33113098144531 101.37191772460938 112.19287109375 101.76055908203125 113.00579833984375 C102.14920043945312 113.8187255859375 102.59947204589844 114.58284759521484 103.09529113769531 115.2625732421875 C103.59111022949219 115.94229888916016 104.13247680664062 116.53762817382812 104.70329284667969 117.01296997070312 C105.84494018554688 117.96365356445312 107.10440063476562 118.43440246582031 108.35295867919922 118.1404800415039 C109.27464294433594 118.76815795898438 110.34832000732422 119.48796081542969 111.51847839355469 120.25165557861328 C112.68863677978516 121.01535034179688 113.95527648925781 121.82293701171875 115.26287841796875 122.6261978149414 C116.57048034667969 123.42945861816406 117.91903686523438 124.2283935546875 119.25303649902344 124.97476196289062 C120.5870361328125 125.72113800048828 121.90647888183594 126.41496276855469 123.15583801269531 127.00799560546875 C124.39952087402344 127.59823608398438 125.57400512695312 128.0888671875 126.62419891357422 128.43194580078125 C127.67440032958984 128.7750244140625 128.60031127929688 128.97055053710938 129.3468780517578 128.97055053710938 C130.36709594726562 128.97055053710938 131.66171264648438 128.54217529296875 133.11094665527344 127.82820129394531 C133.83555603027344 127.4712142944336 134.59881591796875 127.04283142089844 135.3857421875 126.56089782714844 C136.1726837158203 126.07897186279297 136.98329162597656 125.54349517822266 137.80259704589844 124.97232055664062 C138.6219024658203 124.4011459350586 139.4499053955078 123.79427337646484 140.27163696289062 123.16954803466797 C141.09336853027344 122.5448226928711 141.9088134765625 121.90225219726562 142.7030029296875 121.25967407226562 C143.4971923828125 120.61709594726562 144.2701416015625 119.97452545166016 145.00685119628906 119.34980773925781 C145.74356079101562 118.72508239746094 146.44403076171875 118.11820983886719 147.0933074951172 117.54702758789062 C148.391845703125 116.40467834472656 149.48556518554688 115.40512084960938 150.25465393066406 114.69114685058594 C151.0237274169922 113.97718048095703 151.46817016601562 113.54879760742188 151.46817016601562 113.54879760742188 L148.45425415039062 112.19296264648438 L145.44032287597656 110.83712005615234 L141.84561157226562 112.97047424316406 L138.25088500976562 115.10383605957031 L134.65615844726562 117.2372055053711 L131.06143188476562 119.37055969238281 L127.71669006347656 117.06709289550781 L124.3719482421875 114.76362609863281 L121.0271987915039 112.46015930175781 L117.66015625 110.14128112792969 L114.2931137084961 107.82240295410156 C114.0257568359375 105.97599792480469 113.38072204589844 104.2936782836914 112.80104064941406 103.07075500488281 C112.22135925292969 101.84783935546875 111.70704650878906 101.08432006835938 111.70112609863281 101.07551574707031 C111.57759857177734 101.00672149658203 111.45408630371094 100.94047546386719 111.32992553710938 100.87680053710938 L110.42752075195312 98.60383605957031 C112.01264190673828 98.24295806884766 113.53327941894531 97.68537902832031 114.8968734741211 96.92764282226562 C116.26046752929688 96.16990661621094 117.4670181274414 95.21202087402344 118.42395782470703 94.05052185058594 C119.38089752197266 92.88902282714844 120.08822631835938 91.52391052246094 120.45338439941406 89.95172882080078 C120.6359634399414 89.16564178466797 120.73300170898438 88.32778930664062 120.73291778564453 87.43773651123047 C120.73283386230469 86.54768371582031 120.63563537597656 85.60543823242188 120.42975616455078 84.61055755615234 C120.1832504272461 83.41930389404297 119.8615493774414 82.25568389892578 119.46517181396484 81.1386947631836 C119.06880187988281 80.0217056274414 118.59776306152344 78.95135498046875 118.0525894165039 77.94664764404297 C117.50741577148438 76.94194030761719 116.88810729980469 76.00288391113281 116.19519805908203 75.14848327636719 C115.49040222167969 75.85232543945312 114.62201690673828 76.69631958007812 113.64164733886719 77.6015853881836 C112.66127014160156 78.50685119628906 111.56890106201172 79.47338104248047 110.41612243652344 80.42227935791016 C109.26334381103516 81.37118530273438 108.05015563964844 82.30245208740234 106.82814025878906 83.13719940185547 C105.60612487792969 83.97193908691406 104.37527465820312 84.71015930175781 103.18719482421875 85.27296447753906 L100.3372802734375 81.35456085205078"></path>
<path fill="#53323C" fill-opacity="1.0"  filling="0" d="M101.08511352539062 103.18592071533203 C101.95658111572266 103.53472137451172 102.81498718261719 103.75177001953125 103.64048767089844 103.87129211425781 C104.46598815917969 103.9908218383789 105.2585678100586 104.0128173828125 105.99838256835938 103.97152709960938 C107.47801208496094 103.88894653320312 108.74658203125 103.55318450927734 109.64523315429688 103.23806762695312 C110.54389190673828 102.9229507446289 111.07263946533203 102.62847900390625 111.07263946533203 102.62847900390625 C110.18600463867188 102.47164916992188 109.3725814819336 102.19322967529297 108.6263427734375 101.81456756591797 C107.88009643554688 101.43590545654297 107.20103454589844 100.95700073242188 106.58309173583984 100.39921569824219 C105.96515655517578 99.8414306640625 105.4083480834961 99.20475006103516 104.90662384033203 98.51054382324219 C104.40489959716797 97.81634521484375 103.95825958251953 97.06460571289062 103.56065368652344 96.27669525146484 C103.16304779052734 95.48878479003906 102.8144760131836 94.6646957397461 102.50889587402344 93.82579040527344 C102.20331573486328 92.98687744140625 101.94072723388672 92.13314819335938 101.71508026123047 91.28595733642578 C101.26378631591797 89.59156799316406 100.96026611328125 87.92332458496094 100.75614929199219 86.4520492553711 C100.55203247070312 84.98077392578125 100.44731140136719 83.70648193359375 100.39362335205078 82.80001068115234 C100.33993530273438 81.8935317993164 100.3372802734375 81.35487365722656 100.3372802734375 81.35487365722656 L103.1875228881836 85.27360534667969 C104.37567901611328 84.71080017089844 105.60655975341797 83.97260284423828 106.8285903930664 83.13787841796875 C108.05062103271484 82.30316162109375 109.2637939453125 81.37191772460938 110.41655731201172 80.42304229736328 C111.56932067871094 79.47416687011719 112.66165924072266 78.50764465332031 113.64200592041016 77.60236358642578 C114.62236022949219 76.69708251953125 115.49072265625 75.85304260253906 116.19551849365234 75.14912414550781 C117.39167785644531 73.95487976074219 118.12000274658203 73.16128540039062 118.12000274658203 73.16128540039062 C118.12000274658203 73.16128540039062 117.85044860839844 72.84778594970703 117.32225799560547 72.3775405883789 C116.7940673828125 71.90729522705078 116.00725555419922 71.2802963256836 114.97272491455078 70.65330505371094 C113.93820190429688 70.02630615234375 112.65596771240234 69.3993148803711 111.13694763183594 68.92906188964844 C110.37744140625 68.69393920898438 109.55873107910156 68.49800109863281 108.68218994140625 68.36084747314453 C107.80565643310547 68.22369384765625 106.87129211425781 68.14531707763672 105.88045501708984 68.14531707763672 C104.88961791992188 68.14531707763672 103.84232330322266 68.22369384765625 102.73992919921875 68.40003204345703 C101.63752746582031 68.57637786865234 100.48003387451172 68.85069274902344 99.268798828125 69.24256134033203 C98.25941467285156 69.56912231445312 97.32672119140625 69.95753479003906 96.46639251708984 70.39871978759766 C95.60607147216797 70.83990478515625 94.818115234375 71.3338623046875 94.09819030761719 71.87153625488281 C93.37826538085938 72.40921020507812 92.72637939453125 72.99058532714844 92.13819885253906 73.60659790039062 C91.55001831054688 74.22261047363281 91.02554321289062 74.87325286865234 90.56044006347656 75.5494613647461 C89.63024139404297 76.90188598632812 88.93754577636719 78.35655975341797 88.44772338867188 79.8409194946289 C87.95789337158203 81.32527923583984 87.67093658447266 82.83932495117188 87.55220031738281 84.31047821044922 C87.4334716796875 85.7816390991211 87.48296356201172 87.20991516113281 87.66604614257812 88.5227279663086 C87.84913635253906 89.83554077148438 88.16580963134766 91.03289794921875 88.58143615722656 92.042236328125 C88.99706268310547 93.05162048339844 89.2437744140625 94.09982299804688 89.3663330078125 95.1458511352539 C89.48888397216797 96.19187927246094 89.48728942871094 97.23574829101562 89.40628814697266 98.2364730834961 C89.32528686523438 99.23719787597656 89.16490173339844 100.19477844238281 88.9698715209961 101.06824493408203 C88.77484893798828 101.94171142578125 88.5451889038086 102.73106384277344 88.32565307617188 103.39532470703125 C87.8865737915039 104.72384643554688 87.48799896240234 105.552001953125 87.48799896240234 105.552001953125 C88.81071472167969 104.83952331542969 90.37576293945312 103.84976196289062 91.61012268066406 103.03811645507812 C92.844482421875 102.22647857666016 93.7481689453125 101.59295654296875 93.7481689453125 101.59295654296875 C94.99504852294922 103.55232238769531 95.60640716552734 104.716796875 95.90604400634766 105.39144134521484 C96.2056884765625 106.06607818603516 96.193603515625 106.2508773803711 96.193603515625 106.2508773803711 L97.7656021118164 104.28016662597656 L99.33760070800781 102.3094482421875 C99.7132797241211 102.53952026367188 100.0889663696289 102.740478515625 100.4630355834961 102.91679382324219 C100.7734375 103.0556869506836 100.92927551269531 103.12351989746094 101.08511352539062 103.18592071533203"></path>
<path fill="#FFC0AD" fill-opacity="1.0"  filling="0" d="M145.03231811523438 110.7430419921875 C145.03231811523438 110.7430419921875 145.2025604248047 110.00419616699219 145.67108154296875 109.00675964355469 C146.13958740234375 108.00931549072266 146.90638732910156 106.75328063964844 148.0994873046875 105.7188949584961 C148.696044921875 105.20170593261719 149.399169921875 104.73992156982422 150.22486877441406 104.39359283447266 C151.0505828857422 104.04725646972656 151.99887084960938 103.81636810302734 153.08575439453125 103.76095581054688 C154.71615600585938 103.6778335571289 155.56103515625 104.44741821289062 155.8182373046875 105.65364837646484 C156.07542419433594 106.85987854003906 155.74493408203125 108.50276184082031 155.02459716796875 110.1662368774414 C154.6644287109375 110.99797058105469 154.206787109375 111.8348617553711 153.67642211914062 112.6249008178711 C153.14605712890625 113.41493225097656 152.54296875 114.15811157226562 151.89186096191406 114.80242919921875 C150.58966064453125 116.09105682373047 149.09542846679688 116.98423767089844 147.60704040527344 117.06591796875"></path>
<path fill="#E69475" fill-opacity="1.0"  filling="0" d="M156.8633575439453 110.58528137207031 L154.3223876953125 114.35072326660156 L151.78143310546875 118.11616516113281 C151.78143310546875 118.11616516113281 150.97720336914062 117.87989807128906 149.92298889160156 117.38300323486328 C148.8687744140625 116.88611602783203 147.56459045410156 116.12860107421875 146.56468200683594 115.08611297607422 C145.56475830078125 114.04362487792969 144.86911010742188 112.71615600585938 145.03199768066406 111.07935333251953 C145.11656188964844 110.22999572753906 145.3890838623047 109.07351684570312 145.87759399414062 107.99179077148438 C146.36611938476562 106.91006469726562 147.0706329345703 105.9030990600586 148.01919555664062 105.3527603149414 C148.96775817871094 104.80242156982422 150.1603546142578 104.70870971679688 151.62503051757812 105.45350646972656 C152.3573760986328 105.8259048461914 153.15774536132812 106.40792846679688 154.0296173095703 107.247314453125 C154.90150451660156 108.08670043945312 155.84490966796875 109.18344116210938 156.8633575439453 110.58528137207031"></path>
<path fill="#E69475" fill-opacity="1.0"  filling="0" d="M99.6204833984375 121.3497543334961 C98.88960266113281 121.58965301513672 98.64202880859375 122.5295639038086 98.63490295410156 123.75994110107422 C98.62777709960938 124.99031829833984 98.8611068725586 126.51116180419922 99.09202575683594 127.91291809082031 C99.32295227050781 129.31466674804688 99.55146789550781 130.5973358154297 99.53471374511719 131.3513641357422 C99.50975799560547 132.48239135742188 100.83535766601562 132.7280731201172 102.34107971191406 132.4272003173828 C103.8468017578125 132.12631225585938 105.53263854980469 131.27886962890625 106.22816467285156 130.2236785888672 C107.21045684814453 128.7334442138672 107.49272918701172 127.0245361328125 107.20285034179688 125.48371124267578 C106.9129638671875 123.94288635253906 106.05091857910156 122.57014465332031 104.74456787109375 121.75223541259766 C104.09140014648438 121.34327697753906 103.3271484375 121.07303619384766 102.46780395507812 120.98983764648438 C101.60846710205078 120.90664672851562 100.6540298461914 121.010498046875 99.6204833984375 121.3497543334961"></path></svg>