<svg xmlns="http://www.w3.org/2000/svg" viewBox="0.0 0.0 512.0 512.0" height="512.0px" width="512.0px"><path fill="none" stroke="black" stroke-width="0.5" stroke-opacity="1.0"  filling="0" d="M261.4717102050781 279.79638671875 L284.87628173828125 256.0240783691406"></path>
<path fill="none" stroke="black" stroke-width="0.5" stroke-opacity="1.0"  filling="0" d="M207.74037170410156 399.3620300292969 L227.0314483642578 410.9742736816406"></path>
<path fill="none" stroke="black" stroke-width="0.5" stroke-opacity="1.0"  filling="0" d="M268.8800964355469 404.91827392578125 L296.4192810058594 394.36578369140625"></path>
<path fill="none" stroke="black" stroke-width="0.5" stroke-opacity="1.0"  filling="0" d="M299.1047668457031 206.59841918945312 L335.1261901855469 173.4599609375"></path>
<path fill="none" stroke="black" stroke-width="0.5" stroke-opacity="1.0"  filling="0" d="M207.74037170410156 399.3620300292969 L192.29315185546875 384.718994140625"></path>
<path fill="none" stroke="black" stroke-width="0.5" stroke-opacity="1.0"  filling="0" d="M296.4192810058594 394.36578369140625 L316.4800109863281 381.969482421875"></path>
<path fill="none" stroke="black" stroke-width="0.5" stroke-opacity="1.0"  filling="0" d="M214.1646728515625 355.6375732421875 L230.01535034179688 371.6614685058594"></path>
<path fill="none" stroke="black" stroke-width="0.5" stroke-opacity="1.0"  filling="0" d="M241.30413818359375 392.542236328125 L230.01535034179688 371.6614685058594"></path>
<path fill="none" stroke="black" stroke-width="0.5" stroke-opacity="1.0"  filling="0" d="M279.58843994140625 301.1553039550781 L300.31707763671875 282.6141357421875"></path>
<path fill="none" stroke="black" stroke-width="0.5" stroke-opacity="1.0"  filling="0" d="M284.87628173828125 256.0240783691406 L300.31707763671875 282.6141357421875"></path>
<path fill="none" stroke="black" stroke-width="0.5" stroke-opacity="1.0"  filling="0" d="M241.30413818359375 392.542236328125 L251.92169189453125 406.2571716308594"></path>
<path fill="none" stroke="black" stroke-width="0.5" stroke-opacity="1.0"  filling="0" d="M251.92169189453125 406.2571716308594 L268.8800964355469 404.91827392578125"></path>
<path fill="none" stroke="black" stroke-width="0.5" stroke-opacity="1.0"  filling="0" d="M279.58843994140625 301.1553039550781 L251.92169189453125 406.2571716308594"></path>
<path fill="none" stroke="black" stroke-width="0.5" stroke-opacity="1.0"  filling="0" d="M214.1646728515625 355.6375732421875 L193.93414306640625 351.3515625"></path>
<path fill="none" stroke="black" stroke-width="0.5" stroke-opacity="1.0"  filling="0" d="M192.29315185546875 384.718994140625 L193.93414306640625 351.3515625"></path>
<path fill="none" stroke="black" stroke-width="0.5" stroke-opacity="1.0"  filling="0" d="M284.87628173828125 256.0240783691406 L291.73516845703125 227.343505859375"></path>
<path fill="none" stroke="black" stroke-width="0.5" stroke-opacity="1.0"  filling="0" d="M225.2256622314453 238.7076873779297 L291.73516845703125 227.343505859375"></path>
<path fill="none" stroke="black" stroke-width="0.5" stroke-opacity="1.0"  filling="0" d="M232.16539001464844 191.2012939453125 L291.73516845703125 227.343505859375"></path>
<path fill="none" stroke="black" stroke-width="0.5" stroke-opacity="1.0"  filling="0" d="M299.1047668457031 206.59841918945312 L291.73516845703125 227.343505859375"></path>
<path fill="none" stroke="black" stroke-width="0.5" stroke-opacity="1.0"  filling="0" d="M354.131591796875 215.98162841796875 L291.73516845703125 227.343505859375"></path>
<path fill="none" stroke="black" stroke-width="0.5" stroke-opacity="1.0"  filling="0" d="M339.42169189453125 257.7953796386719 L291.73516845703125 227.343505859375"></path>
<path fill="none" stroke="black" stroke-width="0.5" stroke-opacity="1.0"  filling="0" d="M290.2914733886719 155.70596313476562 L291.73516845703125 227.343505859375"></path></svg>