<?xml version="1.0" ?>
<svg xmlns="http://www.w3.org/2000/svg" version="1.1" width="256" height="256">
  <defs/>
  <g>
    <path d="M 209.5268096923828 203.5956573486328 C 209.37314125734784 203.20986926561298 208.76796731403638 204.0177833465355 209.91753600962375 203.92304104639604" stroke-width="1.0" fill="none" stroke="rgb(255, 0, 0)" stroke-opacity="1.0" stroke-linecap="round" stroke-linejoin="round"/>
    <path d="M 112.0 172.30142211914062 C 111.54995688464027 171.6862558846341 111.46133409922408 172.16659935913245 112.71883903582832 172.79868277315663" stroke-width="1.0" fill="none" stroke="rgb(255, 0, 0)" stroke-opacity="1.0" stroke-linecap="round" stroke-linejoin="round"/>
    <path d="M 46.351463317871094 197.0090789794922 C 46.22816335919249 197.22042902937517 45.828840838488155 196.81700472194527 45.285972619078954 196.8326924310341" stroke-width="1.0" fill="none" stroke="rgb(255, 0, 0)" stroke-opacity="1.0" stroke-linecap="round" stroke-linejoin="round"/>
    <path d="M 93.36770629882812 95.53316497802734 C 93.66869371384313 95.4680401492648 92.82660528448837 96.15886834203535 93.63031049470955 94.60888508300833" stroke-width="1.0" fill="none" stroke="rgb(255, 0, 0)" stroke-opacity="1.0" stroke-linecap="round" stroke-linejoin="round"/>
    <path d="M 93.0843734741211 162.35409545898438 C 93.44205104080712 162.95080200677893 92.94916779644302 162.55071696172024 93.46234968355546 161.78098656699208" stroke-width="1.0" fill="none" stroke="rgb(255, 0, 0)" stroke-opacity="1.0" stroke-linecap="round" stroke-linejoin="round"/>
    <path d="M 159.29507446289062 121.61883544921875 C 159.5952020214686 121.82776571588859 159.54438276091614 121.57689905949684 159.76946862443455 122.09392270999827" stroke-width="1.0" fill="none" stroke="rgb(255, 0, 0)" stroke-opacity="1.0" stroke-linecap="round" stroke-linejoin="round"/>
    <path d="M 159.2640380859375 159.75132751464844 C 159.49279940482367 159.99558111658467 158.6810202935813 160.50551869784871 159.30726803854247 159.9184153728681" stroke-width="1.0" fill="none" stroke="rgb(255, 0, 0)" stroke-opacity="1.0" stroke-linecap="round" stroke-linejoin="round"/>
    <path d="M 128.68310546875 160.4866485595703 C 128.75076367655606 160.98181245948055 128.3187982113446 160.72763134638635 128.4580292390163 160.61103338366237" stroke-width="1.0" fill="none" stroke="rgb(255, 0, 0)" stroke-opacity="1.0" stroke-linecap="round" stroke-linejoin="round"/>
    <path d="M 98.92070007324219 156.19195556640625 C 99.3496625381981 155.58990258146792 98.61376331424992 155.61273984704502 99.12951246461209 156.1970412648171" stroke-width="1.0" fill="none" stroke="rgb(255, 0, 0)" stroke-opacity="1.0" stroke-linecap="round" stroke-linejoin="round"/>
    <path d="M 101.03571319580078 92.30750274658203 C 100.87431987765802 92.76787451183144 100.64302008618994 92.25291220937146 100.02921497461966 92.63614118124464" stroke-width="1.0" fill="none" stroke="rgb(255, 0, 0)" stroke-opacity="1.0" stroke-linecap="round" stroke-linejoin="round"/>
    <path d="M 122.13096618652344 154.40821838378906 C 121.98986356549906 154.2065072989452 122.68532320344914 154.22427414474885 122.36545848966551 154.66484321822492" stroke-width="1.0" fill="none" stroke="rgb(255, 0, 0)" stroke-opacity="1.0" stroke-linecap="round" stroke-linejoin="round"/>
    <path d="M 147.32379150390625 111.42758178710938 C 147.91734665627308 111.12709810992766 147.22975266278027 111.39491947095429 146.56863299458723 111.59280220932094" stroke-width="1.0" fill="none" stroke="rgb(255, 0, 0)" stroke-opacity="1.0" stroke-linecap="round" stroke-linejoin="round"/>
    <path d="M 120.292724609375 145.6997528076172 C 120.02819337584627 145.04221559019575 120.55638594842692 145.0595717878287 120.49838753053535 145.62684863086463" stroke-width="1.0" fill="none" stroke="rgb(255, 0, 0)" stroke-opacity="1.0" stroke-linecap="round" stroke-linejoin="round"/>
    <path d="M 133.10385131835938 134.1018829345703 C 132.32308722323188 134.39552595317411 132.4399796392531 134.03015275140947 134.10729596277923 134.31620191634602" stroke-width="1.0" fill="none" stroke="rgb(255, 0, 0)" stroke-opacity="1.0" stroke-linecap="round" stroke-linejoin="round"/>
    <path d="M 147.2578582763672 95.31224060058594 C 147.2131826930953 94.94765829156157 147.2212795797837 94.87347060079873 147.27339966713893 95.19034420447765" stroke-width="1.0" fill="none" stroke="rgb(255, 0, 0)" stroke-opacity="1.0" stroke-linecap="round" stroke-linejoin="round"/>
    <path d="M 140.47987365722656 170.3043212890625 C 140.54577398427156 169.22500354321315 140.41291479171417 171.2816011308433 140.4909381449437 169.69733519423576" stroke-width="1.0" fill="none" stroke="rgb(255, 0, 0)" stroke-opacity="1.0" stroke-linecap="round" stroke-linejoin="round"/>
    <path d="M 142.10989379882812 138.94105529785156 C 142.53836736809828 139.09045799247852 142.5195110988696 138.38865148746171 141.99224639894936 138.8567380191494" stroke-width="1.0" fill="none" stroke="rgb(255, 0, 0)" stroke-opacity="1.0" stroke-linecap="round" stroke-linejoin="round"/>
    <path d="M 111.16524505615234 202.1652374267578 C 110.52669953697585 202.07751609226662 111.22204771410831 202.20750139047237 111.66542164136519 202.29434321104614" stroke-width="1.0" fill="none" stroke="rgb(255, 0, 0)" stroke-opacity="1.0" stroke-linecap="round" stroke-linejoin="round"/>
    <path d="M 102.642578125 101.07667541503906 C 102.46051561469024 100.61259375253852 102.62110919156974 100.58136162126743 102.3984384272987 101.00529705927181" stroke-width="1.0" fill="none" stroke="rgb(255, 0, 0)" stroke-opacity="1.0" stroke-linecap="round" stroke-linejoin="round"/>
    <path d="M 143.13223266601562 73.69080352783203 C 142.93554812160215 73.53427294235841 143.20164283877935 73.69614464250877 142.85873914808838 73.69035348044399" stroke-width="1.0" fill="none" stroke="rgb(255, 0, 0)" stroke-opacity="1.0" stroke-linecap="round" stroke-linejoin="round"/>
    <path d="M 103.2579116821289 82.12874603271484 C 103.71952820865094 82.33220916695387 103.92649595538953 81.95668829238272 103.46893096591158 81.97188894921831" stroke-width="1.0" fill="none" stroke="rgb(255, 0, 0)" stroke-opacity="1.0" stroke-linecap="round" stroke-linejoin="round"/>
    <path d="M 125.5705795288086 141.40682983398438 C 126.18605787975696 141.66642650351392 125.64716617186893 140.5180476402082 125.37669723910604 140.8500736013751" stroke-width="1.0" fill="none" stroke="rgb(255, 0, 0)" stroke-opacity="1.0" stroke-linecap="round" stroke-linejoin="round"/>
    <path d="M 143.01876831054688 200.17662048339844 C 143.33386792445765 199.98681628969595 142.32934973413515 200.33872805057044 143.72877083392328 200.42067984462045" stroke-width="1.0" fill="none" stroke="rgb(255, 0, 0)" stroke-opacity="1.0" stroke-linecap="round" stroke-linejoin="round"/>
  </g>
</svg>
