<?xml version="1.0" ?>
<svg xmlns="http://www.w3.org/2000/svg" version="1.1" width="256" height="256">
  <defs/>
  <g>
    <path d="M 209.5268096923828 203.5956573486328 C 205.74327330130555 197.65506196027698 208.06414350918104 198.33004191792185 209.76501343078826 203.47142545951917" stroke-width="1.0" fill="none" stroke="rgb(255, 0, 0)" stroke-opacity="1.0" stroke-linecap="round" stroke-linejoin="round"/>
    <path d="M 112.0 172.30142211914062 C 117.21071856881957 169.8878842120038 117.1274219054489 168.8062483479754 113.39335547526619 172.61011692289875" stroke-width="1.0" fill="none" stroke="rgb(255, 0, 0)" stroke-opacity="1.0" stroke-linecap="round" stroke-linejoin="round"/>
    <path d="M 46.351463317871094 197.0090789794922 C 58.321442333487155 200.57389601698503 56.55714224439483 198.5638544227538 49.08940341474851 198.46187843543436" stroke-width="1.0" fill="none" stroke="rgb(255, 0, 0)" stroke-opacity="1.0" stroke-linecap="round" stroke-linejoin="round"/>
    <path d="M 93.36770629882812 95.53316497802734 C 98.32164859026601 72.8471484143071 99.85565170077102 70.28670510589414 94.34470709066444 93.28609457950644" stroke-width="1.0" fill="none" stroke="rgb(255, 0, 0)" stroke-opacity="1.0" stroke-linecap="round" stroke-linejoin="round"/>
    <path d="M 93.0843734741211 162.35409545898438 C 106.00429787007843 167.60235080963156 108.9213457191687 169.55749287734295 94.77847376516709 161.87034558221845" stroke-width="1.0" fill="none" stroke="rgb(255, 0, 0)" stroke-opacity="1.0" stroke-linecap="round" stroke-linejoin="round"/>
    <path d="M 159.29507446289062 121.61883544921875 C 159.06843925284238 121.74056078272208 157.70536280671158 112.1683386866078 166.63869803055294 110.16062486725725" stroke-width="1.0" fill="none" stroke="rgb(255, 0, 0)" stroke-opacity="1.0" stroke-linecap="round" stroke-linejoin="round"/>
    <path d="M 159.2640380859375 159.75132751464844 C 155.2760039752363 153.8543248288907 155.27085301672201 155.30022653256933 161.1378162728264 158.6623813264566" stroke-width="1.0" fill="none" stroke="rgb(255, 0, 0)" stroke-opacity="1.0" stroke-linecap="round" stroke-linejoin="round"/>
    <path d="M 128.68310546875 160.4866485595703 C 134.5066318730435 148.54620341683605 133.23837265087022 148.11684438685742 128.17159421606613 160.27621141439167" stroke-width="1.0" fill="none" stroke="rgb(255, 0, 0)" stroke-opacity="1.0" stroke-linecap="round" stroke-linejoin="round"/>
    <path d="M 98.92070007324219 156.19195556640625 C 108.80963015141832 158.70595598389178 109.56218714690488 159.61546777282246 100.24883005580243 155.158848141402" stroke-width="1.0" fill="none" stroke="rgb(255, 0, 0)" stroke-opacity="1.0" stroke-linecap="round" stroke-linejoin="round"/>
    <path d="M 101.03571319580078 92.30750274658203 C 106.19484714809431 79.50486335431877 106.18427326550169 78.36202753428591 102.59323846934012 91.39636528517225" stroke-width="1.0" fill="none" stroke="rgb(255, 0, 0)" stroke-opacity="1.0" stroke-linecap="round" stroke-linejoin="round"/>
    <path d="M 122.13096618652344 154.40821838378906 C 119.284107646281 148.12996736526372 121.27989789331426 147.57629606244961 121.2098064434619 153.89794682134954" stroke-width="1.0" fill="none" stroke="rgb(255, 0, 0)" stroke-opacity="1.0" stroke-linecap="round" stroke-linejoin="round"/>
    <path d="M 147.32379150390625 111.42758178710938 C 151.74080789084263 106.88430335780669 143.11424233317612 101.3340303796116 150.25853005498152 109.2649508542451" stroke-width="1.0" fill="none" stroke="rgb(255, 0, 0)" stroke-opacity="1.0" stroke-linecap="round" stroke-linejoin="round"/>
    <path d="M 120.292724609375 145.6997528076172 C 123.93386720754755 139.0434609696437 122.80331824637194 138.31306819629123 122.04291033753742 145.35336899038077" stroke-width="1.0" fill="none" stroke="rgb(255, 0, 0)" stroke-opacity="1.0" stroke-linecap="round" stroke-linejoin="round"/>
    <path d="M 133.10385131835938 134.1018829345703 C 131.9777854759098 125.18775575459051 130.2270090248198 124.13653913726753 135.96462902685852 133.00786810220188" stroke-width="1.0" fill="none" stroke="rgb(255, 0, 0)" stroke-opacity="1.0" stroke-linecap="round" stroke-linejoin="round"/>
    <path d="M 147.2578582763672 95.31224060058594 C 167.90731843349465 98.2495340914559 160.64408818968656 90.25787254805863 145.7640042456563 93.22513205306946" stroke-width="1.0" fill="none" stroke="rgb(255, 0, 0)" stroke-opacity="1.0" stroke-linecap="round" stroke-linejoin="round"/>
    <path d="M 140.47987365722656 170.3043212890625 C 135.06145297117857 166.50039416821315 136.9398287288954 164.7926401494743 140.476533274374 170.44546243119808" stroke-width="1.0" fill="none" stroke="rgb(255, 0, 0)" stroke-opacity="1.0" stroke-linecap="round" stroke-linejoin="round"/>
    <path d="M 142.10989379882812 138.94105529785156 C 138.99774263035872 132.89003281466594 133.6526445400794 135.62815481149354 141.80477751257393 140.7906208665777" stroke-width="1.0" fill="none" stroke="rgb(255, 0, 0)" stroke-opacity="1.0" stroke-linecap="round" stroke-linejoin="round"/>
    <path d="M 111.16524505615234 202.1652374267578 C 106.93097882860565 200.00748200556237 108.92759997543105 199.81917760659786 108.76529923726667 202.33667921303837" stroke-width="1.0" fill="none" stroke="rgb(255, 0, 0)" stroke-opacity="1.0" stroke-linecap="round" stroke-linejoin="round"/>
    <path d="M 102.642578125 101.07667541503906 C 113.4024747871775 84.93323327342208 115.69120627852088 82.21577060187542 104.98019123420063 100.07670450404692" stroke-width="1.0" fill="none" stroke="rgb(255, 0, 0)" stroke-opacity="1.0" stroke-linecap="round" stroke-linejoin="round"/>
    <path d="M 143.13223266601562 73.69080352783203 C 165.65360485997877 75.76159009676591 159.13663054770555 70.10097371061816 139.9364753469905 71.61741245099965" stroke-width="1.0" fill="none" stroke="rgb(255, 0, 0)" stroke-opacity="1.0" stroke-linecap="round" stroke-linejoin="round"/>
    <path d="M 103.2579116821289 82.12874603271484 C 109.54743773786008 69.96309475309641 110.06542347471097 68.45786807691908 101.73956528927012 80.98002633923582" stroke-width="1.0" fill="none" stroke="rgb(255, 0, 0)" stroke-opacity="1.0" stroke-linecap="round" stroke-linejoin="round"/>
    <path d="M 125.5705795288086 141.40682983398438 C 124.10744269115833 131.47638493165837 122.32122370024551 130.22514612424752 127.85610951167855 140.61856951869535" stroke-width="1.0" fill="none" stroke="rgb(255, 0, 0)" stroke-opacity="1.0" stroke-linecap="round" stroke-linejoin="round"/>
    <path d="M 143.01876831054688 200.17662048339844 C 144.11964188719378 195.61071756747648 144.6949550288396 194.92682168899054 142.32405464024728 200.1569234316077" stroke-width="1.0" fill="none" stroke="rgb(255, 0, 0)" stroke-opacity="1.0" stroke-linecap="round" stroke-linejoin="round"/>
  </g>
</svg>
