<?xml version="1.0" ?>
<svg xmlns="http://www.w3.org/2000/svg" version="1.1" width="256" height="256">
  <defs/>
  <g>
    <path d="M 209.5268096923828 203.5956573486328 C 205.65662054556825 199.63127684598865 208.01584538868238 199.199107679488 208.1353963208935 201.40303966476037" stroke-width="1.0" fill="none" stroke="rgb(255, 0, 0)" stroke-opacity="1.0" stroke-linecap="round" stroke-linejoin="round"/>
    <path d="M 112.0 172.30142211914062 C 113.5012615289865 172.75996739910707 112.66871493046568 171.61850146553675 113.89545379718086 173.30467977528141" stroke-width="1.0" fill="none" stroke="rgb(255, 0, 0)" stroke-opacity="1.0" stroke-linecap="round" stroke-linejoin="round"/>
    <path d="M 46.351463317871094 197.0090789794922 C 53.20063850047934 200.14743336668596 51.98166702848297 199.27260228652332 49.22217395307859 200.32310094100382" stroke-width="1.0" fill="none" stroke="rgb(255, 0, 0)" stroke-opacity="1.0" stroke-linecap="round" stroke-linejoin="round"/>
    <path d="M 93.36770629882812 95.53316497802734 C 93.88842438906362 85.35594415252731 93.10990008143203 82.95746239959531 91.33898134927803 96.91156772117667" stroke-width="1.0" fill="none" stroke="rgb(255, 0, 0)" stroke-opacity="1.0" stroke-linecap="round" stroke-linejoin="round"/>
    <path d="M 93.0843734741211 162.35409545898438 C 101.14921249715363 166.90297565704367 100.5295901382666 165.96014943251873 94.43553724935899 163.27595313355474" stroke-width="1.0" fill="none" stroke="rgb(255, 0, 0)" stroke-opacity="1.0" stroke-linecap="round" stroke-linejoin="round"/>
    <path d="M 159.29507446289062 121.61883544921875 C 156.0148854778895 119.2199646063362 161.3852371076683 113.0045317713246 165.03398649796017 112.15929163056292" stroke-width="1.0" fill="none" stroke="rgb(255, 0, 0)" stroke-opacity="1.0" stroke-linecap="round" stroke-linejoin="round"/>
    <path d="M 159.2640380859375 159.75132751464844 C 156.7768849318861 155.10522509744538 157.52219114099722 155.15512212430517 156.38493617639085 160.0025582664209" stroke-width="1.0" fill="none" stroke="rgb(255, 0, 0)" stroke-opacity="1.0" stroke-linecap="round" stroke-linejoin="round"/>
    <path d="M 128.68310546875 160.4866485595703 C 136.5050459126553 151.805652421963 135.10540422511949 152.81196758250562 131.07325853272033 158.63931715851513" stroke-width="1.0" fill="none" stroke="rgb(255, 0, 0)" stroke-opacity="1.0" stroke-linecap="round" stroke-linejoin="round"/>
    <path d="M 98.92070007324219 156.19195556640625 C 106.09061693730699 160.3326306359914 104.55761237120907 158.27340959105976 99.11563870868024 155.78571972724794" stroke-width="1.0" fill="none" stroke="rgb(255, 0, 0)" stroke-opacity="1.0" stroke-linecap="round" stroke-linejoin="round"/>
    <path d="M 101.03571319580078 92.30750274658203 C 101.61145875993742 83.661475750559 102.08191516270323 82.62713850382937 97.5794744455593 91.76789873863676" stroke-width="1.0" fill="none" stroke="rgb(255, 0, 0)" stroke-opacity="1.0" stroke-linecap="round" stroke-linejoin="round"/>
    <path d="M 122.13096618652344 154.40821838378906 C 119.90591951304125 151.7988001441944 118.71001615608205 150.83384439466397 117.79211211324645 153.22863637079564" stroke-width="1.0" fill="none" stroke="rgb(255, 0, 0)" stroke-opacity="1.0" stroke-linecap="round" stroke-linejoin="round"/>
    <path d="M 147.32379150390625 111.42758178710938 C 147.09900760645695 105.82978275081206 147.31833976432918 103.98811553891336 148.97767690270643 109.79755912489024" stroke-width="1.0" fill="none" stroke="rgb(255, 0, 0)" stroke-opacity="1.0" stroke-linecap="round" stroke-linejoin="round"/>
    <path d="M 120.292724609375 145.6997528076172 C 121.48135387041224 141.97368300409804 121.49153529024859 141.3647497148459 120.1228373349606 144.48580258365394" stroke-width="1.0" fill="none" stroke="rgb(255, 0, 0)" stroke-opacity="1.0" stroke-linecap="round" stroke-linejoin="round"/>
    <path d="M 133.10385131835938 134.1018829345703 C 131.62986732310065 127.36093442738104 133.2336941774697 127.01700226058907 133.1944079872057 132.36227600873417" stroke-width="1.0" fill="none" stroke="rgb(255, 0, 0)" stroke-opacity="1.0" stroke-linecap="round" stroke-linejoin="round"/>
    <path d="M 147.2578582763672 95.31224060058594 C 163.3384497964097 96.03551544855353 160.09992162474515 91.16899820800126 147.2772155294891 93.17612129943787" stroke-width="1.0" fill="none" stroke="rgb(255, 0, 0)" stroke-opacity="1.0" stroke-linecap="round" stroke-linejoin="round"/>
    <path d="M 140.47987365722656 170.3043212890625 C 141.02522193022398 168.80611163647487 139.25294396803878 167.91086190927044 139.9111217811918 171.33445764649483" stroke-width="1.0" fill="none" stroke="rgb(255, 0, 0)" stroke-opacity="1.0" stroke-linecap="round" stroke-linejoin="round"/>
    <path d="M 142.10989379882812 138.94105529785156 C 139.29728315007307 134.481516407653 140.42301728845433 133.96113329850832 142.61673263671372 137.07286531047114" stroke-width="1.0" fill="none" stroke="rgb(255, 0, 0)" stroke-opacity="1.0" stroke-linecap="round" stroke-linejoin="round"/>
    <path d="M 111.16524505615234 202.1652374267578 C 106.40816550844573 202.24376161238152 108.86253673728713 202.06151944537493 108.37571064283003 202.7843870299968" stroke-width="1.0" fill="none" stroke="rgb(255, 0, 0)" stroke-opacity="1.0" stroke-linecap="round" stroke-linejoin="round"/>
    <path d="M 102.642578125 101.07667541503906 C 106.9272288345713 91.97918893138106 107.96210605116492 90.11303794348919 100.24535203322712 100.54975807860899" stroke-width="1.0" fill="none" stroke="rgb(255, 0, 0)" stroke-opacity="1.0" stroke-linecap="round" stroke-linejoin="round"/>
    <path d="M 143.13223266601562 73.69080352783203 C 159.90864407506666 74.1320565674843 152.3698058254155 70.72316585501208 137.7536197409114 73.00752651998464" stroke-width="1.0" fill="none" stroke="rgb(255, 0, 0)" stroke-opacity="1.0" stroke-linecap="round" stroke-linejoin="round"/>
    <path d="M 103.2579116821289 82.12874603271484 C 102.72911478129804 73.22240929014475 100.61936186353543 72.42263362562514 99.07178429390116 81.52059141272596" stroke-width="1.0" fill="none" stroke="rgb(255, 0, 0)" stroke-opacity="1.0" stroke-linecap="round" stroke-linejoin="round"/>
    <path d="M 125.5705795288086 141.40682983398438 C 124.48681397659686 135.20114403352605 124.99996372481216 134.8432110046186 125.48078562003884 139.94675972617674" stroke-width="1.0" fill="none" stroke="rgb(255, 0, 0)" stroke-opacity="1.0" stroke-linecap="round" stroke-linejoin="round"/>
    <path d="M 143.01876831054688 200.17662048339844 C 143.3701377978383 199.85045710471556 142.839062191792 198.215503553729 143.64971010060495 201.20549479842447" stroke-width="1.0" fill="none" stroke="rgb(255, 0, 0)" stroke-opacity="1.0" stroke-linecap="round" stroke-linejoin="round"/>
  </g>
</svg>
