<?xml version="1.0" ?>
<svg xmlns="http://www.w3.org/2000/svg" version="1.1" width="256" height="256">
  <defs/>
  <g>
    <path d="M 209.5268096923828 203.5956573486328 C 207.01199225920655 204.6385070086092 207.87505671432783 202.9135391441601 209.2854490322611 202.1946913905294" stroke-width="1.0" fill="none" stroke="rgb(255, 0, 0)" stroke-opacity="1.0" stroke-linecap="round" stroke-linejoin="round"/>
    <path d="M 112.0 172.30142211914062 C 113.13570755388122 173.12662215279207 113.26975839321898 172.68474106094996 115.84315656264565 172.87532033924626" stroke-width="1.0" fill="none" stroke="rgb(255, 0, 0)" stroke-opacity="1.0" stroke-linecap="round" stroke-linejoin="round"/>
    <path d="M 46.351463317871094 197.0090789794922 C 48.361980406073215 198.4244402312337 47.30954532485824 197.47983565587376 47.32840319874128 197.0305510179415" stroke-width="1.0" fill="none" stroke="rgb(255, 0, 0)" stroke-opacity="1.0" stroke-linecap="round" stroke-linejoin="round"/>
    <path d="M 93.36770629882812 95.53316497802734 C 94.32667451351811 92.95513748710678 94.75664540556686 92.47628483115965 94.12783249120766 95.98467639427237" stroke-width="1.0" fill="none" stroke="rgb(255, 0, 0)" stroke-opacity="1.0" stroke-linecap="round" stroke-linejoin="round"/>
    <path d="M 93.0843734741211 162.35409545898438 C 93.67504294482742 161.21432326084158 92.11806137211136 159.56047477851178 90.88909485987077 158.1987845496848" stroke-width="1.0" fill="none" stroke="rgb(255, 0, 0)" stroke-opacity="1.0" stroke-linecap="round" stroke-linejoin="round"/>
    <path d="M 159.29507446289062 121.61883544921875 C 160.80656247602792 119.66370878892288 164.51988686123886 116.34716215767713 166.10287850006588 116.36729133683123" stroke-width="1.0" fill="none" stroke="rgb(255, 0, 0)" stroke-opacity="1.0" stroke-linecap="round" stroke-linejoin="round"/>
    <path d="M 159.2640380859375 159.75132751464844 C 159.1997231317698 157.9304453246869 157.02855775152426 159.68719054078142 156.94553073510667 161.04713181187682" stroke-width="1.0" fill="none" stroke="rgb(255, 0, 0)" stroke-opacity="1.0" stroke-linecap="round" stroke-linejoin="round"/>
    <path d="M 128.68310546875 160.4866485595703 C 131.41158416071744 159.44922558690288 131.62720617366685 158.72334525088635 133.2938720123346 158.80580711727825" stroke-width="1.0" fill="none" stroke="rgb(255, 0, 0)" stroke-opacity="1.0" stroke-linecap="round" stroke-linejoin="round"/>
    <path d="M 98.92070007324219 156.19195556640625 C 100.8576837736641 156.01966548134357 100.32683439231198 154.85205338988789 98.60540515741643 153.6311598765552" stroke-width="1.0" fill="none" stroke="rgb(255, 0, 0)" stroke-opacity="1.0" stroke-linecap="round" stroke-linejoin="round"/>
    <path d="M 101.03571319580078 92.30750274658203 C 100.92702317628635 88.7937360731298 101.86064549555464 88.1099513852991 100.7331187689083 91.40442848230818" stroke-width="1.0" fill="none" stroke="rgb(255, 0, 0)" stroke-opacity="1.0" stroke-linecap="round" stroke-linejoin="round"/>
    <path d="M 122.13096618652344 154.40821838378906 C 122.37527962618518 153.75679090976598 122.60154565656651 153.30707690236966 123.09411132455779 153.4320059882578" stroke-width="1.0" fill="none" stroke="rgb(255, 0, 0)" stroke-opacity="1.0" stroke-linecap="round" stroke-linejoin="round"/>
    <path d="M 147.32379150390625 111.42758178710938 C 147.77085947985478 109.5184276368289 151.2001619517827 107.27980398114359 151.03906313031416 109.58752856916514" stroke-width="1.0" fill="none" stroke="rgb(255, 0, 0)" stroke-opacity="1.0" stroke-linecap="round" stroke-linejoin="round"/>
    <path d="M 120.292724609375 145.6997528076172 C 121.28657024242533 144.2387290045787 122.29770873404284 143.65551976870944 121.61347997197498 144.7197885441375" stroke-width="1.0" fill="none" stroke="rgb(255, 0, 0)" stroke-opacity="1.0" stroke-linecap="round" stroke-linejoin="round"/>
    <path d="M 133.10385131835938 134.1018829345703 C 132.90371198242912 131.18833701908636 135.01484438439317 129.17161384811348 135.8566938366577 132.66910963357395" stroke-width="1.0" fill="none" stroke="rgb(255, 0, 0)" stroke-opacity="1.0" stroke-linecap="round" stroke-linejoin="round"/>
    <path d="M 147.2578582763672 95.31224060058594 C 153.84671338436135 93.52507158230063 153.48273650893094 91.07066580291092 146.28367270554858 92.73338300483643" stroke-width="1.0" fill="none" stroke="rgb(255, 0, 0)" stroke-opacity="1.0" stroke-linecap="round" stroke-linejoin="round"/>
    <path d="M 140.47987365722656 170.3043212890625 C 140.8757541341367 172.37703115017726 139.50340202973388 172.3688551782371 140.069261784873 172.23799694645973" stroke-width="1.0" fill="none" stroke="rgb(255, 0, 0)" stroke-opacity="1.0" stroke-linecap="round" stroke-linejoin="round"/>
    <path d="M 142.10989379882812 138.94105529785156 C 141.57957342993834 137.30257146231762 143.59317507863835 135.994757470719 144.50136534335587 138.13248765782603" stroke-width="1.0" fill="none" stroke="rgb(255, 0, 0)" stroke-opacity="1.0" stroke-linecap="round" stroke-linejoin="round"/>
    <path d="M 111.16524505615234 202.1652374267578 C 108.58260470026397 202.59398241182762 109.73039478954085 201.57504759122463 110.47555611182798 201.66720656334488" stroke-width="1.0" fill="none" stroke="rgb(255, 0, 0)" stroke-opacity="1.0" stroke-linecap="round" stroke-linejoin="round"/>
    <path d="M 102.642578125 101.07667541503906 C 103.15872099632209 97.44024277964766 105.54235393019324 96.54943931067669 103.43110996827427 100.12166530087995" stroke-width="1.0" fill="none" stroke="rgb(255, 0, 0)" stroke-opacity="1.0" stroke-linecap="round" stroke-linejoin="round"/>
    <path d="M 143.13223266601562 73.69080352783203 C 150.06501757589064 70.7767418358864 145.05836714572038 70.37078796347156 136.36687524170486 72.67682266542378" stroke-width="1.0" fill="none" stroke="rgb(255, 0, 0)" stroke-opacity="1.0" stroke-linecap="round" stroke-linejoin="round"/>
    <path d="M 103.2579116821289 82.12874603271484 C 103.23827824292361 78.87330512411387 102.65756212274411 77.8553561941371 101.95525089527293 81.37699601525358" stroke-width="1.0" fill="none" stroke="rgb(255, 0, 0)" stroke-opacity="1.0" stroke-linecap="round" stroke-linejoin="round"/>
    <path d="M 125.5705795288086 141.40682983398438 C 126.01248852832225 139.24044280633794 127.7959198596083 138.09059006917855 127.6121863244227 140.30987086452055" stroke-width="1.0" fill="none" stroke="rgb(255, 0, 0)" stroke-opacity="1.0" stroke-linecap="round" stroke-linejoin="round"/>
    <path d="M 143.01876831054688 200.17662048339844 C 143.30343778634654 202.07043269542143 140.81809107238817 202.28072665153022 141.8193656620521 201.95210985064767" stroke-width="1.0" fill="none" stroke="rgb(255, 0, 0)" stroke-opacity="1.0" stroke-linecap="round" stroke-linejoin="round"/>
  </g>
</svg>
