<?xml version="1.0" ?>
<svg xmlns="http://www.w3.org/2000/svg" version="1.1" width="256" height="256">
  <defs/>
  <g>
    <path d="M 209.5268096923828 203.5956573486328 C 204.5015266372583 199.18681740766468 206.24347850731183 199.15670207417185 208.51732857949946 202.88330325557305" stroke-width="1.0" fill="none" stroke="rgb(255, 0, 0)" stroke-opacity="1.0" stroke-linecap="round" stroke-linejoin="round"/>
    <path d="M 112.0 172.30142211914062 C 118.6650742855249 172.7403302316533 118.10641246025847 171.5590801646487 112.89076994498512 173.6759379148917" stroke-width="1.0" fill="none" stroke="rgb(255, 0, 0)" stroke-opacity="1.0" stroke-linecap="round" stroke-linejoin="round"/>
    <path d="M 46.351463317871094 197.0090789794922 C 56.84852954509604 201.31751522055254 55.74455832105499 198.98145433921192 48.30526652338346 197.39862243992235" stroke-width="1.0" fill="none" stroke="rgb(255, 0, 0)" stroke-opacity="1.0" stroke-linecap="round" stroke-linejoin="round"/>
    <path d="M 93.36770629882812 95.53316497802734 C 100.43672322481801 74.18528508728073 101.60107501772659 70.74175462066465 94.90249081354195 92.42743292789511" stroke-width="1.0" fill="none" stroke="rgb(255, 0, 0)" stroke-opacity="1.0" stroke-linecap="round" stroke-linejoin="round"/>
    <path d="M 93.0843734741211 162.35409545898438 C 107.41169990865265 173.0400477433779 110.03000450975708 174.77119126448895 94.33401432684312 161.94802932903318" stroke-width="1.0" fill="none" stroke="rgb(255, 0, 0)" stroke-opacity="1.0" stroke-linecap="round" stroke-linejoin="round"/>
    <path d="M 159.29507446289062 121.61883544921875 C 158.1044611261973 120.76222549157485 155.02877224484482 110.24581232704969 165.88003103836544 109.99807584839739" stroke-width="1.0" fill="none" stroke="rgb(255, 0, 0)" stroke-opacity="1.0" stroke-linecap="round" stroke-linejoin="round"/>
    <path d="M 159.2640380859375 159.75132751464844 C 154.9894925540327 155.58920813730134 154.7261562088607 156.34263332997838 159.57957749828836 158.62954012085967" stroke-width="1.0" fill="none" stroke="rgb(255, 0, 0)" stroke-opacity="1.0" stroke-linecap="round" stroke-linejoin="round"/>
    <path d="M 128.68310546875 160.4866485595703 C 136.99490644732327 150.34892539406994 135.00890382839097 150.42903253535596 129.94973243637634 160.0867444909164" stroke-width="1.0" fill="none" stroke="rgb(255, 0, 0)" stroke-opacity="1.0" stroke-linecap="round" stroke-linejoin="round"/>
    <path d="M 98.92070007324219 156.19195556640625 C 109.8815810638939 163.64185142685443 109.56664652800839 164.9523687223006 98.86341076156434 153.92290625450013" stroke-width="1.0" fill="none" stroke="rgb(255, 0, 0)" stroke-opacity="1.0" stroke-linecap="round" stroke-linejoin="round"/>
    <path d="M 101.03571319580078 92.30750274658203 C 108.80073026958479 80.20687923108879 106.19205429424925 79.04738272074832 103.41151618597678 90.90068709875563" stroke-width="1.0" fill="none" stroke="rgb(255, 0, 0)" stroke-opacity="1.0" stroke-linecap="round" stroke-linejoin="round"/>
    <path d="M 122.13096618652344 154.40821838378906 C 120.5678515046184 150.79224220275762 121.83025299990643 151.2814449977676 118.47558188558531 153.41698049177495" stroke-width="1.0" fill="none" stroke="rgb(255, 0, 0)" stroke-opacity="1.0" stroke-linecap="round" stroke-linejoin="round"/>
    <path d="M 147.32379150390625 111.42758178710938 C 149.95461523527928 106.02161767741728 140.08498932719468 101.19880794461405 149.6989873990367 109.45921467012492" stroke-width="1.0" fill="none" stroke="rgb(255, 0, 0)" stroke-opacity="1.0" stroke-linecap="round" stroke-linejoin="round"/>
    <path d="M 120.292724609375 145.6997528076172 C 123.30319928266657 141.6537987038661 121.75751744128009 141.9715943784659 121.20312833794941 144.234206848104" stroke-width="1.0" fill="none" stroke="rgb(255, 0, 0)" stroke-opacity="1.0" stroke-linecap="round" stroke-linejoin="round"/>
    <path d="M 133.10385131835938 134.1018829345703 C 131.91722107714423 125.94366853535223 130.8338536884398 126.47484556426949 135.39278325697632 132.24228482545323" stroke-width="1.0" fill="none" stroke="rgb(255, 0, 0)" stroke-opacity="1.0" stroke-linecap="round" stroke-linejoin="round"/>
    <path d="M 147.2578582763672 95.31224060058594 C 163.5674136483384 95.92755301903006 157.00727502592923 90.36681744094193 145.57197214688617 93.57847708957611" stroke-width="1.0" fill="none" stroke="rgb(255, 0, 0)" stroke-opacity="1.0" stroke-linecap="round" stroke-linejoin="round"/>
    <path d="M 140.47987365722656 170.3043212890625 C 139.24921296663908 167.81315094502284 139.28159866259597 166.7865878938438 141.33926146777628 170.57750536072822" stroke-width="1.0" fill="none" stroke="rgb(255, 0, 0)" stroke-opacity="1.0" stroke-linecap="round" stroke-linejoin="round"/>
    <path d="M 142.10989379882812 138.94105529785156 C 140.230346180316 133.2264328467094 135.3214425098975 136.4920778843085 140.61309782626603 140.69336992816218" stroke-width="1.0" fill="none" stroke="rgb(255, 0, 0)" stroke-opacity="1.0" stroke-linecap="round" stroke-linejoin="round"/>
    <path d="M 111.16524505615234 202.1652374267578 C 106.9717941819992 201.6593923701902 108.65491659339675 200.69856331636043 109.10321155835737 202.4805041032943" stroke-width="1.0" fill="none" stroke="rgb(255, 0, 0)" stroke-opacity="1.0" stroke-linecap="round" stroke-linejoin="round"/>
    <path d="M 102.642578125 101.07667541503906 C 112.6505273842234 87.94338513652022 113.42865497084266 85.48278510535442 104.15942073211018 100.05369836286116" stroke-width="1.0" fill="none" stroke="rgb(255, 0, 0)" stroke-opacity="1.0" stroke-linecap="round" stroke-linejoin="round"/>
    <path d="M 143.13223266601562 73.69080352783203 C 165.19645726171217 74.69566580992357 158.7301631099614 69.1925738902904 139.4134588942012 72.51815641233388" stroke-width="1.0" fill="none" stroke="rgb(255, 0, 0)" stroke-opacity="1.0" stroke-linecap="round" stroke-linejoin="round"/>
    <path d="M 103.2579116821289 82.12874603271484 C 110.39383323041379 70.5085335195759 109.24281834165433 69.22448871290541 102.75756168986483 80.49128994816832" stroke-width="1.0" fill="none" stroke="rgb(255, 0, 0)" stroke-opacity="1.0" stroke-linecap="round" stroke-linejoin="round"/>
    <path d="M 125.5705795288086 141.40682983398438 C 124.5660919688454 133.83670406923162 122.67289968748916 133.2632892822065 127.95092476588998 140.3811546818118" stroke-width="1.0" fill="none" stroke="rgb(255, 0, 0)" stroke-opacity="1.0" stroke-linecap="round" stroke-linejoin="round"/>
    <path d="M 143.01876831054688 200.17662048339844 C 145.25606464052782 197.619149478945 145.08283702308702 196.73851869521613 142.75267751188463 199.97511563420557" stroke-width="1.0" fill="none" stroke="rgb(255, 0, 0)" stroke-opacity="1.0" stroke-linecap="round" stroke-linejoin="round"/>
  </g>
</svg>
