<?xml version="1.0" ?>
<svg xmlns="http://www.w3.org/2000/svg" version="1.1" width="256" height="256">
  <defs/>
  <g>
    <path d="M 209.5268096923828 203.5956573486328 C 206.74897746581055 198.86509537702503 208.52196595123579 198.31909421360666 208.42018945939753 202.86054304315164" stroke-width="1.0" fill="none" stroke="rgb(255, 0, 0)" stroke-opacity="1.0" stroke-linecap="round" stroke-linejoin="round"/>
    <path d="M 112.0 172.30142211914062 C 120.56770270730834 174.93311436222658 118.84356265251921 173.94863216183344 113.62931822379372 173.72858753208683" stroke-width="1.0" fill="none" stroke="rgb(255, 0, 0)" stroke-opacity="1.0" stroke-linecap="round" stroke-linejoin="round"/>
    <path d="M 46.351463317871094 197.0090789794922 C 57.75757762554038 204.97474750509843 56.35240934949737 202.16680141944263 49.03141548635801 199.6180297301426" stroke-width="1.0" fill="none" stroke="rgb(255, 0, 0)" stroke-opacity="1.0" stroke-linecap="round" stroke-linejoin="round"/>
    <path d="M 93.36770629882812 95.53316497802734 C 101.51011513918569 78.94353055542038 102.11345371035354 74.49846467315488 95.06822260122352 93.39047447185568" stroke-width="1.0" fill="none" stroke="rgb(255, 0, 0)" stroke-opacity="1.0" stroke-linecap="round" stroke-linejoin="round"/>
    <path d="M 93.0843734741211 162.35409545898438 C 106.41720547048126 173.70535574203512 108.65127850420288 176.34821763167645 94.62518909624467 163.46254833504705" stroke-width="1.0" fill="none" stroke="rgb(255, 0, 0)" stroke-opacity="1.0" stroke-linecap="round" stroke-linejoin="round"/>
    <path d="M 159.29507446289062 121.61883544921875 C 160.64804201589914 123.59396539407119 157.9355597595314 112.17081633248182 165.7689680348254 111.2671655471889" stroke-width="1.0" fill="none" stroke="rgb(255, 0, 0)" stroke-opacity="1.0" stroke-linecap="round" stroke-linejoin="round"/>
    <path d="M 159.2640380859375 159.75132751464844 C 154.64196886476267 158.65921939542665 155.28587386404257 158.79876335774938 158.77735891208192 159.46420893599563" stroke-width="1.0" fill="none" stroke="rgb(255, 0, 0)" stroke-opacity="1.0" stroke-linecap="round" stroke-linejoin="round"/>
    <path d="M 128.68310546875 160.4866485595703 C 137.61131479540677 152.14601783181408 135.43437131954087 152.77324602107373 130.57171036167694 159.96066332226482" stroke-width="1.0" fill="none" stroke="rgb(255, 0, 0)" stroke-opacity="1.0" stroke-linecap="round" stroke-linejoin="round"/>
    <path d="M 98.92070007324219 156.19195556640625 C 108.56166147771226 164.76423502136737 109.14000792479794 167.41740892920978 98.70034817418393 155.46388581869004" stroke-width="1.0" fill="none" stroke="rgb(255, 0, 0)" stroke-opacity="1.0" stroke-linecap="round" stroke-linejoin="round"/>
    <path d="M 101.03571319580078 92.30750274658203 C 110.20277647319807 82.54350242292229 108.77980520596189 81.7359803998865 103.28803610441855 91.463946640744" stroke-width="1.0" fill="none" stroke="rgb(255, 0, 0)" stroke-opacity="1.0" stroke-linecap="round" stroke-linejoin="round"/>
    <path d="M 122.13096618652344 154.40821838378906 C 120.73413701944995 152.6700580453861 122.61057787621488 154.06803310034672 119.39746928335143 153.46676306595174" stroke-width="1.0" fill="none" stroke="rgb(255, 0, 0)" stroke-opacity="1.0" stroke-linecap="round" stroke-linejoin="round"/>
    <path d="M 147.32379150390625 111.42758178710938 C 152.21176946158238 109.35214307567168 142.23530508876084 104.22567295010721 149.92117158025007 109.00691495603648" stroke-width="1.0" fill="none" stroke="rgb(255, 0, 0)" stroke-opacity="1.0" stroke-linecap="round" stroke-linejoin="round"/>
    <path d="M 120.292724609375 145.6997528076172 C 122.22144638635767 143.3908432766963 121.33463333464404 144.8188006730025 121.07410162696232 144.3989848422599" stroke-width="1.0" fill="none" stroke="rgb(255, 0, 0)" stroke-opacity="1.0" stroke-linecap="round" stroke-linejoin="round"/>
    <path d="M 133.10385131835938 134.1018829345703 C 132.83226615971336 129.10886829197455 131.79370328446336 129.86539379348702 135.56821164747925 132.31423335374302" stroke-width="1.0" fill="none" stroke="rgb(255, 0, 0)" stroke-opacity="1.0" stroke-linecap="round" stroke-linejoin="round"/>
    <path d="M 147.2578582763672 95.31224060058594 C 164.36853059169778 96.88961013267752 156.95818464049222 91.98300453658402 148.57422532166797 92.45574027793823" stroke-width="1.0" fill="none" stroke="rgb(255, 0, 0)" stroke-opacity="1.0" stroke-linecap="round" stroke-linejoin="round"/>
    <path d="M 140.47987365722656 170.3043212890625 C 140.58258776493696 168.62943369419887 139.95838043616317 167.69730633485332 141.90692269357203 171.17928488123985" stroke-width="1.0" fill="none" stroke="rgb(255, 0, 0)" stroke-opacity="1.0" stroke-linecap="round" stroke-linejoin="round"/>
    <path d="M 142.10989379882812 138.94105529785156 C 140.67442581784346 136.6049466597282 136.31073560834722 139.71778022967973 138.45641867282365 142.52091998175868" stroke-width="1.0" fill="none" stroke="rgb(255, 0, 0)" stroke-opacity="1.0" stroke-linecap="round" stroke-linejoin="round"/>
    <path d="M 111.16524505615234 202.1652374267578 C 109.42442577474975 203.9340433611532 110.0855071037651 202.78776840259167 110.30662909795393 203.15136615215866" stroke-width="1.0" fill="none" stroke="rgb(255, 0, 0)" stroke-opacity="1.0" stroke-linecap="round" stroke-linejoin="round"/>
    <path d="M 102.642578125 101.07667541503906 C 112.81493225330298 90.93863869944747 113.76506740065223 89.51663005316937 103.26599222764317 100.37277347043562" stroke-width="1.0" fill="none" stroke="rgb(255, 0, 0)" stroke-opacity="1.0" stroke-linecap="round" stroke-linejoin="round"/>
    <path d="M 143.13223266601562 73.69080352783203 C 163.19471203771315 74.98313960772172 156.19642306632127 69.9000798316814 141.21771449894516 71.8283175260729" stroke-width="1.0" fill="none" stroke="rgb(255, 0, 0)" stroke-opacity="1.0" stroke-linecap="round" stroke-linejoin="round"/>
    <path d="M 103.2579116821289 82.12874603271484 C 111.51035220471799 72.65247635252268 110.05949400464871 71.7825875059352 102.72157642866297 80.95385954255156" stroke-width="1.0" fill="none" stroke="rgb(255, 0, 0)" stroke-opacity="1.0" stroke-linecap="round" stroke-linejoin="round"/>
    <path d="M 125.5705795288086 141.40682983398438 C 124.35218210441974 136.26352625474797 122.90856477042068 136.48338587034127 127.588318717306 140.15017786181974" stroke-width="1.0" fill="none" stroke="rgb(255, 0, 0)" stroke-opacity="1.0" stroke-linecap="round" stroke-linejoin="round"/>
    <path d="M 143.01876831054688 200.17662048339844 C 145.71898029947863 197.75830534366057 144.9277565854268 197.33950016913886 142.4617804703254 201.42571452975534" stroke-width="1.0" fill="none" stroke="rgb(255, 0, 0)" stroke-opacity="1.0" stroke-linecap="round" stroke-linejoin="round"/>
  </g>
</svg>
