<?xml version="1.0" ?>
<svg xmlns="http://www.w3.org/2000/svg" version="1.1" width="256" height="256">
  <defs/>
  <g>
    <path d="M 209.5268096923828 203.5956573486328 C 204.45476750868775 204.48476147657337 207.24399778297712 203.7801326838749 206.53131433255885 206.0407507128866" stroke-width="1.0" fill="none" stroke="rgb(255, 0, 0)" stroke-opacity="1.0" stroke-linecap="round" stroke-linejoin="round"/>
    <path d="M 112.0 172.30142211914062 C 118.47119325067382 175.9356411223279 117.44994025414275 174.23825160763423 112.87628369172356 173.80305042271183" stroke-width="1.0" fill="none" stroke="rgb(255, 0, 0)" stroke-opacity="1.0" stroke-linecap="round" stroke-linejoin="round"/>
    <path d="M 46.351463317871094 197.0090789794922 C 54.459198681143405 203.2110908888875 53.50175760846954 200.83122655410145 48.3631456136926 197.93255306941415" stroke-width="1.0" fill="none" stroke="rgb(255, 0, 0)" stroke-opacity="1.0" stroke-linecap="round" stroke-linejoin="round"/>
    <path d="M 93.36770629882812 95.53316497802734 C 101.19810055941274 81.2439293820195 102.3257435205342 73.69905099212461 95.2227525303846 94.04986003379874" stroke-width="1.0" fill="none" stroke="rgb(255, 0, 0)" stroke-opacity="1.0" stroke-linecap="round" stroke-linejoin="round"/>
    <path d="M 93.0843734741211 162.35409545898438 C 103.96023907033478 171.6856366181948 106.38014031297973 174.44787373671795 93.46454599550614 160.99343868062047" stroke-width="1.0" fill="none" stroke="rgb(255, 0, 0)" stroke-opacity="1.0" stroke-linecap="round" stroke-linejoin="round"/>
    <path d="M 159.29507446289062 121.61883544921875 C 161.60440783964486 123.29044960217819 157.62214530507126 110.87133875527235 164.00501053436764 107.27121580201067" stroke-width="1.0" fill="none" stroke="rgb(255, 0, 0)" stroke-opacity="1.0" stroke-linecap="round" stroke-linejoin="round"/>
    <path d="M 159.2640380859375 159.75132751464844 C 157.3843363707899 156.87710763147248 158.5793768504737 157.72593983327428 159.72141730055353 158.71658328702026" stroke-width="1.0" fill="none" stroke="rgb(255, 0, 0)" stroke-opacity="1.0" stroke-linecap="round" stroke-linejoin="round"/>
    <path d="M 128.68310546875 160.4866485595703 C 138.76506616869779 151.79108790780285 136.9061511428441 152.71644517878858 129.7726192609842 159.3952566421577" stroke-width="1.0" fill="none" stroke="rgb(255, 0, 0)" stroke-opacity="1.0" stroke-linecap="round" stroke-linejoin="round"/>
    <path d="M 98.92070007324219 156.19195556640625 C 107.48439383092271 163.3667964952138 108.40188498473447 165.9804210523177 99.73011437615689 154.94802377101777" stroke-width="1.0" fill="none" stroke="rgb(255, 0, 0)" stroke-opacity="1.0" stroke-linecap="round" stroke-linejoin="round"/>
    <path d="M 101.03571319580078 92.30750274658203 C 110.08255438152327 83.38445052778069 109.57306291927976 81.24905718211306 103.3476526701229 91.53645539309004" stroke-width="1.0" fill="none" stroke="rgb(255, 0, 0)" stroke-opacity="1.0" stroke-linecap="round" stroke-linejoin="round"/>
    <path d="M 122.13096618652344 154.40821838378906 C 119.10716577463793 153.11866489410284 121.94302087510098 154.2989165645639 117.94462943197203 153.35906444658605" stroke-width="1.0" fill="none" stroke="rgb(255, 0, 0)" stroke-opacity="1.0" stroke-linecap="round" stroke-linejoin="round"/>
    <path d="M 147.32379150390625 111.42758178710938 C 152.72987687582798 108.88905718585539 141.77425791621445 102.82087730343973 148.03483435958128 108.90655146307078" stroke-width="1.0" fill="none" stroke="rgb(255, 0, 0)" stroke-opacity="1.0" stroke-linecap="round" stroke-linejoin="round"/>
    <path d="M 120.292724609375 145.6997528076172 C 122.27945851423395 143.45205152483473 121.78105603075763 144.66493253421237 121.43379747876514 144.61873965736152" stroke-width="1.0" fill="none" stroke="rgb(255, 0, 0)" stroke-opacity="1.0" stroke-linecap="round" stroke-linejoin="round"/>
    <path d="M 133.10385131835938 134.1018829345703 C 132.74887705630073 128.09512536823797 131.96501966973253 128.8262926696772 134.78078946730346 132.15516834557957" stroke-width="1.0" fill="none" stroke="rgb(255, 0, 0)" stroke-opacity="1.0" stroke-linecap="round" stroke-linejoin="round"/>
    <path d="M 147.2578582763672 95.31224060058594 C 164.59312089321145 95.83766355226751 156.91366998442533 90.46792789931595 146.78729678716022 92.78453284995972" stroke-width="1.0" fill="none" stroke="rgb(255, 0, 0)" stroke-opacity="1.0" stroke-linecap="round" stroke-linejoin="round"/>
    <path d="M 140.47987365722656 170.3043212890625 C 141.4776474101129 169.34385007889583 140.455564507853 168.1513692735435 139.7143189862585 171.1087104784307" stroke-width="1.0" fill="none" stroke="rgb(255, 0, 0)" stroke-opacity="1.0" stroke-linecap="round" stroke-linejoin="round"/>
    <path d="M 142.10989379882812 138.94105529785156 C 141.63817039858915 134.14867834918132 138.43959250570134 138.4004165502707 139.3976108229396 141.16481250838527" stroke-width="1.0" fill="none" stroke="rgb(255, 0, 0)" stroke-opacity="1.0" stroke-linecap="round" stroke-linejoin="round"/>
    <path d="M 111.16524505615234 202.1652374267578 C 106.86003976457977 205.03267998835045 108.56572444137343 202.7505617528114 110.16680887986769 203.53806195437042" stroke-width="1.0" fill="none" stroke="rgb(255, 0, 0)" stroke-opacity="1.0" stroke-linecap="round" stroke-linejoin="round"/>
    <path d="M 102.642578125 101.07667541503906 C 111.8499321007151 91.44626427928145 113.70980960341102 89.45588576758587 102.70241606950704 101.0380103346746" stroke-width="1.0" fill="none" stroke="rgb(255, 0, 0)" stroke-opacity="1.0" stroke-linecap="round" stroke-linejoin="round"/>
    <path d="M 143.13223266601562 73.69080352783203 C 166.26621090856275 73.86492570083753 158.82263232535448 68.32584939917102 140.6310508951625 71.59895432302419" stroke-width="1.0" fill="none" stroke="rgb(255, 0, 0)" stroke-opacity="1.0" stroke-linecap="round" stroke-linejoin="round"/>
    <path d="M 103.2579116821289 82.12874603271484 C 108.74811608640134 73.33144096739085 108.53403900663236 71.69394347822524 101.25567916656657 80.66695282334379" stroke-width="1.0" fill="none" stroke="rgb(255, 0, 0)" stroke-opacity="1.0" stroke-linecap="round" stroke-linejoin="round"/>
    <path d="M 125.5705795288086 141.40682983398438 C 125.13583861215022 136.157548242663 124.16650685091842 136.66524440992256 127.35714532119546 140.15150489963102" stroke-width="1.0" fill="none" stroke="rgb(255, 0, 0)" stroke-opacity="1.0" stroke-linecap="round" stroke-linejoin="round"/>
    <path d="M 143.01876831054688 200.17662048339844 C 144.98312066698657 199.72156626251623 143.7899933832364 198.1924459737348 142.04602472157663 201.05314079642557" stroke-width="1.0" fill="none" stroke="rgb(255, 0, 0)" stroke-opacity="1.0" stroke-linecap="round" stroke-linejoin="round"/>
  </g>
</svg>
