<?xml version="1.0" ?>
<svg xmlns="http://www.w3.org/2000/svg" version="1.1" width="256" height="256">
  <defs/>
  <g>
    <path d="M 209.5268096923828 203.5956573486328 C 205.2461293174646 203.32782292371692 208.45514938286115 202.39384034550363 207.91577668912623 204.4076336331518" stroke-width="1.0" fill="none" stroke="rgb(255, 0, 0)" stroke-opacity="1.0" stroke-linecap="round" stroke-linejoin="round"/>
    <path d="M 112.0 172.30142211914062 C 118.89730542566161 176.12582237766847 117.6785989302902 174.19309250614802 112.85083644231102 173.11065592770146" stroke-width="1.0" fill="none" stroke="rgb(255, 0, 0)" stroke-opacity="1.0" stroke-linecap="round" stroke-linejoin="round"/>
    <path d="M 46.351463317871094 197.0090789794922 C 54.47755500438559 201.77437385550127 53.34229563337188 199.56359216231678 49.0036177873834 199.0057398245945" stroke-width="1.0" fill="none" stroke="rgb(255, 0, 0)" stroke-opacity="1.0" stroke-linecap="round" stroke-linejoin="round"/>
    <path d="M 93.36770629882812 95.53316497802734 C 102.29810380190541 80.45622968261765 102.79954990175979 72.31834992706113 96.28578515749031 93.83395400981955" stroke-width="1.0" fill="none" stroke="rgb(255, 0, 0)" stroke-opacity="1.0" stroke-linecap="round" stroke-linejoin="round"/>
    <path d="M 93.0843734741211 162.35409545898438 C 103.90028824178253 171.27028856521628 106.77367115862182 174.7711826814201 94.64751651934037 162.70203049942998" stroke-width="1.0" fill="none" stroke="rgb(255, 0, 0)" stroke-opacity="1.0" stroke-linecap="round" stroke-linejoin="round"/>
    <path d="M 159.29507446289062 121.61883544921875 C 161.21997683512063 122.9483661480461 157.0948490003685 109.40926066078993 164.57479231461056 108.70848405915179" stroke-width="1.0" fill="none" stroke="rgb(255, 0, 0)" stroke-opacity="1.0" stroke-linecap="round" stroke-linejoin="round"/>
    <path d="M 159.2640380859375 159.75132751464844 C 158.44009299930323 155.45629025628938 159.09128658865671 156.54304321919957 160.09290220603486 158.4779240243631" stroke-width="1.0" fill="none" stroke="rgb(255, 0, 0)" stroke-opacity="1.0" stroke-linecap="round" stroke-linejoin="round"/>
    <path d="M 128.68310546875 160.4866485595703 C 140.02843572893948 152.40940932656505 138.5244658858861 151.9331915090498 130.3181979791696 159.48403621082988" stroke-width="1.0" fill="none" stroke="rgb(255, 0, 0)" stroke-opacity="1.0" stroke-linecap="round" stroke-linejoin="round"/>
    <path d="M 98.92070007324219 156.19195556640625 C 107.33157419743883 163.51073312927753 108.5233468530206 166.20531271491535 99.4971225019389 155.4125357019603" stroke-width="1.0" fill="none" stroke="rgb(255, 0, 0)" stroke-opacity="1.0" stroke-linecap="round" stroke-linejoin="round"/>
    <path d="M 101.03571319580078 92.30750274658203 C 110.94362119976057 83.81938323652092 109.79387476315183 81.20791948680056 104.0528528654354 91.68532317902067" stroke-width="1.0" fill="none" stroke="rgb(255, 0, 0)" stroke-opacity="1.0" stroke-linecap="round" stroke-linejoin="round"/>
    <path d="M 122.13096618652344 154.40821838378906 C 119.4135329335277 154.0356757974613 122.94208862865437 154.23360756156842 117.726406813869 153.2547656165537" stroke-width="1.0" fill="none" stroke="rgb(255, 0, 0)" stroke-opacity="1.0" stroke-linecap="round" stroke-linejoin="round"/>
    <path d="M 147.32379150390625 111.42758178710938 C 152.09363448614903 109.26944711467314 140.44774033427476 103.24417041714823 148.44827357381087 109.78897009557811" stroke-width="1.0" fill="none" stroke="rgb(255, 0, 0)" stroke-opacity="1.0" stroke-linecap="round" stroke-linejoin="round"/>
    <path d="M 120.292724609375 145.6997528076172 C 122.34104847051752 144.48624575586805 122.14510844565173 144.41363577556064 121.23973459014286 145.17860596652747" stroke-width="1.0" fill="none" stroke="rgb(255, 0, 0)" stroke-opacity="1.0" stroke-linecap="round" stroke-linejoin="round"/>
    <path d="M 133.10385131835938 134.1018829345703 C 131.93357599562415 128.73862426579046 131.40646001358934 128.90718332519478 134.34441718718261 133.13968788684315" stroke-width="1.0" fill="none" stroke="rgb(255, 0, 0)" stroke-opacity="1.0" stroke-linecap="round" stroke-linejoin="round"/>
    <path d="M 147.2578582763672 95.31224060058594 C 165.2863791787339 97.13285692642447 156.45746366270902 92.46799990172684 146.5345778020795 93.41364390151917" stroke-width="1.0" fill="none" stroke="rgb(255, 0, 0)" stroke-opacity="1.0" stroke-linecap="round" stroke-linejoin="round"/>
    <path d="M 140.47987365722656 170.3043212890625 C 142.1477666956964 169.76423818142726 142.20552072451613 167.59843629586712 140.66035636814593 170.87681652176948" stroke-width="1.0" fill="none" stroke="rgb(255, 0, 0)" stroke-opacity="1.0" stroke-linecap="round" stroke-linejoin="round"/>
    <path d="M 142.10989379882812 138.94105529785156 C 141.69961745273687 133.68855147235027 138.40694966436223 137.40291553460756 139.20802609088395 142.02658194617518" stroke-width="1.0" fill="none" stroke="rgb(255, 0, 0)" stroke-opacity="1.0" stroke-linecap="round" stroke-linejoin="round"/>
    <path d="M 111.16524505615234 202.1652374267578 C 106.26605373018646 204.4680346979757 107.84080416854628 202.35511446882816 110.16891232778181 202.99734441219894" stroke-width="1.0" fill="none" stroke="rgb(255, 0, 0)" stroke-opacity="1.0" stroke-linecap="round" stroke-linejoin="round"/>
    <path d="M 102.642578125 101.07667541503906 C 110.65247192615455 92.48176385203536 112.39898616285926 90.15259730780804 102.15447742089573 100.66590601399946" stroke-width="1.0" fill="none" stroke="rgb(255, 0, 0)" stroke-opacity="1.0" stroke-linecap="round" stroke-linejoin="round"/>
    <path d="M 143.13223266601562 73.69080352783203 C 169.17502438512525 75.24022063952104 159.97770835227098 70.04542623480334 140.7303555712184 72.37889874288503" stroke-width="1.0" fill="none" stroke="rgb(255, 0, 0)" stroke-opacity="1.0" stroke-linecap="round" stroke-linejoin="round"/>
    <path d="M 103.2579116821289 82.12874603271484 C 108.84187133161008 73.31678013212473 108.79844950239041 71.41524264967299 101.44816378379984 81.44240263575605" stroke-width="1.0" fill="none" stroke="rgb(255, 0, 0)" stroke-opacity="1.0" stroke-linecap="round" stroke-linejoin="round"/>
    <path d="M 125.5705795288086 141.40682983398438 C 124.9652053259125 137.23566036805974 124.12708195467819 136.77616579282662 126.50805683118615 140.58120145953703" stroke-width="1.0" fill="none" stroke="rgb(255, 0, 0)" stroke-opacity="1.0" stroke-linecap="round" stroke-linejoin="round"/>
    <path d="M 143.01876831054688 200.17662048339844 C 144.788105594164 199.3189920511572 145.15027085716295 198.0111965936231 143.81568263144678 200.89087948918603" stroke-width="1.0" fill="none" stroke="rgb(255, 0, 0)" stroke-opacity="1.0" stroke-linecap="round" stroke-linejoin="round"/>
  </g>
</svg>
