<?xml version="1.0" ?>
<svg xmlns="http://www.w3.org/2000/svg" version="1.1" width="256" height="256">
  <defs/>
  <g>
    <path d="M 209.5268096923828 203.5956573486328 C 208.32819919127442 198.8995721340746 210.1341694896536 198.95924666798288 209.3425309402487 202.83575901462152" stroke-width="1.0" fill="none" stroke="rgb(255, 0, 0)" stroke-opacity="1.0" stroke-linecap="round" stroke-linejoin="round"/>
    <path d="M 112.0 172.30142211914062 C 121.45443385507446 175.45847899960145 118.9044051665573 173.75251607201258 112.89716582139275 172.87491645817326" stroke-width="1.0" fill="none" stroke="rgb(255, 0, 0)" stroke-opacity="1.0" stroke-linecap="round" stroke-linejoin="round"/>
    <path d="M 46.351463317871094 197.0090789794922 C 58.81177875163901 205.99374040594682 56.53075884443145 201.8735365535674 48.781724238417944 199.01069654685404" stroke-width="1.0" fill="none" stroke="rgb(255, 0, 0)" stroke-opacity="1.0" stroke-linecap="round" stroke-linejoin="round"/>
    <path d="M 93.36770629882812 95.53316497802734 C 100.30710076540639 77.84126996582077 102.86685260561721 72.37320145904356 95.3487485239988 94.01524523239188" stroke-width="1.0" fill="none" stroke="rgb(255, 0, 0)" stroke-opacity="1.0" stroke-linecap="round" stroke-linejoin="round"/>
    <path d="M 93.0843734741211 162.35409545898438 C 108.0902859148172 174.85009203201315 109.9789981926184 177.1954809678581 94.03981605223069 162.04311545655278" stroke-width="1.0" fill="none" stroke="rgb(255, 0, 0)" stroke-opacity="1.0" stroke-linecap="round" stroke-linejoin="round"/>
    <path d="M 159.29507446289062 121.61883544921875 C 164.05791717039438 123.8436287470375 160.38162804642715 111.4406546656117 168.45547955139645 109.35740888672747" stroke-width="1.0" fill="none" stroke="rgb(255, 0, 0)" stroke-opacity="1.0" stroke-linecap="round" stroke-linejoin="round"/>
    <path d="M 159.2640380859375 159.75132751464844 C 155.68337644990672 157.39799905946626 157.3900645712493 157.37217100774328 160.39783831700822 158.5246801727014" stroke-width="1.0" fill="none" stroke="rgb(255, 0, 0)" stroke-opacity="1.0" stroke-linecap="round" stroke-linejoin="round"/>
    <path d="M 128.68310546875 160.4866485595703 C 136.89191725054593 151.17466906930187 134.94108900142564 151.63768312434522 131.24254359169555 159.86143911247936" stroke-width="1.0" fill="none" stroke="rgb(255, 0, 0)" stroke-opacity="1.0" stroke-linecap="round" stroke-linejoin="round"/>
    <path d="M 98.92070007324219 156.19195556640625 C 109.61526751103746 165.7501864450124 110.10735125518124 168.15323065314777 99.08031949958142 154.98128268596528" stroke-width="1.0" fill="none" stroke="rgb(255, 0, 0)" stroke-opacity="1.0" stroke-linecap="round" stroke-linejoin="round"/>
    <path d="M 101.03571319580078 92.30750274658203 C 108.43027738872541 83.01722106611076 108.32609655728025 81.46763170603884 103.46337747214011 92.14072890604952" stroke-width="1.0" fill="none" stroke="rgb(255, 0, 0)" stroke-opacity="1.0" stroke-linecap="round" stroke-linejoin="round"/>
    <path d="M 122.13096618652344 154.40821838378906 C 119.20697375231433 152.28053585052373 121.45299568260182 153.59616282699506 117.57453751684142 152.99996732344" stroke-width="1.0" fill="none" stroke="rgb(255, 0, 0)" stroke-opacity="1.0" stroke-linecap="round" stroke-linejoin="round"/>
    <path d="M 147.32379150390625 111.42758178710938 C 154.0601009129984 110.35927691718626 143.40917183757065 105.29285310681497 151.91394582837324 109.35294686025706" stroke-width="1.0" fill="none" stroke="rgb(255, 0, 0)" stroke-opacity="1.0" stroke-linecap="round" stroke-linejoin="round"/>
    <path d="M 120.292724609375 145.6997528076172 C 120.69285326339853 142.61979425402174 119.67165301657458 144.36110012244632 120.63132944712032 144.0658801126075" stroke-width="1.0" fill="none" stroke="rgb(255, 0, 0)" stroke-opacity="1.0" stroke-linecap="round" stroke-linejoin="round"/>
    <path d="M 133.10385131835938 134.1018829345703 C 131.07226694411048 128.15648143589544 130.1278321411223 129.33454052200264 135.33683333059997 132.25445370973057" stroke-width="1.0" fill="none" stroke="rgb(255, 0, 0)" stroke-opacity="1.0" stroke-linecap="round" stroke-linejoin="round"/>
    <path d="M 147.2578582763672 95.31224060058594 C 167.56064256069192 97.95565672825094 158.54743615874173 92.35955187316239 148.95992411698657 92.58769256370483" stroke-width="1.0" fill="none" stroke="rgb(255, 0, 0)" stroke-opacity="1.0" stroke-linecap="round" stroke-linejoin="round"/>
    <path d="M 140.47987365722656 170.3043212890625 C 138.32348881788877 168.6023040440829 138.06172833369277 166.76477521646038 141.66337751897333 171.02360505927177" stroke-width="1.0" fill="none" stroke="rgb(255, 0, 0)" stroke-opacity="1.0" stroke-linecap="round" stroke-linejoin="round"/>
    <path d="M 142.10989379882812 138.94105529785156 C 139.8097226394377 134.90271429888836 135.90613451124028 138.95438873492876 139.68519226672623 141.6631283195425" stroke-width="1.0" fill="none" stroke="rgb(255, 0, 0)" stroke-opacity="1.0" stroke-linecap="round" stroke-linejoin="round"/>
    <path d="M 111.16524505615234 202.1652374267578 C 108.18687658899688 203.52029640814263 109.14429289993056 202.12119941179486 110.13831249524702 202.61965570627777" stroke-width="1.0" fill="none" stroke="rgb(255, 0, 0)" stroke-opacity="1.0" stroke-linecap="round" stroke-linejoin="round"/>
    <path d="M 102.642578125 101.07667541503906 C 111.50758018726295 90.45275594035323 113.21135264845496 89.00298774207317 102.36268002137486 100.89852687910604" stroke-width="1.0" fill="none" stroke="rgb(255, 0, 0)" stroke-opacity="1.0" stroke-linecap="round" stroke-linejoin="round"/>
    <path d="M 143.13223266601562 73.69080352783203 C 168.19602429357252 75.9955054257454 159.9601607448491 70.05392871817126 140.46305901856033 72.5079069168276" stroke-width="1.0" fill="none" stroke="rgb(255, 0, 0)" stroke-opacity="1.0" stroke-linecap="round" stroke-linejoin="round"/>
    <path d="M 103.2579116821289 82.12874603271484 C 109.65268475858151 73.15869526273997 110.03379677335599 71.4819578901515 101.58391181255503 81.90806316310457" stroke-width="1.0" fill="none" stroke="rgb(255, 0, 0)" stroke-opacity="1.0" stroke-linecap="round" stroke-linejoin="round"/>
    <path d="M 125.5705795288086 141.40682983398438 C 122.95790667755512 135.65964394197331 121.96220155974258 136.439925024394 127.09601236564431 140.4987524405818" stroke-width="1.0" fill="none" stroke="rgb(255, 0, 0)" stroke-opacity="1.0" stroke-linecap="round" stroke-linejoin="round"/>
    <path d="M 143.01876831054688 200.17662048339844 C 142.38332878256426 198.07584312823698 142.3473529594617 197.0692565244245 144.24095801682657 199.79150188684724" stroke-width="1.0" fill="none" stroke="rgb(255, 0, 0)" stroke-opacity="1.0" stroke-linecap="round" stroke-linejoin="round"/>
  </g>
</svg>
