<?xml version="1.0" ?>
<svg xmlns="http://www.w3.org/2000/svg" version="1.1" width="256" height="256">
  <defs/>
  <g>
    <path d="M 209.5268096923828 203.5956573486328 C 206.20000581282594 201.17903113370838 207.29296276024152 201.7870257226246 207.96440740354274 203.89029958917214" stroke-width="1.0" fill="none" stroke="rgb(255, 0, 0)" stroke-opacity="1.0" stroke-linecap="round" stroke-linejoin="round"/>
    <path d="M 112.0 172.30142211914062 C 118.41186898614745 176.612886023985 116.78076510613249 175.26201884052912 112.72342674573204 174.1157560587363" stroke-width="1.0" fill="none" stroke="rgb(255, 0, 0)" stroke-opacity="1.0" stroke-linecap="round" stroke-linejoin="round"/>
    <path d="M 46.351463317871094 197.0090789794922 C 55.015125957754734 204.34341081610307 53.87570570569854 201.93757339972828 48.782517695449194 199.62561048728372" stroke-width="1.0" fill="none" stroke="rgb(255, 0, 0)" stroke-opacity="1.0" stroke-linecap="round" stroke-linejoin="round"/>
    <path d="M 93.36770629882812 95.53316497802734 C 101.78040551394155 82.3111491162114 103.35551341799514 75.81514176666074 95.23556252222114 94.66182306747488" stroke-width="1.0" fill="none" stroke="rgb(255, 0, 0)" stroke-opacity="1.0" stroke-linecap="round" stroke-linejoin="round"/>
    <path d="M 93.0843734741211 162.35409545898438 C 103.81617321340119 173.0586491609194 106.51590252764038 176.50182976851727 94.25688579729447 162.77527340218572" stroke-width="1.0" fill="none" stroke="rgb(255, 0, 0)" stroke-opacity="1.0" stroke-linecap="round" stroke-linejoin="round"/>
    <path d="M 159.29507446289062 121.61883544921875 C 163.4595885800013 123.30597100930557 158.76881671944656 111.0318755213246 165.2632273922778 108.07035673218645" stroke-width="1.0" fill="none" stroke="rgb(255, 0, 0)" stroke-opacity="1.0" stroke-linecap="round" stroke-linejoin="round"/>
    <path d="M 159.2640380859375 159.75132751464844 C 157.6790050452589 156.0762441270627 158.2638763526557 157.16171749745885 160.23951425418397 157.80963507821136" stroke-width="1.0" fill="none" stroke="rgb(255, 0, 0)" stroke-opacity="1.0" stroke-linecap="round" stroke-linejoin="round"/>
    <path d="M 128.68310546875 160.4866485595703 C 137.9726619938931 152.16737918282726 136.91436037135972 152.22779581050244 131.02914847298217 159.0381141937324" stroke-width="1.0" fill="none" stroke="rgb(255, 0, 0)" stroke-opacity="1.0" stroke-linecap="round" stroke-linejoin="round"/>
    <path d="M 98.92070007324219 156.19195556640625 C 106.85962938847887 164.39725446869403 107.84152502990048 167.4352788785506 99.57492116650876 155.6847752678096" stroke-width="1.0" fill="none" stroke="rgb(255, 0, 0)" stroke-opacity="1.0" stroke-linecap="round" stroke-linejoin="round"/>
    <path d="M 101.03571319580078 92.30750274658203 C 111.06060175243391 84.78591308271233 110.65266516079588 83.00059736613406 103.71670484183005 92.55408059085825" stroke-width="1.0" fill="none" stroke="rgb(255, 0, 0)" stroke-opacity="1.0" stroke-linecap="round" stroke-linejoin="round"/>
    <path d="M 122.13096618652344 154.40821838378906 C 119.11877485209155 153.73251697778585 121.92931937659253 154.97281912086407 117.66098141790343 153.34918843378392" stroke-width="1.0" fill="none" stroke="rgb(255, 0, 0)" stroke-opacity="1.0" stroke-linecap="round" stroke-linejoin="round"/>
    <path d="M 147.32379150390625 111.42758178710938 C 152.90767657751866 110.43513396045256 143.17047383189438 105.13961194928324 148.95697382539015 108.75702391332713" stroke-width="1.0" fill="none" stroke="rgb(255, 0, 0)" stroke-opacity="1.0" stroke-linecap="round" stroke-linejoin="round"/>
    <path d="M 120.292724609375 145.6997528076172 C 121.52853130437983 143.8050324961711 121.08257691479464 145.36076368402888 120.63297766455997 144.26378732200385" stroke-width="1.0" fill="none" stroke="rgb(255, 0, 0)" stroke-opacity="1.0" stroke-linecap="round" stroke-linejoin="round"/>
    <path d="M 133.10385131835938 134.1018829345703 C 132.64604953712234 129.4910127431159 131.56066128273912 130.27103749504036 133.8056721415207 131.74472110570377" stroke-width="1.0" fill="none" stroke="rgb(255, 0, 0)" stroke-opacity="1.0" stroke-linecap="round" stroke-linejoin="round"/>
    <path d="M 147.2578582763672 95.31224060058594 C 163.46811898586282 96.7267548651528 155.60738698729398 90.87920710082352 146.9965134414609 92.20860916870056" stroke-width="1.0" fill="none" stroke="rgb(255, 0, 0)" stroke-opacity="1.0" stroke-linecap="round" stroke-linejoin="round"/>
    <path d="M 140.47987365722656 170.3043212890625 C 141.04721371956495 168.44451338322474 141.3864676110556 167.0372747777702 141.76450144799708 169.91563839781853" stroke-width="1.0" fill="none" stroke="rgb(255, 0, 0)" stroke-opacity="1.0" stroke-linecap="round" stroke-linejoin="round"/>
    <path d="M 142.10989379882812 138.94105529785156 C 141.6395296229086 134.5598421560966 138.08388748288945 138.79193454705873 139.08411184909318 140.86935240344295" stroke-width="1.0" fill="none" stroke="rgb(255, 0, 0)" stroke-opacity="1.0" stroke-linecap="round" stroke-linejoin="round"/>
    <path d="M 111.16524505615234 202.1652374267578 C 106.86353974932098 206.25031895777184 108.14505130943068 204.27752206613155 109.36373380471815 204.40044865786163" stroke-width="1.0" fill="none" stroke="rgb(255, 0, 0)" stroke-opacity="1.0" stroke-linecap="round" stroke-linejoin="round"/>
    <path d="M 102.642578125 101.07667541503906 C 112.36379661792701 92.57635880747969 113.83273154707557 91.1744107004472 102.19113087996784 100.92793029740858" stroke-width="1.0" fill="none" stroke="rgb(255, 0, 0)" stroke-opacity="1.0" stroke-linecap="round" stroke-linejoin="round"/>
    <path d="M 143.13223266601562 73.69080352783203 C 165.06456410375318 74.40867027979509 157.81445075339403 68.39019857367053 141.02919609398452 71.26985323736135" stroke-width="1.0" fill="none" stroke="rgb(255, 0, 0)" stroke-opacity="1.0" stroke-linecap="round" stroke-linejoin="round"/>
    <path d="M 103.2579116821289 82.12874603271484 C 110.36639840451657 74.98020796186717 110.63587282697537 73.22673938429213 102.70422349001093 82.24576931172899" stroke-width="1.0" fill="none" stroke="rgb(255, 0, 0)" stroke-opacity="1.0" stroke-linecap="round" stroke-linejoin="round"/>
    <path d="M 125.5705795288086 141.40682983398438 C 124.40503759605792 136.925587469195 123.46915503760208 137.6422515605726 126.55116845351968 140.04912974990415" stroke-width="1.0" fill="none" stroke="rgb(255, 0, 0)" stroke-opacity="1.0" stroke-linecap="round" stroke-linejoin="round"/>
    <path d="M 143.01876831054688 200.17662048339844 C 144.79607342386828 197.95536902812407 144.0000284689145 196.94818494735236 143.14574336679166 199.94844181061052" stroke-width="1.0" fill="none" stroke="rgb(255, 0, 0)" stroke-opacity="1.0" stroke-linecap="round" stroke-linejoin="round"/>
  </g>
</svg>
