<?xml version="1.0" ?>
<svg xmlns="http://www.w3.org/2000/svg" version="1.1" width="256" height="256">
  <defs/>
  <g>
    <path d="M 209.5268096923828 203.5956573486328 C 202.92168645400025 199.61382102971973 205.74901482513715 200.85044124996836 207.22916551358912 203.35849210692956" stroke-width="1.0" fill="none" stroke="rgb(255, 0, 0)" stroke-opacity="1.0" stroke-linecap="round" stroke-linejoin="round"/>
    <path d="M 112.0 172.30142211914062 C 115.12033170129638 172.1218691145049 115.59128551667021 171.54227928421656 113.38985477526924 172.41807409529255" stroke-width="1.0" fill="none" stroke="rgb(255, 0, 0)" stroke-opacity="1.0" stroke-linecap="round" stroke-linejoin="round"/>
    <path d="M 46.351463317871094 197.0090789794922 C 56.28691836955893 201.35491451254472 54.389812456186824 198.7834336425719 47.564780735991796 198.84211136561777" stroke-width="1.0" fill="none" stroke="rgb(255, 0, 0)" stroke-opacity="1.0" stroke-linecap="round" stroke-linejoin="round"/>
    <path d="M 93.36770629882812 95.53316497802734 C 96.38209342211415 78.65891217773483 96.33983620432632 75.86135491668516 92.14415188531929 95.17499426345877" stroke-width="1.0" fill="none" stroke="rgb(255, 0, 0)" stroke-opacity="1.0" stroke-linecap="round" stroke-linejoin="round"/>
    <path d="M 93.0843734741211 162.35409545898438 C 103.60797275868927 168.24880800491354 104.20787621385864 168.76554074416424 93.47770300558457 162.81922607585935" stroke-width="1.0" fill="none" stroke="rgb(255, 0, 0)" stroke-opacity="1.0" stroke-linecap="round" stroke-linejoin="round"/>
    <path d="M 159.29507446289062 121.61883544921875 C 159.74329265223832 119.22229324059829 160.21602846184769 112.8847168985829 164.17190640076169 110.36247098999895" stroke-width="1.0" fill="none" stroke="rgb(255, 0, 0)" stroke-opacity="1.0" stroke-linecap="round" stroke-linejoin="round"/>
    <path d="M 159.2640380859375 159.75132751464844 C 154.8794900363325 154.44262314966096 156.33130142484885 154.32757600461522 158.3181551323845 158.65820828606658" stroke-width="1.0" fill="none" stroke="rgb(255, 0, 0)" stroke-opacity="1.0" stroke-linecap="round" stroke-linejoin="round"/>
    <path d="M 128.68310546875 160.4866485595703 C 133.7079062680325 148.99660186196544 134.43890842510118 149.41667005519238 128.48153690858436 158.59225559597698" stroke-width="1.0" fill="none" stroke="rgb(255, 0, 0)" stroke-opacity="1.0" stroke-linecap="round" stroke-linejoin="round"/>
    <path d="M 98.92070007324219 156.19195556640625 C 107.01572012486803 160.6183309571889 107.32043547606747 161.09017179999836 99.39453220924672 156.96042886850236" stroke-width="1.0" fill="none" stroke="rgb(255, 0, 0)" stroke-opacity="1.0" stroke-linecap="round" stroke-linejoin="round"/>
    <path d="M 101.03571319580078 92.30750274658203 C 104.90990309062971 80.93232307111565 105.57436706890745 79.12509287242068 99.35890400049857 90.54954850698927" stroke-width="1.0" fill="none" stroke="rgb(255, 0, 0)" stroke-opacity="1.0" stroke-linecap="round" stroke-linejoin="round"/>
    <path d="M 122.13096618652344 154.40821838378906 C 116.46289630823779 149.52358261108282 118.69731369102468 150.57123586652676 118.21296739698363 152.60378001798955" stroke-width="1.0" fill="none" stroke="rgb(255, 0, 0)" stroke-opacity="1.0" stroke-linecap="round" stroke-linejoin="round"/>
    <path d="M 147.32379150390625 111.42758178710938 C 151.47860658163853 106.00500705501128 146.14242781996964 102.2659094231907 148.28707841485243 108.63126717275706" stroke-width="1.0" fill="none" stroke="rgb(255, 0, 0)" stroke-opacity="1.0" stroke-linecap="round" stroke-linejoin="round"/>
    <path d="M 120.292724609375 145.6997528076172 C 121.20691989996088 139.5666176125575 120.35827850840231 141.03538875293185 119.90623673805584 144.16123133178473" stroke-width="1.0" fill="none" stroke="rgb(255, 0, 0)" stroke-opacity="1.0" stroke-linecap="round" stroke-linejoin="round"/>
    <path d="M 133.10385131835938 134.1018829345703 C 131.80133069342384 124.50479142963934 130.88222977181383 124.89970556487984 133.53572213908882 131.88380854428715" stroke-width="1.0" fill="none" stroke="rgb(255, 0, 0)" stroke-opacity="1.0" stroke-linecap="round" stroke-linejoin="round"/>
    <path d="M 147.2578582763672 95.31224060058594 C 165.8522609078599 94.22329386184927 157.72446862944486 87.73399302001297 145.0806616696294 92.25339061515747" stroke-width="1.0" fill="none" stroke="rgb(255, 0, 0)" stroke-opacity="1.0" stroke-linecap="round" stroke-linejoin="round"/>
    <path d="M 140.47987365722656 170.3043212890625 C 136.82577978201536 165.8575485375674 139.4124519579222 164.23140090692058 139.40671848805903 169.68126119244667" stroke-width="1.0" fill="none" stroke="rgb(255, 0, 0)" stroke-opacity="1.0" stroke-linecap="round" stroke-linejoin="round"/>
    <path d="M 142.10989379882812 138.94105529785156 C 139.0842859519682 132.5817885863029 136.7930230152686 133.92532378160158 140.86304740073655 139.07317380921134" stroke-width="1.0" fill="none" stroke="rgb(255, 0, 0)" stroke-opacity="1.0" stroke-linecap="round" stroke-linejoin="round"/>
    <path d="M 111.16524505615234 202.1652374267578 C 106.56278424852752 201.16147191664177 109.56055314239272 201.1613983898315 108.76226345349897 202.47833634196846" stroke-width="1.0" fill="none" stroke="rgb(255, 0, 0)" stroke-opacity="1.0" stroke-linecap="round" stroke-linejoin="round"/>
    <path d="M 102.642578125 101.07667541503906 C 110.59540643924659 87.4969091538542 112.60131198378211 85.37625491584026 101.17220807418171 99.73384267285871" stroke-width="1.0" fill="none" stroke="rgb(255, 0, 0)" stroke-opacity="1.0" stroke-linecap="round" stroke-linejoin="round"/>
    <path d="M 143.13223266601562 73.69080352783203 C 162.70655858007154 71.4867723916115 154.92959452933397 66.3424466701366 139.40633971542923 71.42968356916371" stroke-width="1.0" fill="none" stroke="rgb(255, 0, 0)" stroke-opacity="1.0" stroke-linecap="round" stroke-linejoin="round"/>
    <path d="M 103.2579116821289 82.12874603271484 C 109.03348023740232 71.83950333006175 108.78410671750882 69.57897040998793 101.69116488720103 79.62604448670439" stroke-width="1.0" fill="none" stroke="rgb(255, 0, 0)" stroke-opacity="1.0" stroke-linecap="round" stroke-linejoin="round"/>
    <path d="M 125.5705795288086 141.40682983398438 C 123.38838858826068 132.00154190645085 122.79197689314712 132.79232103574654 125.2935419498137 139.3813439861636" stroke-width="1.0" fill="none" stroke="rgb(255, 0, 0)" stroke-opacity="1.0" stroke-linecap="round" stroke-linejoin="round"/>
    <path d="M 143.01876831054688 200.17662048339844 C 145.04904078150378 194.64474848178313 145.1712960379796 194.42745826659674 142.6094822105903 199.6987144124534" stroke-width="1.0" fill="none" stroke="rgb(255, 0, 0)" stroke-opacity="1.0" stroke-linecap="round" stroke-linejoin="round"/>
  </g>
</svg>
