<?xml version="1.0" ?>
<svg xmlns="http://www.w3.org/2000/svg" version="1.1" width="256" height="256">
  <defs/>
  <g>
    <path d="M 209.5268096923828 203.5956573486328 C 209.52958325880982 203.5973556042284 209.52557465484907 203.5958853093403 209.5252537322781 203.596232146755" stroke-width="1.0" fill="none" stroke="rgb(255, 0, 0)" stroke-opacity="1.0" stroke-linecap="round" stroke-linejoin="round"/>
    <path d="M 112.0 172.30142211914062 C 112.00478309060912 172.29772527264223 112.00649552529143 172.2963675668017 112.00638388236305 172.29339768890904" stroke-width="1.0" fill="none" stroke="rgb(255, 0, 0)" stroke-opacity="1.0" stroke-linecap="round" stroke-linejoin="round"/>
    <path d="M 46.351463317871094 197.0090789794922 C 46.353125301626804 197.00635560980425 46.352705942209774 197.0017628337798 46.35744884016355 197.0016375945225" stroke-width="1.0" fill="none" stroke="rgb(255, 0, 0)" stroke-opacity="1.0" stroke-linecap="round" stroke-linejoin="round"/>
    <path d="M 93.36770629882812 95.53316497802734 C 93.3673224374645 95.53530644958542 93.3664797189595 95.53918656646543 93.36171265344673 95.54252162914328" stroke-width="1.0" fill="none" stroke="rgb(255, 0, 0)" stroke-opacity="1.0" stroke-linecap="round" stroke-linejoin="round"/>
    <path d="M 93.0843734741211 162.35409545898438 C 93.08405842153107 162.3572102571108 93.08851433641723 162.36204114089276 93.08527615717301 162.3640276984885" stroke-width="1.0" fill="none" stroke="rgb(255, 0, 0)" stroke-opacity="1.0" stroke-linecap="round" stroke-linejoin="round"/>
    <path d="M 159.29507446289062 121.61883544921875 C 159.29116302000375 121.61543808656081 159.287091622744 121.61357870735975 159.28225700958737 121.61711919861712" stroke-width="1.0" fill="none" stroke="rgb(255, 0, 0)" stroke-opacity="1.0" stroke-linecap="round" stroke-linejoin="round"/>
    <path d="M 159.2640380859375 159.75132751464844 C 159.26194824632395 159.7541279905118 159.2624292114852 159.7510712972788 159.260349594207 159.7492658250528" stroke-width="1.0" fill="none" stroke="rgb(255, 0, 0)" stroke-opacity="1.0" stroke-linecap="round" stroke-linejoin="round"/>
    <path d="M 128.68310546875 160.4866485595703 C 128.68469145098538 160.48396376992443 128.68588575435533 160.48791715602246 128.68958009644103 160.48585522537914" stroke-width="1.0" fill="none" stroke="rgb(255, 0, 0)" stroke-opacity="1.0" stroke-linecap="round" stroke-linejoin="round"/>
    <path d="M 98.92070007324219 156.19195556640625 C 98.92028212132799 156.19180536438495 98.91808600402157 156.19009493384846 98.92292842826184 156.18521437522767" stroke-width="1.0" fill="none" stroke="rgb(255, 0, 0)" stroke-opacity="1.0" stroke-linecap="round" stroke-linejoin="round"/>
    <path d="M 101.03571319580078 92.30750274658203 C 101.03214220348372 92.30902251874748 101.02789213528318 92.30694330577029 101.0308265650051 92.311059236779" stroke-width="1.0" fill="none" stroke="rgb(255, 0, 0)" stroke-opacity="1.0" stroke-linecap="round" stroke-linejoin="round"/>
    <path d="M 122.13096618652344 154.40821838378906 C 122.12967010431933 154.40527120590093 122.13347091758718 154.4065968704025 122.13350606084776 154.4049053059992" stroke-width="1.0" fill="none" stroke="rgb(255, 0, 0)" stroke-opacity="1.0" stroke-linecap="round" stroke-linejoin="round"/>
    <path d="M 147.32379150390625 111.42758178710938 C 147.3222655057413 111.4255059029727 147.32491948008774 111.42529033597147 147.3219348534892 111.42900596326915" stroke-width="1.0" fill="none" stroke="rgb(255, 0, 0)" stroke-opacity="1.0" stroke-linecap="round" stroke-linejoin="round"/>
    <path d="M 120.292724609375 145.6997528076172 C 120.29527639486444 145.70342839212904 120.2995996317937 145.70084552478244 120.30352413663257 145.70350509162665" stroke-width="1.0" fill="none" stroke="rgb(255, 0, 0)" stroke-opacity="1.0" stroke-linecap="round" stroke-linejoin="round"/>
    <path d="M 133.10385131835938 134.1018829345703 C 133.10299814528236 134.100119760633 133.10361119767137 134.10102812042183 133.10026702543945 134.1008900910706" stroke-width="1.0" fill="none" stroke="rgb(255, 0, 0)" stroke-opacity="1.0" stroke-linecap="round" stroke-linejoin="round"/>
    <path d="M 147.2578582763672 95.31224060058594 C 147.2623484933091 95.31192251156088 147.26131479033353 95.31611057753861 147.2661720665868 95.32050258415161" stroke-width="1.0" fill="none" stroke="rgb(255, 0, 0)" stroke-opacity="1.0" stroke-linecap="round" stroke-linejoin="round"/>
    <path d="M 140.47987365722656 170.3043212890625 C 140.47535000868467 170.3079250481875 140.47236046717666 170.3063611387016 140.4761857941961 170.30234528649422" stroke-width="1.0" fill="none" stroke="rgb(255, 0, 0)" stroke-opacity="1.0" stroke-linecap="round" stroke-linejoin="round"/>
    <path d="M 142.10989379882812 138.94105529785156 C 142.10622642171003 138.93873219363323 142.10331955076055 138.93713885270753 142.10558549525712 138.93845671729335" stroke-width="1.0" fill="none" stroke="rgb(255, 0, 0)" stroke-opacity="1.0" stroke-linecap="round" stroke-linejoin="round"/>
    <path d="M 111.16524505615234 202.1652374267578 C 111.16183286302947 202.16789956232506 111.16607172187575 202.1688103466186 111.16275707532515 202.16869721590606" stroke-width="1.0" fill="none" stroke="rgb(255, 0, 0)" stroke-opacity="1.0" stroke-linecap="round" stroke-linejoin="round"/>
    <path d="M 102.642578125 101.07667541503906 C 102.6447614693064 101.07383729258711 102.64588290663367 101.07504069770062 102.6432580982143 101.07148057416487" stroke-width="1.0" fill="none" stroke="rgb(255, 0, 0)" stroke-opacity="1.0" stroke-linecap="round" stroke-linejoin="round"/>
    <path d="M 143.13223266601562 73.69080352783203 C 143.13495480504713 73.69110927324907 143.13434172934618 73.69088827093616 143.13718278259842 73.6942569048113" stroke-width="1.0" fill="none" stroke="rgb(255, 0, 0)" stroke-opacity="1.0" stroke-linecap="round" stroke-linejoin="round"/>
    <path d="M 103.2579116821289 82.12874603271484 C 103.25697429028928 82.13148788816721 103.25200556318143 82.13525340711928 103.24732235695048 82.14007089013151" stroke-width="1.0" fill="none" stroke="rgb(255, 0, 0)" stroke-opacity="1.0" stroke-linecap="round" stroke-linejoin="round"/>
    <path d="M 125.5705795288086 141.40682983398438 C 125.57553167564777 141.40789013490544 125.57942410727371 141.40965349424263 125.57511056644235 141.41165676272917" stroke-width="1.0" fill="none" stroke="rgb(255, 0, 0)" stroke-opacity="1.0" stroke-linecap="round" stroke-linejoin="round"/>
    <path d="M 143.01876831054688 200.17662048339844 C 143.02376078272448 200.17879990008757 143.02094689781237 200.17802093444342 143.0246090111274 200.18096665263437" stroke-width="1.0" fill="none" stroke="rgb(255, 0, 0)" stroke-opacity="1.0" stroke-linecap="round" stroke-linejoin="round"/>
  </g>
</svg>
