<svg xmlns="http://www.w3.org/2000/svg" viewBox="0.0 0.0 256.0 256.0" height="256.0px" width="256.0px"><path fill="none" stroke="black" stroke-width="0.5" stroke-opacity="1.0"  filling="0" d="M98.92070007324219 156.19195556640625 L120.292724609375 145.6997528076172"></path>
<path fill="none" stroke="black" stroke-width="0.5" stroke-opacity="1.0"  filling="0" d="M93.0843734741211 162.35409545898438 L98.92070007324219 156.19195556640625"></path>
<path fill="none" stroke="black" stroke-width="0.5" stroke-opacity="1.0"  filling="0" d="M209.5268096923828 203.5956573486328 L159.2640380859375 159.75132751464844"></path>
<path fill="none" stroke="black" stroke-width="0.5" stroke-opacity="1.0"  filling="0" d="M112.0 172.30142211914062 L122.13096618652344 154.40821838378906"></path>
<path fill="none" stroke="black" stroke-width="0.5" stroke-opacity="1.0"  filling="0" d="M122.13096618652344 154.40821838378906 L120.292724609375 145.6997528076172"></path>
<path fill="none" stroke="black" stroke-width="0.5" stroke-opacity="1.0"  filling="0" d="M46.351463317871094 197.0090789794922 L93.0843734741211 162.35409545898438"></path>
<path fill="none" stroke="black" stroke-width="0.5" stroke-opacity="1.0"  filling="0" d="M93.36770629882812 95.53316497802734 L101.03571319580078 92.30750274658203"></path>
<path fill="none" stroke="black" stroke-width="0.5" stroke-opacity="1.0"  filling="0" d="M128.68310546875 160.4866485595703 L140.47987365722656 170.3043212890625"></path>
<path fill="none" stroke="black" stroke-width="0.5" stroke-opacity="1.0"  filling="0" d="M159.2640380859375 159.75132751464844 L142.10989379882812 138.94105529785156"></path>
<path fill="none" stroke="black" stroke-width="0.5" stroke-opacity="1.0"  filling="0" d="M133.10385131835938 134.1018829345703 L142.10989379882812 138.94105529785156"></path>
<path fill="none" stroke="black" stroke-width="0.5" stroke-opacity="1.0"  filling="0" d="M112.0 172.30142211914062 L111.16524505615234 202.1652374267578"></path>
<path fill="none" stroke="black" stroke-width="0.5" stroke-opacity="1.0"  filling="0" d="M101.03571319580078 92.30750274658203 L102.642578125 101.07667541503906"></path>
<path fill="none" stroke="black" stroke-width="0.5" stroke-opacity="1.0"  filling="0" d="M147.2578582763672 95.31224060058594 L143.13223266601562 73.69080352783203"></path>
<path fill="none" stroke="black" stroke-width="0.5" stroke-opacity="1.0"  filling="0" d="M101.03571319580078 92.30750274658203 L103.2579116821289 82.12874603271484"></path>
<path fill="none" stroke="black" stroke-width="0.5" stroke-opacity="1.0"  filling="0" d="M147.32379150390625 111.42758178710938 L133.10385131835938 134.1018829345703"></path>
<path fill="none" stroke="black" stroke-width="0.5" stroke-opacity="1.0"  filling="0" d="M159.29507446289062 121.61883544921875 L147.32379150390625 111.42758178710938"></path>
<path fill="none" stroke="black" stroke-width="0.5" stroke-opacity="1.0"  filling="0" d="M147.32379150390625 111.42758178710938 L147.2578582763672 95.31224060058594"></path>
<path fill="none" stroke="black" stroke-width="0.5" stroke-opacity="1.0"  filling="0" d="M140.47987365722656 170.3043212890625 L143.01876831054688 200.17662048339844"></path>
<path fill="none" stroke="black" stroke-width="0.5" stroke-opacity="1.0"  filling="0" d="M102.642578125 101.07667541503906 L125.5705795288086 141.40682983398438"></path>
<path fill="none" stroke="black" stroke-width="0.5" stroke-opacity="1.0"  filling="0" d="M120.292724609375 145.6997528076172 L125.5705795288086 141.40682983398438"></path>
<path fill="none" stroke="black" stroke-width="0.5" stroke-opacity="1.0"  filling="0" d="M128.68310546875 160.4866485595703 L125.5705795288086 141.40682983398438"></path>
<path fill="none" stroke="black" stroke-width="0.5" stroke-opacity="1.0"  filling="0" d="M133.10385131835938 134.1018829345703 L125.5705795288086 141.40682983398438"></path></svg>