<?xml version="1.0" ?>
<svg xmlns="http://www.w3.org/2000/svg" version="1.1" width="256" height="256">
  <defs/>
  <g>
    <path d="M 103.87018585205078 199.68101501464844 C 105.0817314817331 198.63604450231495 97.4158181851225 205.12346223271066 102.45951827295038 206.67622396422937" stroke-width="1.0" fill="none" stroke="rgb(255, 0, 0)" stroke-opacity="1.0" stroke-linecap="round" stroke-linejoin="round"/>
    <path d="M 120.65206909179688 196.2711181640625 C 114.89079898263793 193.847242904173 111.577038814476 195.90113274357478 119.11057709296486 206.39462258820103" stroke-width="1.0" fill="none" stroke="rgb(255, 0, 0)" stroke-opacity="1.0" stroke-linecap="round" stroke-linejoin="round"/>
    <path d="M 139.79421997070312 150.57765197753906 C 134.89622947337975 136.3792899512349 127.98633192640168 148.02011915702198 136.61117174627623 163.50687803489114" stroke-width="1.0" fill="none" stroke="rgb(255, 0, 0)" stroke-opacity="1.0" stroke-linecap="round" stroke-linejoin="round"/>
    <path d="M 113.5157241821289 205.4871368408203 C 108.53785514086415 211.70291328018234 104.34975513247268 213.9693299227887 112.13366540174538 212.04522291164452" stroke-width="1.0" fill="none" stroke="rgb(255, 0, 0)" stroke-opacity="1.0" stroke-linecap="round" stroke-linejoin="round"/>
    <path d="M 107.08233642578125 177.81878662109375 C 95.56503166524445 180.3582211518862 95.2482910240393 181.56762805114056 103.22771552255998 190.36435004040746" stroke-width="1.0" fill="none" stroke="rgb(255, 0, 0)" stroke-opacity="1.0" stroke-linecap="round" stroke-linejoin="round"/>
    <path d="M 125.96084594726562 203.1285858154297 C 126.35388224588723 190.42390499787672 118.52899015942613 201.84647336640208 121.70416395767698 214.76136243897352" stroke-width="1.0" fill="none" stroke="rgb(255, 0, 0)" stroke-opacity="1.0" stroke-linecap="round" stroke-linejoin="round"/>
    <path d="M 134.44004821777344 202.45913696289062 C 128.73617281373728 204.1993377321042 127.28803489004355 206.1453595987467 130.17517503366014 210.20681635071807" stroke-width="1.0" fill="none" stroke="rgb(255, 0, 0)" stroke-opacity="1.0" stroke-linecap="round" stroke-linejoin="round"/>
    <path d="M 177.0657958984375 107.99081420898438 C 161.43860819140286 89.79018859292248 149.64693006587876 102.15343687037792 166.3685208694513 121.88978493576731" stroke-width="1.0" fill="none" stroke="rgb(255, 0, 0)" stroke-opacity="1.0" stroke-linecap="round" stroke-linejoin="round"/>
    <path d="M 169.71084594726562 128.89768981933594 C 154.75251268926013 114.98081445862323 144.07699294066708 127.74969945941456 159.21527156791026 147.84115919944642" stroke-width="1.0" fill="none" stroke="rgb(255, 0, 0)" stroke-opacity="1.0" stroke-linecap="round" stroke-linejoin="round"/>
    <path d="M 130.73585510253906 139.898193359375 C 110.62065080944075 126.37182197248282 103.14537145962402 140.08475246373786 118.93712806341819 159.7573368551872" stroke-width="1.0" fill="none" stroke="rgb(255, 0, 0)" stroke-opacity="1.0" stroke-linecap="round" stroke-linejoin="round"/>
    <path d="M 149.55238342285156 103.29920959472656 C 136.59536167078662 90.18919149398687 125.8926624306487 104.28635600326459 141.9339673531146 121.57559774984686" stroke-width="1.0" fill="none" stroke="rgb(255, 0, 0)" stroke-opacity="1.0" stroke-linecap="round" stroke-linejoin="round"/>
    <path d="M 142.43814086914062 128.0120391845703 C 116.12541568274327 109.65859344264555 110.72759701609849 125.01856635983623 127.37087455838423 144.79296241468518" stroke-width="1.0" fill="none" stroke="rgb(255, 0, 0)" stroke-opacity="1.0" stroke-linecap="round" stroke-linejoin="round"/>
    <path d="M 148.2096405029297 197.18289184570312 C 142.22349094488277 197.20283792616615 140.3594941935613 199.62941841792514 144.87774169453968 205.44991450782538" stroke-width="1.0" fill="none" stroke="rgb(255, 0, 0)" stroke-opacity="1.0" stroke-linecap="round" stroke-linejoin="round"/>
    <path d="M 116.08269500732422 95.60064697265625 C 97.23658884352454 86.61324518024968 91.20341512223192 97.09107962837165 105.04910907408447 113.95502941907351" stroke-width="1.0" fill="none" stroke="rgb(255, 0, 0)" stroke-opacity="1.0" stroke-linecap="round" stroke-linejoin="round"/>
    <path d="M 167.56309509277344 86.72998046875 C 150.57113107082375 69.1988339037728 140.8261036086929 84.62251373763382 156.47602523888904 101.0119603325647" stroke-width="1.0" fill="none" stroke="rgb(255, 0, 0)" stroke-opacity="1.0" stroke-linecap="round" stroke-linejoin="round"/>
    <path d="M 96.14657592773438 192.3594970703125 C 94.46231316157012 194.66988235981776 90.08186039851213 196.69138950097576 92.51724123509885 203.08924771416756" stroke-width="1.0" fill="none" stroke="rgb(255, 0, 0)" stroke-opacity="1.0" stroke-linecap="round" stroke-linejoin="round"/>
    <path d="M 112.61283111572266 119.35384368896484 C 96.43711516987896 111.12518219821088 87.37067833066776 122.50561409913699 101.92441980006667 137.4295646579672" stroke-width="1.0" fill="none" stroke="rgb(255, 0, 0)" stroke-opacity="1.0" stroke-linecap="round" stroke-linejoin="round"/>
    <path d="M 158.24000549316406 190.9847412109375 C 148.74204354875945 186.67472643991906 149.8335359781624 192.96496937562557 155.71009961415876 199.62448868929474" stroke-width="1.0" fill="none" stroke="rgb(255, 0, 0)" stroke-opacity="1.0" stroke-linecap="round" stroke-linejoin="round"/>
    <path d="M 115.00767517089844 185.8307342529297 C 106.04251041644996 185.17331279555495 102.73630267592078 189.4699074026414 112.45909786567036 196.64423734143782" stroke-width="1.0" fill="none" stroke="rgb(255, 0, 0)" stroke-opacity="1.0" stroke-linecap="round" stroke-linejoin="round"/>
    <path d="M 150.15853881835938 141.30706787109375 C 129.46741902318678 117.82747134905475 121.78421355551805 134.89302097280995 141.3002858862361 151.00685704061453" stroke-width="1.0" fill="none" stroke="rgb(255, 0, 0)" stroke-opacity="1.0" stroke-linecap="round" stroke-linejoin="round"/>
    <path d="M 96.96707153320312 175.67578125 C 85.23084838239133 179.25275616056712 84.73423670331815 180.62574050581313 93.6499669911973 186.4142627465158" stroke-width="1.0" fill="none" stroke="rgb(255, 0, 0)" stroke-opacity="1.0" stroke-linecap="round" stroke-linejoin="round"/>
    <path d="M 145.14573669433594 77.85298156738281 C 122.32057256920245 65.1471975384699 117.87922879477372 79.30776471841712 130.64216626865183 95.57588710940882" stroke-width="1.0" fill="none" stroke="rgb(255, 0, 0)" stroke-opacity="1.0" stroke-linecap="round" stroke-linejoin="round"/>
    <path d="M 145.86758422851562 113.6717529296875 C 130.02985762262927 100.11381653216766 120.28308526451158 114.30231599030968 135.4634222206611 131.38493279338144" stroke-width="1.0" fill="none" stroke="rgb(255, 0, 0)" stroke-opacity="1.0" stroke-linecap="round" stroke-linejoin="round"/>
  </g>
</svg>
