<?xml version="1.0" ?>
<svg xmlns="http://www.w3.org/2000/svg" version="1.1" width="256" height="256">
  <defs/>
  <g>
    <path d="M 103.87018585205078 199.68101501464844 C 103.71161320644833 199.2486747503847 103.15207156589796 200.12755912816698 104.24907263047906 200.03544244243218" stroke-width="1.0" fill="none" stroke="rgb(255, 0, 0)" stroke-opacity="1.0" stroke-linecap="round" stroke-linejoin="round"/>
    <path d="M 120.65206909179688 196.2711181640625 C 120.1956736114202 195.61136324452028 120.13242565577315 196.14034793875376 121.35102032264015 196.80872383122014" stroke-width="1.0" fill="none" stroke="rgb(255, 0, 0)" stroke-opacity="1.0" stroke-linecap="round" stroke-linejoin="round"/>
    <path d="M 139.79421997070312 150.57765197753906 C 139.67468560251345 150.7679146342574 139.2572725282274 150.38402932543133 138.7196446895822 150.39971615535165" stroke-width="1.0" fill="none" stroke="rgb(255, 0, 0)" stroke-opacity="1.0" stroke-linecap="round" stroke-linejoin="round"/>
    <path d="M 113.5157241821289 205.4871368408203 C 113.81464790552785 205.45069323440717 113.00491699007766 206.1135514074498 113.80225854020172 204.53773925046974" stroke-width="1.0" fill="none" stroke="rgb(255, 0, 0)" stroke-opacity="1.0" stroke-linecap="round" stroke-linejoin="round"/>
    <path d="M 107.08233642578125 177.81878662109375 C 107.41386251417671 178.36743185764334 106.9878612915378 178.03112561533715 107.4819074874247 177.29268379971532" stroke-width="1.0" fill="none" stroke="rgb(255, 0, 0)" stroke-opacity="1.0" stroke-linecap="round" stroke-linejoin="round"/>
    <path d="M 125.96084594726562 203.1285858154297 C 126.26610746251436 203.3551785774742 126.2090592781643 203.07513828613608 126.4169616888381 203.59219688731108" stroke-width="1.0" fill="none" stroke="rgb(255, 0, 0)" stroke-opacity="1.0" stroke-linecap="round" stroke-linejoin="round"/>
    <path d="M 134.44004821777344 202.45913696289062 C 134.65638149138678 202.72495366266145 133.84497347866278 203.12915249978582 134.47853150978824 202.60063818623595" stroke-width="1.0" fill="none" stroke="rgb(255, 0, 0)" stroke-opacity="1.0" stroke-linecap="round" stroke-linejoin="round"/>
    <path d="M 177.0657958984375 107.99081420898438 C 177.1075660059771 108.43471584941128 176.71174022270097 108.23699911038246 176.8359961347158 108.11940688257899" stroke-width="1.0" fill="none" stroke="rgb(255, 0, 0)" stroke-opacity="1.0" stroke-linecap="round" stroke-linejoin="round"/>
    <path d="M 169.71084594726562 128.89768981933594 C 170.14696371140826 128.29202026297122 169.40446893549245 128.33282159362324 169.91976377925212 128.88124765370785" stroke-width="1.0" fill="none" stroke="rgb(255, 0, 0)" stroke-opacity="1.0" stroke-linecap="round" stroke-linejoin="round"/>
    <path d="M 130.73585510253906 139.898193359375 C 130.5858262294866 140.36479035293402 130.320618204972 139.8698943341173 129.74373173353843 140.26610523487545" stroke-width="1.0" fill="none" stroke="rgb(255, 0, 0)" stroke-opacity="1.0" stroke-linecap="round" stroke-linejoin="round"/>
    <path d="M 149.55238342285156 103.29920959472656 C 149.45246837877679 103.13513031959417 150.08955922210683 103.1128181677858 149.75620435298396 103.56650780310004" stroke-width="1.0" fill="none" stroke="rgb(255, 0, 0)" stroke-opacity="1.0" stroke-linecap="round" stroke-linejoin="round"/>
    <path d="M 142.43814086914062 128.0120391845703 C 143.01009917254277 127.68636712094832 142.37456652820347 128.00715347479618 141.68585405200224 128.22046275204747" stroke-width="1.0" fill="none" stroke="rgb(255, 0, 0)" stroke-opacity="1.0" stroke-linecap="round" stroke-linejoin="round"/>
    <path d="M 148.2096405029297 197.18289184570312 C 147.91386305429592 196.53089631052504 148.44328932381413 196.53818927716662 148.42865440258373 197.09869530077697" stroke-width="1.0" fill="none" stroke="rgb(255, 0, 0)" stroke-opacity="1.0" stroke-linecap="round" stroke-linejoin="round"/>
    <path d="M 116.08269500732422 95.60064697265625 C 115.30747330969581 95.85227932632016 115.41442867775865 95.5022462888593 117.1077731575653 95.8202926725239" stroke-width="1.0" fill="none" stroke="rgb(255, 0, 0)" stroke-opacity="1.0" stroke-linecap="round" stroke-linejoin="round"/>
    <path d="M 167.56309509277344 86.72998046875 C 167.54890393254288 86.38083179901358 167.4718259606612 86.28996085758507 167.58003848909843 86.60010657208382" stroke-width="1.0" fill="none" stroke="rgb(255, 0, 0)" stroke-opacity="1.0" stroke-linecap="round" stroke-linejoin="round"/>
    <path d="M 96.14657592773438 192.3594970703125 C 96.17030418046146 191.27168578179194 96.12144909949208 193.32757842528835 96.17773150207759 191.75938219893547" stroke-width="1.0" fill="none" stroke="rgb(255, 0, 0)" stroke-opacity="1.0" stroke-linecap="round" stroke-linejoin="round"/>
    <path d="M 112.61283111572266 119.35384368896484 C 113.00934175383664 119.4883338826143 113.08169498563602 118.78982710563342 112.4958384877679 119.24461025313626" stroke-width="1.0" fill="none" stroke="rgb(255, 0, 0)" stroke-opacity="1.0" stroke-linecap="round" stroke-linejoin="round"/>
    <path d="M 158.24000549316406 190.9847412109375 C 157.62057035559081 190.89158247997958 158.26179271709333 190.9836063398871 158.72207648207296 191.0921294319543" stroke-width="1.0" fill="none" stroke="rgb(255, 0, 0)" stroke-opacity="1.0" stroke-linecap="round" stroke-linejoin="round"/>
    <path d="M 115.00767517089844 185.8307342529297 C 114.8622152768988 185.38743771353896 115.0123358408541 185.3588320609399 114.79571709379498 185.7544700299244" stroke-width="1.0" fill="none" stroke="rgb(255, 0, 0)" stroke-opacity="1.0" stroke-linecap="round" stroke-linejoin="round"/>
    <path d="M 150.15853881835938 141.30706787109375 C 149.9487002440997 141.17687861960547 150.21777538723077 141.3390429096438 149.92217678875534 141.29609565185075" stroke-width="1.0" fill="none" stroke="rgb(255, 0, 0)" stroke-opacity="1.0" stroke-linecap="round" stroke-linejoin="round"/>
    <path d="M 96.96707153320312 175.67578125 C 97.40236661879003 175.84181657142432 97.55582778255322 175.52767979359484 97.1470139982812 175.49641016596846" stroke-width="1.0" fill="none" stroke="rgb(255, 0, 0)" stroke-opacity="1.0" stroke-linecap="round" stroke-linejoin="round"/>
    <path d="M 145.14573669433594 77.85298156738281 C 145.71358050329593 78.12174125895368 145.23412705381742 76.90690929639716 144.9467409221581 77.31873270429179" stroke-width="1.0" fill="none" stroke="rgb(255, 0, 0)" stroke-opacity="1.0" stroke-linecap="round" stroke-linejoin="round"/>
    <path d="M 145.86758422851562 113.6717529296875 C 146.14584462547884 113.47530132797645 145.1743573921399 113.82478497443672 146.5811198172111 113.90659884333873" stroke-width="1.0" fill="none" stroke="rgb(255, 0, 0)" stroke-opacity="1.0" stroke-linecap="round" stroke-linejoin="round"/>
  </g>
</svg>
