<?xml version="1.0" ?>
<svg xmlns="http://www.w3.org/2000/svg" version="1.1" width="256" height="256">
  <defs/>
  <g>
    <path d="M 103.87018585205078 199.68101501464844 C 103.95927832859971 198.55396270757618 96.72712132385541 204.22544816410715 103.54848020203325 204.77586194945886" stroke-width="1.0" fill="none" stroke="rgb(255, 0, 0)" stroke-opacity="1.0" stroke-linecap="round" stroke-linejoin="round"/>
    <path d="M 120.65206909179688 196.2711181640625 C 114.52616446878295 194.07528455303773 109.72770123665617 194.91767386696498 117.57306693633339 207.20612790588902" stroke-width="1.0" fill="none" stroke="rgb(255, 0, 0)" stroke-opacity="1.0" stroke-linecap="round" stroke-linejoin="round"/>
    <path d="M 139.79421997070312 150.57765197753906 C 134.8239528811251 136.07945188513384 127.79778002363068 148.64150914210651 137.26710393431028 164.46953024131204" stroke-width="1.0" fill="none" stroke="rgb(255, 0, 0)" stroke-opacity="1.0" stroke-linecap="round" stroke-linejoin="round"/>
    <path d="M 113.5157241821289 205.4871368408203 C 106.14031504839589 212.11310243194626 103.24760135439651 214.0799904757672 112.37581654291206 211.91255632381493" stroke-width="1.0" fill="none" stroke="rgb(255, 0, 0)" stroke-opacity="1.0" stroke-linecap="round" stroke-linejoin="round"/>
    <path d="M 107.08233642578125 177.81878662109375 C 94.56022037831818 178.16263128167174 92.12223721391968 179.58245482573773 99.97855332544694 191.16102190777806" stroke-width="1.0" fill="none" stroke="rgb(255, 0, 0)" stroke-opacity="1.0" stroke-linecap="round" stroke-linejoin="round"/>
    <path d="M 125.96084594726562 203.1285858154297 C 127.0144701527247 190.51745854096754 116.61450327435533 202.91265100278704 120.90820973022947 215.31084764557752" stroke-width="1.0" fill="none" stroke="rgb(255, 0, 0)" stroke-opacity="1.0" stroke-linecap="round" stroke-linejoin="round"/>
    <path d="M 134.44004821777344 202.45913696289062 C 128.97352232393015 204.78487874200715 127.23407265936117 205.7038803926615 128.31957229241868 211.15786091019683" stroke-width="1.0" fill="none" stroke="rgb(255, 0, 0)" stroke-opacity="1.0" stroke-linecap="round" stroke-linejoin="round"/>
    <path d="M 177.0657958984375 107.99081420898438 C 158.88713934222073 92.0188978138087 146.57313283992661 105.37334939936962 163.0026885406549 124.01240361099924" stroke-width="1.0" fill="none" stroke="rgb(255, 0, 0)" stroke-opacity="1.0" stroke-linecap="round" stroke-linejoin="round"/>
    <path d="M 169.71084594726562 128.89768981933594 C 151.51086592259753 115.06031656433612 140.81102461791318 130.16177557502277 156.5640579219752 148.35361227867006" stroke-width="1.0" fill="none" stroke="rgb(255, 0, 0)" stroke-opacity="1.0" stroke-linecap="round" stroke-linejoin="round"/>
    <path d="M 130.73585510253906 139.898193359375 C 109.28770784679426 125.84247264539542 101.46912481655761 142.31497324351443 118.0291404688137 163.45757031465985" stroke-width="1.0" fill="none" stroke="rgb(255, 0, 0)" stroke-opacity="1.0" stroke-linecap="round" stroke-linejoin="round"/>
    <path d="M 149.55238342285156 103.29920959472656 C 135.84872814112353 90.29963651656988 124.69280090415944 108.36017295835416 138.76920533300353 124.27511595358222" stroke-width="1.0" fill="none" stroke="rgb(255, 0, 0)" stroke-opacity="1.0" stroke-linecap="round" stroke-linejoin="round"/>
    <path d="M 142.43814086914062 128.0120391845703 C 113.51737010474034 108.40553977748442 106.18534733653306 126.52465056355632 123.53102604001265 147.18110404676526" stroke-width="1.0" fill="none" stroke="rgb(255, 0, 0)" stroke-opacity="1.0" stroke-linecap="round" stroke-linejoin="round"/>
    <path d="M 148.2096405029297 197.18289184570312 C 140.10476087667598 195.14294445963392 137.43460749007008 197.27300374221255 141.3374525309502 204.12097554679633" stroke-width="1.0" fill="none" stroke="rgb(255, 0, 0)" stroke-opacity="1.0" stroke-linecap="round" stroke-linejoin="round"/>
    <path d="M 116.08269500732422 95.60064697265625 C 95.64989794081458 84.39681451618718 88.96364995499559 97.63509026756232 101.61903247496338 117.92568486035769" stroke-width="1.0" fill="none" stroke="rgb(255, 0, 0)" stroke-opacity="1.0" stroke-linecap="round" stroke-linejoin="round"/>
    <path d="M 167.56309509277344 86.72998046875 C 150.16193993923196 69.30527730892416 139.33372537382962 88.42081543441117 153.50639213647204 104.02038127677856" stroke-width="1.0" fill="none" stroke="rgb(255, 0, 0)" stroke-opacity="1.0" stroke-linecap="round" stroke-linejoin="round"/>
    <path d="M 96.14657592773438 192.3594970703125 C 95.56110410519271 192.39719038726403 88.63274226115252 195.019308745742 93.01501822026731 202.57944584954353" stroke-width="1.0" fill="none" stroke="rgb(255, 0, 0)" stroke-opacity="1.0" stroke-linecap="round" stroke-linejoin="round"/>
    <path d="M 112.61283111572266 119.35384368896484 C 94.46559379231549 112.44657711856 85.02605095029666 126.36752873384158 98.51996080043288 142.83785742835295" stroke-width="1.0" fill="none" stroke="rgb(255, 0, 0)" stroke-opacity="1.0" stroke-linecap="round" stroke-linejoin="round"/>
    <path d="M 158.24000549316406 190.9847412109375 C 145.51502042406463 183.80973048349816 145.5949304788948 190.02198711921307 151.79830280591597 198.54294572054474" stroke-width="1.0" fill="none" stroke="rgb(255, 0, 0)" stroke-opacity="1.0" stroke-linecap="round" stroke-linejoin="round"/>
    <path d="M 115.00767517089844 185.8307342529297 C 105.05179538959449 184.8930997375601 100.46800071211463 187.55944478476727 110.1950101886684 197.55547219708967" stroke-width="1.0" fill="none" stroke="rgb(255, 0, 0)" stroke-opacity="1.0" stroke-linecap="round" stroke-linejoin="round"/>
    <path d="M 150.15853881835938 141.30706787109375 C 128.98068844762525 116.40460262041705 118.8897662288579 136.5928243251659 138.01330621094314 150.6495372087664" stroke-width="1.0" fill="none" stroke="rgb(255, 0, 0)" stroke-opacity="1.0" stroke-linecap="round" stroke-linejoin="round"/>
    <path d="M 96.96707153320312 175.67578125 C 83.99945742932736 177.76319412596018 81.12510489026883 179.931383110641 90.30033997322245 186.06031319970182" stroke-width="1.0" fill="none" stroke="rgb(255, 0, 0)" stroke-opacity="1.0" stroke-linecap="round" stroke-linejoin="round"/>
    <path d="M 145.14573669433594 77.85298156738281 C 124.27274008018878 63.3899143277155 119.17797681113115 79.9518113826551 129.5510245679072 97.9329008118014" stroke-width="1.0" fill="none" stroke="rgb(255, 0, 0)" stroke-opacity="1.0" stroke-linecap="round" stroke-linejoin="round"/>
    <path d="M 145.86758422851562 113.6717529296875 C 127.36653803492175 99.05041626361297 117.03193322593737 116.58713219581124 132.1595024284858 134.07662514567636" stroke-width="1.0" fill="none" stroke="rgb(255, 0, 0)" stroke-opacity="1.0" stroke-linecap="round" stroke-linejoin="round"/>
  </g>
</svg>
