<?xml version="1.0" ?>
<svg xmlns="http://www.w3.org/2000/svg" version="1.1" width="256" height="256">
  <defs/>
  <g>
    <path d="M 103.87018585205078 199.68101501464844 C 104.67099700707413 200.38531398778858 99.68355748108198 205.0486522046345 103.61875525541517 208.31994506789758" stroke-width="1.0" fill="none" stroke="rgb(255, 0, 0)" stroke-opacity="1.0" stroke-linecap="round" stroke-linejoin="round"/>
    <path d="M 120.65206909179688 196.2711181640625 C 114.15172284509521 191.74112088726625 109.338682224205 194.2585634400622 118.990277992089 201.38995625977086" stroke-width="1.0" fill="none" stroke="rgb(255, 0, 0)" stroke-opacity="1.0" stroke-linecap="round" stroke-linejoin="round"/>
    <path d="M 139.79421997070312 150.57765197753906 C 136.08970877292504 143.20734294882402 127.40004347425324 148.5248775150237 137.98572196962675 160.62860407096292" stroke-width="1.0" fill="none" stroke="rgb(255, 0, 0)" stroke-opacity="1.0" stroke-linecap="round" stroke-linejoin="round"/>
    <path d="M 113.5157241821289 205.4871368408203 C 109.60879897326161 211.62634324615524 106.81244882372634 213.74413022338683 113.18503238658958 214.53981510143333" stroke-width="1.0" fill="none" stroke="rgb(255, 0, 0)" stroke-opacity="1.0" stroke-linecap="round" stroke-linejoin="round"/>
    <path d="M 107.08233642578125 177.81878662109375 C 93.92330231038605 181.3067747140505 93.9275598610144 180.67623963485028 100.76103881052384 187.04952593609838" stroke-width="1.0" fill="none" stroke="rgb(255, 0, 0)" stroke-opacity="1.0" stroke-linecap="round" stroke-linejoin="round"/>
    <path d="M 125.96084594726562 203.1285858154297 C 122.07399111257882 195.15435276704176 115.81826723614732 201.51016119160502 120.11475269897947 210.85266197281751" stroke-width="1.0" fill="none" stroke="rgb(255, 0, 0)" stroke-opacity="1.0" stroke-linecap="round" stroke-linejoin="round"/>
    <path d="M 134.44004821777344 202.45913696289062 C 127.93521942552317 204.02099324396028 124.94034669195395 202.41840199445764 128.5217536316826 207.4101087205606" stroke-width="1.0" fill="none" stroke="rgb(255, 0, 0)" stroke-opacity="1.0" stroke-linecap="round" stroke-linejoin="round"/>
    <path d="M 177.0657958984375 107.99081420898438 C 159.56276418963284 93.8643043460963 148.35258421016587 102.75751134852733 168.41556657715392 118.81387913590159" stroke-width="1.0" fill="none" stroke="rgb(255, 0, 0)" stroke-opacity="1.0" stroke-linecap="round" stroke-linejoin="round"/>
    <path d="M 169.71084594726562 128.89768981933594 C 153.99007963719714 122.17301798035174 145.46449370360654 130.83078919444569 160.89479980429942 147.53210577842592" stroke-width="1.0" fill="none" stroke="rgb(255, 0, 0)" stroke-opacity="1.0" stroke-linecap="round" stroke-linejoin="round"/>
    <path d="M 130.73585510253906 139.898193359375 C 111.03043321910872 134.5534788099462 106.31010916104003 143.19695700053347 119.53639125464133 157.4775516989372" stroke-width="1.0" fill="none" stroke="rgb(255, 0, 0)" stroke-opacity="1.0" stroke-linecap="round" stroke-linejoin="round"/>
    <path d="M 149.55238342285156 103.29920959472656 C 137.37783618860888 97.76114049911382 127.96425666892995 106.63388678548733 145.6008148205371 121.140907274383" stroke-width="1.0" fill="none" stroke="rgb(255, 0, 0)" stroke-opacity="1.0" stroke-linecap="round" stroke-linejoin="round"/>
    <path d="M 142.43814086914062 128.0120391845703 C 116.00931346411534 116.93797137996245 111.8692805945897 127.18762515957988 128.94457164853316 142.6537574357423" stroke-width="1.0" fill="none" stroke="rgb(255, 0, 0)" stroke-opacity="1.0" stroke-linecap="round" stroke-linejoin="round"/>
    <path d="M 148.2096405029297 197.18289184570312 C 140.307358494779 196.52720958443174 137.14819429732106 194.2336600274985 142.5210233927666 202.22057872291327" stroke-width="1.0" fill="none" stroke="rgb(255, 0, 0)" stroke-opacity="1.0" stroke-linecap="round" stroke-linejoin="round"/>
    <path d="M 116.08269500732422 95.60064697265625 C 98.18311823195228 91.32096164524602 95.12243291397996 96.733304655456 109.43811616560669 109.310113838324" stroke-width="1.0" fill="none" stroke="rgb(255, 0, 0)" stroke-opacity="1.0" stroke-linecap="round" stroke-linejoin="round"/>
    <path d="M 167.56309509277344 86.72998046875 C 150.05043252346047 75.82779737423178 142.45611802824857 87.14102223153412 160.51373447503406 100.69538718955933" stroke-width="1.0" fill="none" stroke="rgb(255, 0, 0)" stroke-opacity="1.0" stroke-linecap="round" stroke-linejoin="round"/>
    <path d="M 96.14657592773438 192.3594970703125 C 94.9776954514566 195.42960173161342 94.19001243041063 195.12223738420025 95.1311631158209 202.02258683312508" stroke-width="1.0" fill="none" stroke="rgb(255, 0, 0)" stroke-opacity="1.0" stroke-linecap="round" stroke-linejoin="round"/>
    <path d="M 112.61283111572266 119.35384368896484 C 97.87580821644879 118.52942197196118 89.93204918027713 124.58500224076907 104.5077776110408 135.26851481513273" stroke-width="1.0" fill="none" stroke="rgb(255, 0, 0)" stroke-opacity="1.0" stroke-linecap="round" stroke-linejoin="round"/>
    <path d="M 158.24000549316406 190.9847412109375 C 148.2120628892746 187.47609515329796 148.23857958015213 189.87406060983272 152.8495227461015 196.4424994963321" stroke-width="1.0" fill="none" stroke="rgb(255, 0, 0)" stroke-opacity="1.0" stroke-linecap="round" stroke-linejoin="round"/>
    <path d="M 115.00767517089844 185.8307342529297 C 106.7167419456858 182.70417596141036 103.08239871473914 184.65651333296978 111.12732100829426 191.8664010186534" stroke-width="1.0" fill="none" stroke="rgb(255, 0, 0)" stroke-opacity="1.0" stroke-linecap="round" stroke-linejoin="round"/>
    <path d="M 150.15853881835938 141.30706787109375 C 130.01720845189772 125.43297538500445 124.21627379721727 135.694043502412 143.2522817358455 148.36818468877738" stroke-width="1.0" fill="none" stroke="rgb(255, 0, 0)" stroke-opacity="1.0" stroke-linecap="round" stroke-linejoin="round"/>
    <path d="M 96.96707153320312 175.67578125 C 83.39981753674924 180.53318933851511 83.9175309995828 182.3482522741542 90.31222656990214 185.90660951012663" stroke-width="1.0" fill="none" stroke="rgb(255, 0, 0)" stroke-opacity="1.0" stroke-linecap="round" stroke-linejoin="round"/>
    <path d="M 145.14573669433594 77.85298156738281 C 130.6159512542 72.15971880540715 124.357841694554 80.43817908513923 139.4784761784724 93.3453935638766" stroke-width="1.0" fill="none" stroke="rgb(255, 0, 0)" stroke-opacity="1.0" stroke-linecap="round" stroke-linejoin="round"/>
    <path d="M 145.86758422851562 113.6717529296875 C 129.96249197626696 107.03137138751434 121.81463662559557 116.56162498412606 138.1005882439155 129.7936737906959" stroke-width="1.0" fill="none" stroke="rgb(255, 0, 0)" stroke-opacity="1.0" stroke-linecap="round" stroke-linejoin="round"/>
  </g>
</svg>
