<?xml version="1.0" ?>
<svg xmlns="http://www.w3.org/2000/svg" version="1.1" width="256" height="256">
  <defs/>
  <g>
    <path d="M 103.87018585205078 199.68101501464844 C 105.84808592337586 198.64222419267597 98.24924609115888 204.33419230854685 102.93669857509347 206.7119261927755" stroke-width="1.0" fill="none" stroke="rgb(255, 0, 0)" stroke-opacity="1.0" stroke-linecap="round" stroke-linejoin="round"/>
    <path d="M 120.65206909179688 196.2711181640625 C 113.01713317300658 192.37960774944887 109.83684926216887 195.19303707382838 117.19645761092445 203.40149238113926" stroke-width="1.0" fill="none" stroke="rgb(255, 0, 0)" stroke-opacity="1.0" stroke-linecap="round" stroke-linejoin="round"/>
    <path d="M 139.79421997070312 150.57765197753906 C 135.55662986400475 139.71263917914018 127.74063013654572 148.5111438896117 136.64353015425047 160.9289246962681" stroke-width="1.0" fill="none" stroke="rgb(255, 0, 0)" stroke-opacity="1.0" stroke-linecap="round" stroke-linejoin="round"/>
    <path d="M 113.5157241821289 205.4871368408203 C 108.84873961657216 211.5028486210637 104.98213084963577 213.7312117510968 112.93965585928017 212.21923747997337" stroke-width="1.0" fill="none" stroke="rgb(255, 0, 0)" stroke-opacity="1.0" stroke-linecap="round" stroke-linejoin="round"/>
    <path d="M 107.08233642578125 177.81878662109375 C 95.95274414388214 177.60682468956492 93.92385769731811 179.26105716357495 101.37205508402238 187.5554329948142" stroke-width="1.0" fill="none" stroke="rgb(255, 0, 0)" stroke-opacity="1.0" stroke-linecap="round" stroke-linejoin="round"/>
    <path d="M 125.96084594726562 203.1285858154297 C 122.94071059690805 193.29965840058668 116.48065603772203 202.16137680449336 120.07757990463743 212.17078245240126" stroke-width="1.0" fill="none" stroke="rgb(255, 0, 0)" stroke-opacity="1.0" stroke-linecap="round" stroke-linejoin="round"/>
    <path d="M 134.44004821777344 202.45913696289062 C 127.42183746751536 205.15056348970307 125.99384972845297 205.74549397145788 127.93027528390428 208.74703041245513" stroke-width="1.0" fill="none" stroke="rgb(255, 0, 0)" stroke-opacity="1.0" stroke-linecap="round" stroke-linejoin="round"/>
    <path d="M 177.0657958984375 107.99081420898438 C 161.34842111864896 91.12059478188732 148.05809148860826 103.22018644313182 167.98839582367492 120.46238816147532" stroke-width="1.0" fill="none" stroke="rgb(255, 0, 0)" stroke-opacity="1.0" stroke-linecap="round" stroke-linejoin="round"/>
    <path d="M 169.71084594726562 128.89768981933594 C 154.2482039886986 119.14711713959247 143.23493666625302 129.71349500213154 161.9290276523524 144.26568827506898" stroke-width="1.0" fill="none" stroke="rgb(255, 0, 0)" stroke-opacity="1.0" stroke-linecap="round" stroke-linejoin="round"/>
    <path d="M 130.73585510253906 139.898193359375 C 110.75898126903547 129.27069339429679 104.72122099270507 140.80719418172015 121.09706210730246 156.78174901033856" stroke-width="1.0" fill="none" stroke="rgb(255, 0, 0)" stroke-opacity="1.0" stroke-linecap="round" stroke-linejoin="round"/>
    <path d="M 149.55238342285156 103.29920959472656 C 136.71084781580615 94.12106386184576 125.43436088645925 106.31304547307889 142.53998589635802 121.76713751425116" stroke-width="1.0" fill="none" stroke="rgb(255, 0, 0)" stroke-opacity="1.0" stroke-linecap="round" stroke-linejoin="round"/>
    <path d="M 142.43814086914062 128.0120391845703 C 115.37046802038975 112.1573002602725 110.06942250132798 125.45610164578594 128.65945068448286 142.16461978620617" stroke-width="1.0" fill="none" stroke="rgb(255, 0, 0)" stroke-opacity="1.0" stroke-linecap="round" stroke-linejoin="round"/>
    <path d="M 148.2096405029297 197.18289184570312 C 139.21476816274776 196.0540911004115 136.7961816630437 196.98990756284644 141.6635810137688 203.85971026893378" stroke-width="1.0" fill="none" stroke="rgb(255, 0, 0)" stroke-opacity="1.0" stroke-linecap="round" stroke-linejoin="round"/>
    <path d="M 116.08269500732422 95.60064697265625 C 96.03971994704017 87.78574769794987 91.05580541153856 95.97614548196738 106.33681354185791 112.58884518445437" stroke-width="1.0" fill="none" stroke="rgb(255, 0, 0)" stroke-opacity="1.0" stroke-linecap="round" stroke-linejoin="round"/>
    <path d="M 167.56309509277344 86.72998046875 C 149.72709687587746 73.05878873775717 141.07076303252103 87.17546152706444 157.55755199517566 102.4208729912561" stroke-width="1.0" fill="none" stroke="rgb(255, 0, 0)" stroke-opacity="1.0" stroke-linecap="round" stroke-linejoin="round"/>
    <path d="M 96.14657592773438 192.3594970703125 C 95.69564403720527 193.4679297831805 92.54494795725847 194.85971277940288 93.65320968183042 201.5584192382154" stroke-width="1.0" fill="none" stroke="rgb(255, 0, 0)" stroke-opacity="1.0" stroke-linecap="round" stroke-linejoin="round"/>
    <path d="M 112.61283111572266 119.35384368896484 C 96.41309974324322 113.60438685290448 87.44643631101444 123.15258604013125 102.87093202235671 136.47037238196623" stroke-width="1.0" fill="none" stroke="rgb(255, 0, 0)" stroke-opacity="1.0" stroke-linecap="round" stroke-linejoin="round"/>
    <path d="M 158.24000549316406 190.9847412109375 C 146.59265714281463 186.1874942316671 146.50830442603836 191.37301976372333 151.80301252652754 198.17194209276764" stroke-width="1.0" fill="none" stroke="rgb(255, 0, 0)" stroke-opacity="1.0" stroke-linecap="round" stroke-linejoin="round"/>
    <path d="M 115.00767517089844 185.8307342529297 C 107.27698269123023 181.93483282366927 103.10267573805457 185.22455781663143 111.76418948516194 192.54415160611677" stroke-width="1.0" fill="none" stroke="rgb(255, 0, 0)" stroke-opacity="1.0" stroke-linecap="round" stroke-linejoin="round"/>
    <path d="M 150.15853881835938 141.30706787109375 C 129.39093052831373 121.13006458025592 122.33264304465379 135.3622106166698 142.6747976049861 148.50543082067435" stroke-width="1.0" fill="none" stroke="rgb(255, 0, 0)" stroke-opacity="1.0" stroke-linecap="round" stroke-linejoin="round"/>
    <path d="M 96.96707153320312 175.67578125 C 85.34177214948117 178.0712869585255 83.55339430372098 180.899551369308 91.01878145958109 185.1793718087106" stroke-width="1.0" fill="none" stroke="rgb(255, 0, 0)" stroke-opacity="1.0" stroke-linecap="round" stroke-linejoin="round"/>
    <path d="M 145.14573669433594 77.85298156738281 C 124.330683424305 67.61840992555486 118.97336026450029 78.64845390069861 133.87756456119334 95.52621975101039" stroke-width="1.0" fill="none" stroke="rgb(255, 0, 0)" stroke-opacity="1.0" stroke-linecap="round" stroke-linejoin="round"/>
    <path d="M 145.86758422851562 113.6717529296875 C 129.70974253321276 102.65834644702362 119.43090096885729 114.9486648839521 136.81727640004343 130.58332756877206" stroke-width="1.0" fill="none" stroke="rgb(255, 0, 0)" stroke-opacity="1.0" stroke-linecap="round" stroke-linejoin="round"/>
  </g>
</svg>
