<?xml version="1.0" ?>
<svg xmlns="http://www.w3.org/2000/svg" version="1.1" width="256" height="256">
  <defs/>
  <g>
    <path d="M 103.87018585205078 199.68101501464844 C 101.27546576994874 202.58653497701587 99.26920124939252 204.30554583943064 104.3336954904339 204.5307147212179" stroke-width="1.0" fill="none" stroke="rgb(255, 0, 0)" stroke-opacity="1.0" stroke-linecap="round" stroke-linejoin="round"/>
    <path d="M 120.65206909179688 196.2711181640625 C 112.00597995187621 196.35865539060697 107.89573865120695 196.1841166054384 117.29715155204079 200.77013709549473" stroke-width="1.0" fill="none" stroke="rgb(255, 0, 0)" stroke-opacity="1.0" stroke-linecap="round" stroke-linejoin="round"/>
    <path d="M 139.79421997070312 150.57765197753906 C 137.11025711658348 146.24960502615556 130.46680544477326 146.92055794257496 138.42446198465666 158.9993716643467" stroke-width="1.0" fill="none" stroke="rgb(255, 0, 0)" stroke-opacity="1.0" stroke-linecap="round" stroke-linejoin="round"/>
    <path d="M 113.5157241821289 205.4871368408203 C 107.03735398501088 212.6358447033696 105.53774007586257 213.45883569061095 112.26517279844337 212.02920928936058" stroke-width="1.0" fill="none" stroke="rgb(255, 0, 0)" stroke-opacity="1.0" stroke-linecap="round" stroke-linejoin="round"/>
    <path d="M 107.08233642578125 177.81878662109375 C 94.47026790944611 181.18814835792563 94.35311509020141 181.43035378585125 99.65727713755021 187.1628310279563" stroke-width="1.0" fill="none" stroke="rgb(255, 0, 0)" stroke-opacity="1.0" stroke-linecap="round" stroke-linejoin="round"/>
    <path d="M 125.96084594726562 203.1285858154297 C 120.59427075849862 199.21867857652052 115.19141806164781 200.27575197853892 120.59496967895994 209.2476781662074" stroke-width="1.0" fill="none" stroke="rgb(255, 0, 0)" stroke-opacity="1.0" stroke-linecap="round" stroke-linejoin="round"/>
    <path d="M 134.44004821777344 202.45913696289062 C 127.27471413072337 206.59112216165437 123.55530354772787 203.129779183021 128.7666242943718 205.19874969651275" stroke-width="1.0" fill="none" stroke="rgb(255, 0, 0)" stroke-opacity="1.0" stroke-linecap="round" stroke-linejoin="round"/>
    <path d="M 177.0657958984375 107.99081420898438 C 163.48386194506497 96.94021872903087 155.33040556026353 101.65328475932445 172.11867965622497 114.66322529679026" stroke-width="1.0" fill="none" stroke="rgb(255, 0, 0)" stroke-opacity="1.0" stroke-linecap="round" stroke-linejoin="round"/>
    <path d="M 169.71084594726562 128.89768981933594 C 155.77225470128406 125.75583601166278 150.49637694335263 129.97715495620258 163.34673700293834 144.10005888816713" stroke-width="1.0" fill="none" stroke="rgb(255, 0, 0)" stroke-opacity="1.0" stroke-linecap="round" stroke-linejoin="round"/>
    <path d="M 130.73585510253906 139.898193359375 C 115.82492498699202 136.63790068303885 112.49411680569335 140.97105682734622 119.90509128210715 151.36821675325848" stroke-width="1.0" fill="none" stroke="rgb(255, 0, 0)" stroke-opacity="1.0" stroke-linecap="round" stroke-linejoin="round"/>
    <path d="M 149.55238342285156 103.29920959472656 C 138.465082129771 98.95077053069951 131.21408882225026 104.54443308828274 146.58494925619078 116.08752726187079" stroke-width="1.0" fill="none" stroke="rgb(255, 0, 0)" stroke-opacity="1.0" stroke-linecap="round" stroke-linejoin="round"/>
    <path d="M 142.43814086914062 128.0120391845703 C 120.48563754553624 119.65615871211577 117.3282535254979 125.53816794331706 129.95613113492232 137.39485393232434" stroke-width="1.0" fill="none" stroke="rgb(255, 0, 0)" stroke-opacity="1.0" stroke-linecap="round" stroke-linejoin="round"/>
    <path d="M 148.2096405029297 197.18289184570312 C 139.65598081686153 198.84397948236952 135.10106371260426 194.4724548311179 142.19890654095997 198.79031866069556" stroke-width="1.0" fill="none" stroke="rgb(255, 0, 0)" stroke-opacity="1.0" stroke-linecap="round" stroke-linejoin="round"/>
    <path d="M 116.08269500732422 95.60064697265625 C 99.57149065321693 93.8399454861884 98.57489797135301 96.69204155197089 110.61188277861328 107.01991741956179" stroke-width="1.0" fill="none" stroke="rgb(255, 0, 0)" stroke-opacity="1.0" stroke-linecap="round" stroke-linejoin="round"/>
    <path d="M 167.56309509277344 86.72998046875 C 152.98093064662942 78.17230363796469 148.17841378935697 85.85606959100068 159.81484760369617 94.81757575767456" stroke-width="1.0" fill="none" stroke="rgb(255, 0, 0)" stroke-opacity="1.0" stroke-linecap="round" stroke-linejoin="round"/>
    <path d="M 96.14657592773438 192.3594970703125 C 93.77839170523315 195.58049279721095 93.80968031809832 194.4229816793205 96.67454927714826 197.96622038949104" stroke-width="1.0" fill="none" stroke="rgb(255, 0, 0)" stroke-opacity="1.0" stroke-linecap="round" stroke-linejoin="round"/>
    <path d="M 112.61283111572266 119.35384368896484 C 99.61485049855328 119.75429366700284 94.14149894834354 124.43698435746829 106.29672900798293 131.9129516513754" stroke-width="1.0" fill="none" stroke="rgb(255, 0, 0)" stroke-opacity="1.0" stroke-linecap="round" stroke-linejoin="round"/>
    <path d="M 158.24000549316406 190.9847412109375 C 148.070607238945 190.35105813881356 147.48765642341385 192.1261235265884 152.62452474881758 193.9910412806186" stroke-width="1.0" fill="none" stroke="rgb(255, 0, 0)" stroke-opacity="1.0" stroke-linecap="round" stroke-linejoin="round"/>
    <path d="M 115.00767517089844 185.8307342529297 C 106.27548542255347 185.4865273062342 104.02773696394569 185.03886729443752 110.51929569587055 190.52893191770124" stroke-width="1.0" fill="none" stroke="rgb(255, 0, 0)" stroke-opacity="1.0" stroke-linecap="round" stroke-linejoin="round"/>
    <path d="M 150.15853881835938 141.30706787109375 C 134.09039532628736 128.82589111071246 130.04760695761766 133.8728059383251 143.11099774689285 145.81306851217215" stroke-width="1.0" fill="none" stroke="rgb(255, 0, 0)" stroke-opacity="1.0" stroke-linecap="round" stroke-linejoin="round"/>
    <path d="M 96.96707153320312 175.67578125 C 84.17653472272336 180.02275375730784 83.95165918866971 181.17427966749526 90.19243935371561 182.7317299591928" stroke-width="1.0" fill="none" stroke="rgb(255, 0, 0)" stroke-opacity="1.0" stroke-linecap="round" stroke-linejoin="round"/>
    <path d="M 145.14573669433594 77.85298156738281 C 132.0024477980843 73.33797674760686 127.50876637717118 79.73793561208625 140.5017277119807 90.02739372409388" stroke-width="1.0" fill="none" stroke="rgb(255, 0, 0)" stroke-opacity="1.0" stroke-linecap="round" stroke-linejoin="round"/>
    <path d="M 145.86758422851562 113.6717529296875 C 132.14698122645007 108.6351898041098 127.07170907432604 115.32085452495095 140.60729925008005 125.77702645182872" stroke-width="1.0" fill="none" stroke="rgb(255, 0, 0)" stroke-opacity="1.0" stroke-linecap="round" stroke-linejoin="round"/>
  </g>
</svg>
