<?xml version="1.0" ?>
<svg xmlns="http://www.w3.org/2000/svg" version="1.1" width="256" height="256">
  <defs/>
  <g>
    <path d="M 103.87018585205078 199.68101501464844 C 100.04704122084595 202.42985415464344 100.10713192871381 203.2859409180897 102.81546731717798 203.95187732650353" stroke-width="1.0" fill="none" stroke="rgb(255, 0, 0)" stroke-opacity="1.0" stroke-linecap="round" stroke-linejoin="round"/>
    <path d="M 120.65206909179688 196.2711181640625 C 115.25918143655639 196.16001339005098 112.7839160460739 195.50609694025675 119.34836147864601 197.3292331934409" stroke-width="1.0" fill="none" stroke="rgb(255, 0, 0)" stroke-opacity="1.0" stroke-linecap="round" stroke-linejoin="round"/>
    <path d="M 139.79421997070312 150.57765197753906 C 139.62076765063156 147.91375216475114 132.02559660535675 146.88135167617176 141.0703435182794 153.87016929847147" stroke-width="1.0" fill="none" stroke="rgb(255, 0, 0)" stroke-opacity="1.0" stroke-linecap="round" stroke-linejoin="round"/>
    <path d="M 113.5157241821289 205.4871368408203 C 107.72803830355336 211.04790114944504 108.83537372378127 210.9487377101117 110.51407666902595 211.9301826093679" stroke-width="1.0" fill="none" stroke="rgb(255, 0, 0)" stroke-opacity="1.0" stroke-linecap="round" stroke-linejoin="round"/>
    <path d="M 107.08233642578125 177.81878662109375 C 96.08799614278351 182.56138906723044 97.7173433387976 181.13616981635357 101.62973597696671 183.77614088818578" stroke-width="1.0" fill="none" stroke="rgb(255, 0, 0)" stroke-opacity="1.0" stroke-linecap="round" stroke-linejoin="round"/>
    <path d="M 125.96084594726562 203.1285858154297 C 122.51701026426645 200.5318220682655 120.22533501187364 200.10258188881724 123.68074267014036 204.78216958599958" stroke-width="1.0" fill="none" stroke="rgb(255, 0, 0)" stroke-opacity="1.0" stroke-linecap="round" stroke-linejoin="round"/>
    <path d="M 134.44004821777344 202.45913696289062 C 129.82662596162547 207.37172461679353 126.168446514952 204.40248140012304 132.11625274285814 206.22117844750457" stroke-width="1.0" fill="none" stroke="rgb(255, 0, 0)" stroke-opacity="1.0" stroke-linecap="round" stroke-linejoin="round"/>
    <path d="M 177.0657958984375 107.99081420898438 C 164.17175676623197 102.8806322040675 160.54149946285142 103.43034193019237 169.60403598709655 109.94621956711497" stroke-width="1.0" fill="none" stroke="rgb(255, 0, 0)" stroke-opacity="1.0" stroke-linecap="round" stroke-linejoin="round"/>
    <path d="M 169.71084594726562 128.89768981933594 C 158.1391942459618 130.43886113335162 155.2250184533624 130.1485812524367 162.8609591480189 134.91564307090638" stroke-width="1.0" fill="none" stroke="rgb(255, 0, 0)" stroke-opacity="1.0" stroke-linecap="round" stroke-linejoin="round"/>
    <path d="M 130.73585510253906 139.898193359375 C 116.82602934185041 140.66387585079016 115.80927946438476 142.92190922145022 121.61426639197043 145.51896262194134" stroke-width="1.0" fill="none" stroke="rgb(255, 0, 0)" stroke-opacity="1.0" stroke-linecap="round" stroke-linejoin="round"/>
    <path d="M 149.55238342285156 103.29920959472656 C 142.79512163096118 105.58126250266912 136.81226196372975 106.44328495977322 146.74445319295836 111.0361366139826" stroke-width="1.0" fill="none" stroke="rgb(255, 0, 0)" stroke-opacity="1.0" stroke-linecap="round" stroke-linejoin="round"/>
    <path d="M 142.43814086914062 128.0120391845703 C 124.46205508704014 125.52255251666594 122.4966933906102 127.35064582999385 131.57809463589888 131.8211296624574" stroke-width="1.0" fill="none" stroke="rgb(255, 0, 0)" stroke-opacity="1.0" stroke-linecap="round" stroke-linejoin="round"/>
    <path d="M 148.2096405029297 197.18289184570312 C 141.90190052129878 198.0921730444003 138.02793310499928 194.8652496786063 144.89144933232654 199.3029714154792" stroke-width="1.0" fill="none" stroke="rgb(255, 0, 0)" stroke-opacity="1.0" stroke-linecap="round" stroke-linejoin="round"/>
    <path d="M 116.08269500732422 95.60064697265625 C 103.5694545585514 99.618550947309 102.53899785538621 98.43698111762946 109.4747062649414 100.96301119626467" stroke-width="1.0" fill="none" stroke="rgb(255, 0, 0)" stroke-opacity="1.0" stroke-linecap="round" stroke-linejoin="round"/>
    <path d="M 167.56309509277344 86.72998046875 C 157.27924283382424 85.5509907812905 153.2760547805679 88.96785351271927 162.12078346337634 91.97370607154785" stroke-width="1.0" fill="none" stroke="rgb(255, 0, 0)" stroke-opacity="1.0" stroke-linecap="round" stroke-linejoin="round"/>
    <path d="M 96.14657592773438 192.3594970703125 C 91.51914511747985 195.89123112232997 93.44488749430681 194.85046547639385 94.87911486180784 196.6330294715223" stroke-width="1.0" fill="none" stroke="rgb(255, 0, 0)" stroke-opacity="1.0" stroke-linecap="round" stroke-linejoin="round"/>
    <path d="M 112.61283111572266 119.35384368896484 C 102.22625396382428 125.13214926592939 101.15232887388065 125.68892508470218 106.70868579509231 128.62183779792082" stroke-width="1.0" fill="none" stroke="rgb(255, 0, 0)" stroke-opacity="1.0" stroke-linecap="round" stroke-linejoin="round"/>
    <path d="M 158.24000549316406 190.9847412109375 C 149.1650429307785 188.44068546434838 150.12834627326737 189.68762359906765 155.2817441587602 193.65676174341766" stroke-width="1.0" fill="none" stroke="rgb(255, 0, 0)" stroke-opacity="1.0" stroke-linecap="round" stroke-linejoin="round"/>
    <path d="M 115.00767517089844 185.8307342529297 C 106.94798221820777 187.26838411132033 107.53275567503577 184.5515121218034 111.83268404349629 188.48127180532026" stroke-width="1.0" fill="none" stroke="rgb(255, 0, 0)" stroke-opacity="1.0" stroke-linecap="round" stroke-linejoin="round"/>
    <path d="M 150.15853881835938 141.30706787109375 C 140.80151116338453 131.7340036366524 135.9599099285039 134.64768730124013 143.82486588806717 140.29147446462576" stroke-width="1.0" fill="none" stroke="rgb(255, 0, 0)" stroke-opacity="1.0" stroke-linecap="round" stroke-linejoin="round"/>
    <path d="M 96.96707153320312 175.67578125 C 86.04605491010129 179.43056015379221 88.40500353376248 179.09439466154433 92.31477621818705 179.72534415597013" stroke-width="1.0" fill="none" stroke="rgb(255, 0, 0)" stroke-opacity="1.0" stroke-linecap="round" stroke-linejoin="round"/>
    <path d="M 145.14573669433594 77.85298156738281 C 141.26589412910846 78.18957608327733 133.89322587271562 79.59192282903571 144.0330815432719 83.69654693759486" stroke-width="1.0" fill="none" stroke="rgb(255, 0, 0)" stroke-opacity="1.0" stroke-linecap="round" stroke-linejoin="round"/>
    <path d="M 145.86758422851562 113.6717529296875 C 134.57679079676257 114.14336163071083 131.86001721794176 115.68786786017891 139.179820936634 119.22603300929332" stroke-width="1.0" fill="none" stroke="rgb(255, 0, 0)" stroke-opacity="1.0" stroke-linecap="round" stroke-linejoin="round"/>
  </g>
</svg>
