<?xml version="1.0" ?>
<svg xmlns="http://www.w3.org/2000/svg" version="1.1" width="256" height="256">
  <defs/>
  <g>
    <path d="M 103.87018585205078 199.68101501464844 C 102.2098459436319 201.8011934757799 102.49107083729078 201.988955291869 103.49634941346856 200.54478660298898" stroke-width="1.0" fill="none" stroke="rgb(255, 0, 0)" stroke-opacity="1.0" stroke-linecap="round" stroke-linejoin="round"/>
    <path d="M 120.65206909179688 196.2711181640625 C 121.47333675290923 198.78407604740724 121.10795848553465 198.0052905490176 120.6102294898524 198.30452086929844" stroke-width="1.0" fill="none" stroke="rgb(255, 0, 0)" stroke-opacity="1.0" stroke-linecap="round" stroke-linejoin="round"/>
    <path d="M 139.79421997070312 150.57765197753906 C 143.1611692583834 152.1280740164815 140.67383365493637 150.50764896381472 141.6551685571893 151.81923760634805" stroke-width="1.0" fill="none" stroke="rgb(255, 0, 0)" stroke-opacity="1.0" stroke-linecap="round" stroke-linejoin="round"/>
    <path d="M 113.5157241821289 205.4871368408203 C 111.38622354715993 207.64033984725998 111.98851641443984 208.71034273444945 111.69478317003303 208.76210633258873" stroke-width="1.0" fill="none" stroke="rgb(255, 0, 0)" stroke-opacity="1.0" stroke-linecap="round" stroke-linejoin="round"/>
    <path d="M 107.08233642578125 177.81878662109375 C 104.69618644086395 182.06175956970236 105.75068391210846 181.14475026259686 105.06847122362504 180.67319508358983" stroke-width="1.0" fill="none" stroke="rgb(255, 0, 0)" stroke-opacity="1.0" stroke-linecap="round" stroke-linejoin="round"/>
    <path d="M 125.96084594726562 203.1285858154297 C 127.94478028284402 204.3798024483238 127.3559199670891 203.2514185611233 126.73601757391462 204.55687273102674" stroke-width="1.0" fill="none" stroke="rgb(255, 0, 0)" stroke-opacity="1.0" stroke-linecap="round" stroke-linejoin="round"/>
    <path d="M 134.44004821777344 202.45913696289062 C 136.13513769563426 206.55074073007478 135.13687006031256 206.05507000600377 135.15272971257707 205.04255405594878" stroke-width="1.0" fill="none" stroke="rgb(255, 0, 0)" stroke-opacity="1.0" stroke-linecap="round" stroke-linejoin="round"/>
    <path d="M 177.0657958984375 107.99081420898438 C 174.29045631686063 105.79090456391552 173.89269789768113 105.6319846818861 175.07885219021392 106.93139708405222" stroke-width="1.0" fill="none" stroke="rgb(255, 0, 0)" stroke-opacity="1.0" stroke-linecap="round" stroke-linejoin="round"/>
    <path d="M 169.71084594726562 128.89768981933594 C 167.7216213900124 129.3956769721654 166.60972876525204 128.81021038536318 166.1480947490626 130.1015468585193" stroke-width="1.0" fill="none" stroke="rgb(255, 0, 0)" stroke-opacity="1.0" stroke-linecap="round" stroke-linejoin="round"/>
    <path d="M 130.73585510253906 139.898193359375 C 127.85975555721296 139.4551344541246 126.7892115341632 138.94235438946856 127.68019032118491 138.35003471399762" stroke-width="1.0" fill="none" stroke="rgb(255, 0, 0)" stroke-opacity="1.0" stroke-linecap="round" stroke-linejoin="round"/>
    <path d="M 149.55238342285156 103.29920959472656 C 149.18331073814082 103.73054218649747 150.21908553922643 103.99301156518857 149.06904691577864 103.48114505578845" stroke-width="1.0" fill="none" stroke="rgb(255, 0, 0)" stroke-opacity="1.0" stroke-linecap="round" stroke-linejoin="round"/>
    <path d="M 142.43814086914062 128.0120391845703 C 138.9330016374094 127.25709715148497 139.42763735652207 127.57744910295642 139.98644748776655 127.54411582416623" stroke-width="1.0" fill="none" stroke="rgb(255, 0, 0)" stroke-opacity="1.0" stroke-linecap="round" stroke-linejoin="round"/>
    <path d="M 148.2096405029297 197.18289184570312 C 149.65685748197689 200.8280388161708 148.11607056773445 197.43758822988917 148.56512847551693 199.11171501155616" stroke-width="1.0" fill="none" stroke="rgb(255, 0, 0)" stroke-opacity="1.0" stroke-linecap="round" stroke-linejoin="round"/>
    <path d="M 116.08269500732422 95.60064697265625 C 111.94775093382606 97.12279527485417 111.87104817887254 96.51456401338523 113.80397257467956 96.07392036021655" stroke-width="1.0" fill="none" stroke="rgb(255, 0, 0)" stroke-opacity="1.0" stroke-linecap="round" stroke-linejoin="round"/>
    <path d="M 167.56309509277344 86.72998046875 C 165.83675416347512 84.92312665889975 165.1904937435043 84.47564550872147 165.4274999054845 85.0384483982843" stroke-width="1.0" fill="none" stroke="rgb(255, 0, 0)" stroke-opacity="1.0" stroke-linecap="round" stroke-linejoin="round"/>
    <path d="M 96.14657592773438 192.3594970703125 C 94.56354664393096 194.41986543209865 95.57855067179705 193.46447020757213 94.98443603070737 194.03261257279487" stroke-width="1.0" fill="none" stroke="rgb(255, 0, 0)" stroke-opacity="1.0" stroke-linecap="round" stroke-linejoin="round"/>
    <path d="M 112.61283111572266 119.35384368896484 C 109.23624727856732 119.73982511632077 109.80112805486515 119.23270832472245 109.90338746669265 119.32648560346256" stroke-width="1.0" fill="none" stroke="rgb(255, 0, 0)" stroke-opacity="1.0" stroke-linecap="round" stroke-linejoin="round"/>
    <path d="M 158.24000549316406 190.9847412109375 C 157.3572750627365 191.77274353643853 157.32267118390808 190.30631802369686 157.06113830854048 190.7600895094785" stroke-width="1.0" fill="none" stroke="rgb(255, 0, 0)" stroke-opacity="1.0" stroke-linecap="round" stroke-linejoin="round"/>
    <path d="M 115.00767517089844 185.8307342529297 C 112.14181795352881 190.74757052699263 113.58177882643348 189.2415503259965 113.7513200078899 188.22138434842634" stroke-width="1.0" fill="none" stroke="rgb(255, 0, 0)" stroke-opacity="1.0" stroke-linecap="round" stroke-linejoin="round"/>
    <path d="M 150.15853881835938 141.30706787109375 C 148.92259633031568 139.03559574823993 148.64967359370317 139.6364787669994 149.10325140804855 139.7009629041857" stroke-width="1.0" fill="none" stroke="rgb(255, 0, 0)" stroke-opacity="1.0" stroke-linecap="round" stroke-linejoin="round"/>
    <path d="M 96.96707153320312 175.67578125 C 94.69264514295041 177.87756518728526 95.7810824970422 176.7180874124751 95.0249944093339 177.46639058465055" stroke-width="1.0" fill="none" stroke="rgb(255, 0, 0)" stroke-opacity="1.0" stroke-linecap="round" stroke-linejoin="round"/>
    <path d="M 145.14573669433594 77.85298156738281 C 147.40450782997516 77.44461851701604 145.6772893311583 77.30537415492911 145.68352432233607 77.08819338239238" stroke-width="1.0" fill="none" stroke="rgb(255, 0, 0)" stroke-opacity="1.0" stroke-linecap="round" stroke-linejoin="round"/>
    <path d="M 145.86758422851562 113.6717529296875 C 143.60754393244372 113.48571962383674 142.84716431076097 112.82198772845742 143.81644241185373 113.23619282961154" stroke-width="1.0" fill="none" stroke="rgb(255, 0, 0)" stroke-opacity="1.0" stroke-linecap="round" stroke-linejoin="round"/>
  </g>
</svg>
