<?xml version="1.0" ?>
<svg xmlns="http://www.w3.org/2000/svg" version="1.1" width="256" height="256">
  <defs/>
  <g>
    <path d="M 103.87018585205078 199.68101501464844 C 97.3929937316797 206.74533724790516 98.08458182266523 206.99745467579538 101.50892992742273 203.57542678786828" stroke-width="1.0" fill="none" stroke="rgb(255, 0, 0)" stroke-opacity="1.0" stroke-linecap="round" stroke-linejoin="round"/>
    <path d="M 120.65206909179688 196.2711181640625 C 119.11437064077239 199.42638380573854 118.6870549220352 197.6221095731036 120.00248091061852 197.1990521789031" stroke-width="1.0" fill="none" stroke="rgb(255, 0, 0)" stroke-opacity="1.0" stroke-linecap="round" stroke-linejoin="round"/>
    <path d="M 139.79421997070312 150.57765197753906 C 144.21687718990196 152.1486501359044 139.24146507840973 148.68565806407307 142.32697846891722 151.44123907548334" stroke-width="1.0" fill="none" stroke="rgb(255, 0, 0)" stroke-opacity="1.0" stroke-linecap="round" stroke-linejoin="round"/>
    <path d="M 113.5157241821289 205.4871368408203 C 106.95166253298451 212.50517034118698 108.2100733163716 212.2956863337689 109.3466584275251 211.67591682415062" stroke-width="1.0" fill="none" stroke="rgb(255, 0, 0)" stroke-opacity="1.0" stroke-linecap="round" stroke-linejoin="round"/>
    <path d="M 107.08233642578125 177.81878662109375 C 100.20163549748932 185.63721142059347 101.65071440584472 184.13015904555584 103.62085393122086 182.22591324612645" stroke-width="1.0" fill="none" stroke="rgb(255, 0, 0)" stroke-opacity="1.0" stroke-linecap="round" stroke-linejoin="round"/>
    <path d="M 125.96084594726562 203.1285858154297 C 126.96174328790994 203.50043551402433 125.96825941899816 201.14375570454447 125.94329916901061 202.97669011908445" stroke-width="1.0" fill="none" stroke="rgb(255, 0, 0)" stroke-opacity="1.0" stroke-linecap="round" stroke-linejoin="round"/>
    <path d="M 134.44004821777344 202.45913696289062 C 134.20974903162707 208.3750538938321 132.44036242758017 206.52270015393773 133.8566482888176 205.3256336801248" stroke-width="1.0" fill="none" stroke="rgb(255, 0, 0)" stroke-opacity="1.0" stroke-linecap="round" stroke-linejoin="round"/>
    <path d="M 177.0657958984375 107.99081420898438 C 169.49039699831815 105.94556526566723 169.36668619228257 104.99327489833202 174.83183492584777 107.19327342873301" stroke-width="1.0" fill="none" stroke="rgb(255, 0, 0)" stroke-opacity="1.0" stroke-linecap="round" stroke-linejoin="round"/>
    <path d="M 169.71084594726562 128.89768981933594 C 161.83319401326526 130.90224218536883 161.15938658690732 128.93998687435277 166.00988898238475 131.0919376361072" stroke-width="1.0" fill="none" stroke="rgb(255, 0, 0)" stroke-opacity="1.0" stroke-linecap="round" stroke-linejoin="round"/>
    <path d="M 130.73585510253906 139.898193359375 C 122.87370495143904 139.54993057524504 122.66891958584472 140.19623790029658 124.72247361776999 138.73605966593243" stroke-width="1.0" fill="none" stroke="rgb(255, 0, 0)" stroke-opacity="1.0" stroke-linecap="round" stroke-linejoin="round"/>
    <path d="M 149.55238342285156 103.29920959472656 C 145.17653318339038 103.88798305749776 144.55347051704396 104.20770189283292 148.86255252481413 104.60654424299567" stroke-width="1.0" fill="none" stroke="rgb(255, 0, 0)" stroke-opacity="1.0" stroke-linecap="round" stroke-linejoin="round"/>
    <path d="M 142.43814086914062 128.0120391845703 C 133.25088393683262 126.83141186496306 133.45160462260483 126.53451644356883 138.0043307885478 128.21217442816823" stroke-width="1.0" fill="none" stroke="rgb(255, 0, 0)" stroke-opacity="1.0" stroke-linecap="round" stroke-linejoin="round"/>
    <path d="M 148.2096405029297 197.18289184570312 C 144.4149835024084 198.62441003771315 142.5434312663152 196.1371628494208 146.52762591847767 197.82293897147895" stroke-width="1.0" fill="none" stroke="rgb(255, 0, 0)" stroke-opacity="1.0" stroke-linecap="round" stroke-linejoin="round"/>
    <path d="M 116.08269500732422 95.60064697265625 C 108.52869356459388 96.88161413967656 108.62772580643602 94.99630353441184 113.09440812727661 95.68877196163838" stroke-width="1.0" fill="none" stroke="rgb(255, 0, 0)" stroke-opacity="1.0" stroke-linecap="round" stroke-linejoin="round"/>
    <path d="M 167.56309509277344 86.72998046875 C 161.41535838481911 84.44180079410788 159.97773257979276 85.48473295207322 164.48138465012866 85.32029182212769" stroke-width="1.0" fill="none" stroke="rgb(255, 0, 0)" stroke-opacity="1.0" stroke-linecap="round" stroke-linejoin="round"/>
    <path d="M 96.14657592773438 192.3594970703125 C 91.56562863417297 197.63009912045314 93.06834826396013 197.39087337243572 93.61955880673887 196.18313599694343" stroke-width="1.0" fill="none" stroke="rgb(255, 0, 0)" stroke-opacity="1.0" stroke-linecap="round" stroke-linejoin="round"/>
    <path d="M 112.61283111572266 119.35384368896484 C 105.50437019002057 121.81375460497968 106.60354795575931 121.68389564477603 109.7973624861476 122.18412989691983" stroke-width="1.0" fill="none" stroke="rgb(255, 0, 0)" stroke-opacity="1.0" stroke-linecap="round" stroke-linejoin="round"/>
    <path d="M 158.24000549316406 190.9847412109375 C 150.56146531694793 188.8366596235891 151.6131499498726 189.41508159925075 156.60000292111982 191.26404795824615" stroke-width="1.0" fill="none" stroke="rgb(255, 0, 0)" stroke-opacity="1.0" stroke-linecap="round" stroke-linejoin="round"/>
    <path d="M 115.00767517089844 185.8307342529297 C 110.08741941684669 191.5269112710112 111.43014794798499 188.8655441995927 113.75914287909809 187.30474883512068" stroke-width="1.0" fill="none" stroke="rgb(255, 0, 0)" stroke-opacity="1.0" stroke-linecap="round" stroke-linejoin="round"/>
    <path d="M 150.15853881835938 141.30706787109375 C 145.98141180959425 136.90769395571368 144.47805548972215 136.49890695532338 148.82324452251999 139.0815404684252" stroke-width="1.0" fill="none" stroke="rgb(255, 0, 0)" stroke-opacity="1.0" stroke-linecap="round" stroke-linejoin="round"/>
    <path d="M 96.96707153320312 175.67578125 C 90.84383351651609 181.03538040525706 92.2792434553323 180.2738656774745 93.62367991233988 179.53873274201445" stroke-width="1.0" fill="none" stroke="rgb(255, 0, 0)" stroke-opacity="1.0" stroke-linecap="round" stroke-linejoin="round"/>
    <path d="M 145.14573669433594 77.85298156738281 C 143.8467223189583 77.85047710076438 140.51101323386064 77.28970248449225 144.9337035237006 78.35984268344447" stroke-width="1.0" fill="none" stroke="rgb(255, 0, 0)" stroke-opacity="1.0" stroke-linecap="round" stroke-linejoin="round"/>
    <path d="M 145.86758422851562 113.6717529296875 C 138.63150023127184 113.51687576142238 138.45402184898424 112.74314127383705 143.0075568375129 114.19883469462657" stroke-width="1.0" fill="none" stroke="rgb(255, 0, 0)" stroke-opacity="1.0" stroke-linecap="round" stroke-linejoin="round"/>
  </g>
</svg>
