<?xml version="1.0" ?>
<svg xmlns="http://www.w3.org/2000/svg" version="1.1" width="256" height="256">
  <defs/>
  <g>
    <path d="M 103.87018585205078 199.68101501464844 C 106.69246940154054 195.52936100965442 97.64722725799848 202.6866624680775 103.13403363950464 206.561338157192" stroke-width="1.0" fill="none" stroke="rgb(255, 0, 0)" stroke-opacity="1.0" stroke-linecap="round" stroke-linejoin="round"/>
    <path d="M 120.65206909179688 196.2711181640625 C 114.13899176980834 191.75367457913026 108.84392266457365 192.55894176266352 116.34186075766823 207.1247518301444" stroke-width="1.0" fill="none" stroke="rgb(255, 0, 0)" stroke-opacity="1.0" stroke-linecap="round" stroke-linejoin="round"/>
    <path d="M 139.79421997070312 150.57765197753906 C 134.57442351940026 133.7289565466939 126.6167917118631 147.45387169379566 135.62017133238157 163.8645364211216" stroke-width="1.0" fill="none" stroke="rgb(255, 0, 0)" stroke-opacity="1.0" stroke-linecap="round" stroke-linejoin="round"/>
    <path d="M 113.5157241821289 205.4871368408203 C 106.54218100756337 210.1625223118596 104.13544353274123 212.13918694793517 112.55514897804314 212.56599489193016" stroke-width="1.0" fill="none" stroke="rgb(255, 0, 0)" stroke-opacity="1.0" stroke-linecap="round" stroke-linejoin="round"/>
    <path d="M 107.08233642578125 177.81878662109375 C 93.66080440846955 179.26081261878988 91.17409134752563 179.68436577449108 100.23892548731217 191.60239859387426" stroke-width="1.0" fill="none" stroke="rgb(255, 0, 0)" stroke-opacity="1.0" stroke-linecap="round" stroke-linejoin="round"/>
    <path d="M 125.96084594726562 203.1285858154297 C 126.57305114733072 188.54086170869215 114.8683208326439 200.24634495415538 119.99757473572264 215.2569078262416" stroke-width="1.0" fill="none" stroke="rgb(255, 0, 0)" stroke-opacity="1.0" stroke-linecap="round" stroke-linejoin="round"/>
    <path d="M 134.44004821777344 202.45913696289062 C 127.1558662837385 203.99517036607637 125.233556721556 204.18873580609838 128.39481576547166 211.8169461839395" stroke-width="1.0" fill="none" stroke="rgb(255, 0, 0)" stroke-opacity="1.0" stroke-linecap="round" stroke-linejoin="round"/>
    <path d="M 177.0657958984375 107.99081420898438 C 159.6874647358975 92.11144809151867 147.5718129546727 105.39197203616466 161.5590850250299 125.07845700150217" stroke-width="1.0" fill="none" stroke="rgb(255, 0, 0)" stroke-opacity="1.0" stroke-linecap="round" stroke-linejoin="round"/>
    <path d="M 169.71084594726562 128.89768981933594 C 152.13316893163073 113.63218259979755 141.4725255486993 130.96587441955097 155.97763500174815 149.80516371604799" stroke-width="1.0" fill="none" stroke="rgb(255, 0, 0)" stroke-opacity="1.0" stroke-linecap="round" stroke-linejoin="round"/>
    <path d="M 130.73585510253906 139.898193359375 C 110.6640239173509 124.26294192945304 99.25365927090331 141.27827978972567 115.31965350744895 162.67137265230633" stroke-width="1.0" fill="none" stroke="rgb(255, 0, 0)" stroke-opacity="1.0" stroke-linecap="round" stroke-linejoin="round"/>
    <path d="M 149.55238342285156 103.29920959472656 C 135.36056037836718 88.83027902603033 124.26626815879811 107.30339929578702 137.11109280706359 124.87801169027655" stroke-width="1.0" fill="none" stroke="rgb(255, 0, 0)" stroke-opacity="1.0" stroke-linecap="round" stroke-linejoin="round"/>
    <path d="M 142.43814086914062 128.0120391845703 C 116.47627437109776 107.89434364100981 107.669951218369 127.05946742470897 122.91837802975874 147.46111045545666" stroke-width="1.0" fill="none" stroke="rgb(255, 0, 0)" stroke-opacity="1.0" stroke-linecap="round" stroke-linejoin="round"/>
    <path d="M 148.2096405029297 197.18289184570312 C 140.83324169256343 196.10698450060377 138.252764686115 198.52113167952945 142.5098510981499 205.90699630256415" stroke-width="1.0" fill="none" stroke="rgb(255, 0, 0)" stroke-opacity="1.0" stroke-linecap="round" stroke-linejoin="round"/>
    <path d="M 116.08269500732422 95.60064697265625 C 96.09684313124427 81.59875314533757 90.15909406205125 95.49514622827714 101.25032291075439 115.9127167970032" stroke-width="1.0" fill="none" stroke="rgb(255, 0, 0)" stroke-opacity="1.0" stroke-linecap="round" stroke-linejoin="round"/>
    <path d="M 167.56309509277344 86.72998046875 C 148.54503281948098 67.8444351763558 138.07338754423978 87.38591250415146 150.88292659844714 104.06465656059204" stroke-width="1.0" fill="none" stroke="rgb(255, 0, 0)" stroke-opacity="1.0" stroke-linecap="round" stroke-linejoin="round"/>
    <path d="M 96.14657592773438 192.3594970703125 C 97.72355137892394 190.59270328553035 89.46155152247454 194.02292436349407 92.67430901082517 204.42476464379402" stroke-width="1.0" fill="none" stroke="rgb(255, 0, 0)" stroke-opacity="1.0" stroke-linecap="round" stroke-linejoin="round"/>
    <path d="M 112.61283111572266 119.35384368896484 C 95.29160545003033 109.95184044711225 84.93660392881229 123.74491768800418 97.97355882289382 140.86011046485197" stroke-width="1.0" fill="none" stroke="rgb(255, 0, 0)" stroke-opacity="1.0" stroke-linecap="round" stroke-linejoin="round"/>
    <path d="M 158.24000549316406 190.9847412109375 C 148.2990933000412 185.01387782236534 148.39495355781327 193.29460022737118 153.25640741635908 199.84717641054718" stroke-width="1.0" fill="none" stroke="rgb(255, 0, 0)" stroke-opacity="1.0" stroke-linecap="round" stroke-linejoin="round"/>
    <path d="M 115.00767517089844 185.8307342529297 C 105.36880150073951 182.80259324351485 100.27114516707069 185.4319358166524 110.18044901236836 197.28946095899153" stroke-width="1.0" fill="none" stroke="rgb(255, 0, 0)" stroke-opacity="1.0" stroke-linecap="round" stroke-linejoin="round"/>
    <path d="M 150.15853881835938 141.30706787109375 C 132.24673115697584 114.65696773272174 120.1100802547368 135.9563282581188 137.48128468842117 150.8919688493914" stroke-width="1.0" fill="none" stroke="rgb(255, 0, 0)" stroke-opacity="1.0" stroke-linecap="round" stroke-linejoin="round"/>
    <path d="M 96.96707153320312 175.67578125 C 83.44464595166623 176.70494393713267 80.82992075483182 180.0598330274806 90.27531889702006 188.00003144616178" stroke-width="1.0" fill="none" stroke="rgb(255, 0, 0)" stroke-opacity="1.0" stroke-linecap="round" stroke-linejoin="round"/>
    <path d="M 145.14573669433594 77.85298156738281 C 123.77405805809406 62.195933157061205 118.53904744406572 80.10874564397712 128.41614450198924 98.3535436645846" stroke-width="1.0" fill="none" stroke="rgb(255, 0, 0)" stroke-opacity="1.0" stroke-linecap="round" stroke-linejoin="round"/>
    <path d="M 145.86758422851562 113.6717529296875 C 127.78090380335436 97.3723404732077 117.79148522789049 116.20775649962899 131.24812356801218 134.6109059226539" stroke-width="1.0" fill="none" stroke="rgb(255, 0, 0)" stroke-opacity="1.0" stroke-linecap="round" stroke-linejoin="round"/>
  </g>
</svg>
