<?xml version="1.0" ?>
<svg xmlns="http://www.w3.org/2000/svg" version="1.1" width="256" height="256">
  <defs/>
  <g>
    <path d="M 103.87018585205078 199.68101501464844 C 107.70962361830689 194.22827267652454 97.8168043797331 202.5642748204487 104.031234939172 206.07941553069665" stroke-width="1.0" fill="none" stroke="rgb(255, 0, 0)" stroke-opacity="1.0" stroke-linecap="round" stroke-linejoin="round"/>
    <path d="M 120.65206909179688 196.2711181640625 C 112.19444220926147 192.72150261448488 107.78291993325041 192.92393628857295 116.37568949301979 207.4409787893729" stroke-width="1.0" fill="none" stroke="rgb(255, 0, 0)" stroke-opacity="1.0" stroke-linecap="round" stroke-linejoin="round"/>
    <path d="M 139.79421997070312 150.57765197753906 C 133.22271749141564 134.77041276922807 124.36495398145539 149.04511794108723 132.97966220381102 164.77835191947366" stroke-width="1.0" fill="none" stroke="rgb(255, 0, 0)" stroke-opacity="1.0" stroke-linecap="round" stroke-linejoin="round"/>
    <path d="M 113.5157241821289 205.4871368408203 C 105.75997637957265 210.05856465881394 105.23786624697463 211.5592475825482 113.59952797393852 212.34820190410667" stroke-width="1.0" fill="none" stroke="rgb(255, 0, 0)" stroke-opacity="1.0" stroke-linecap="round" stroke-linejoin="round"/>
    <path d="M 107.08233642578125 177.81878662109375 C 93.97936691609894 177.70438919311545 92.34049988634399 176.91971924433972 101.1628423040236 189.40139075085668" stroke-width="1.0" fill="none" stroke="rgb(255, 0, 0)" stroke-opacity="1.0" stroke-linecap="round" stroke-linejoin="round"/>
    <path d="M 125.96084594726562 203.1285858154297 C 124.71108954416604 189.30788098054273 112.93696535626451 201.76654937901347 119.68203537567625 216.35890615540418" stroke-width="1.0" fill="none" stroke="rgb(255, 0, 0)" stroke-opacity="1.0" stroke-linecap="round" stroke-linejoin="round"/>
    <path d="M 134.44004821777344 202.45913696289062 C 126.19080318864573 203.300865363387 124.18923566137533 202.5453243411092 127.58746083840867 211.39071861435943" stroke-width="1.0" fill="none" stroke="rgb(255, 0, 0)" stroke-opacity="1.0" stroke-linecap="round" stroke-linejoin="round"/>
    <path d="M 177.0657958984375 107.99081420898438 C 161.03529455462308 89.02481917763927 147.99229559017076 102.95666477183666 160.20880807800842 124.90126431351389" stroke-width="1.0" fill="none" stroke="rgb(255, 0, 0)" stroke-opacity="1.0" stroke-linecap="round" stroke-linejoin="round"/>
    <path d="M 169.71084594726562 128.89768981933594 C 152.60903524937976 112.09602594543964 141.71592993712704 128.76128897164352 153.08409175833995 149.90494475242494" stroke-width="1.0" fill="none" stroke="rgb(255, 0, 0)" stroke-opacity="1.0" stroke-linecap="round" stroke-linejoin="round"/>
    <path d="M 130.73585510253906 139.898193359375 C 111.97182421031965 124.44622954999747 100.63251020779296 141.92811144236697 114.04625892279319 163.63994145418621" stroke-width="1.0" fill="none" stroke="rgb(255, 0, 0)" stroke-opacity="1.0" stroke-linecap="round" stroke-linejoin="round"/>
    <path d="M 149.55238342285156 103.29920959472656 C 135.60561939173388 86.1506249046314 124.7710689553069 105.35551616666714 135.4119732391925 124.61138723959296" stroke-width="1.0" fill="none" stroke="rgb(255, 0, 0)" stroke-opacity="1.0" stroke-linecap="round" stroke-linejoin="round"/>
    <path d="M 142.43814086914062 128.0120391845703 C 117.68943965430088 107.50924232265044 108.28263356089829 126.23842643674053 121.61879268735152 147.88887344068615" stroke-width="1.0" fill="none" stroke="rgb(255, 0, 0)" stroke-opacity="1.0" stroke-linecap="round" stroke-linejoin="round"/>
    <path d="M 148.2096405029297 197.18289184570312 C 140.44971012212886 195.5243049904872 137.45068262434742 197.11166537564446 141.5939794779717 206.23861937995673" stroke-width="1.0" fill="none" stroke="rgb(255, 0, 0)" stroke-opacity="1.0" stroke-linecap="round" stroke-linejoin="round"/>
    <path d="M 116.08269500732422 95.60064697265625 C 95.88107431715736 83.39039342701481 89.89240285416551 97.2147624849314 99.9869190182373 115.78779118359988" stroke-width="1.0" fill="none" stroke="rgb(255, 0, 0)" stroke-opacity="1.0" stroke-linecap="round" stroke-linejoin="round"/>
    <path d="M 167.56309509277344 86.72998046875 C 147.75092347499856 63.4475903124642 137.565205018605 84.19207593436539 149.2984405907567 103.84285098808228" stroke-width="1.0" fill="none" stroke="rgb(255, 0, 0)" stroke-opacity="1.0" stroke-linecap="round" stroke-linejoin="round"/>
    <path d="M 96.14657592773438 192.3594970703125 C 99.15375076361327 187.79118758709743 91.11642775462175 192.23108842957035 93.7147493317938 203.2458543883619" stroke-width="1.0" fill="none" stroke="rgb(255, 0, 0)" stroke-opacity="1.0" stroke-linecap="round" stroke-linejoin="round"/>
    <path d="M 112.61283111572266 119.35384368896484 C 96.44746825825787 110.28193764559857 86.06053199888065 124.3830531212012 96.52671090724441 141.8664657504965" stroke-width="1.0" fill="none" stroke="rgb(255, 0, 0)" stroke-opacity="1.0" stroke-linecap="round" stroke-linejoin="round"/>
    <path d="M 158.24000549316406 190.9847412109375 C 148.29799275988006 184.87436385294396 147.97717649635086 191.80288801480862 151.8105699186479 200.59191975771515" stroke-width="1.0" fill="none" stroke="rgb(255, 0, 0)" stroke-opacity="1.0" stroke-linecap="round" stroke-linejoin="round"/>
    <path d="M 115.00767517089844 185.8307342529297 C 105.4128564857859 182.3987453106993 101.07764655562049 183.373481154091 110.76497793540302 196.03405648664045" stroke-width="1.0" fill="none" stroke="rgb(255, 0, 0)" stroke-opacity="1.0" stroke-linecap="round" stroke-linejoin="round"/>
    <path d="M 150.15853881835938 141.30706787109375 C 131.5721858688899 115.98066196184772 120.37733985251512 137.04617343863026 136.03076798767654 151.59851467916434" stroke-width="1.0" fill="none" stroke="rgb(255, 0, 0)" stroke-opacity="1.0" stroke-linecap="round" stroke-linejoin="round"/>
    <path d="M 96.96707153320312 175.67578125 C 83.68652732221067 174.60924999124796 81.91606138746121 178.59320185339308 90.67440108085795 186.86832520836882" stroke-width="1.0" fill="none" stroke="rgb(255, 0, 0)" stroke-opacity="1.0" stroke-linecap="round" stroke-linejoin="round"/>
    <path d="M 145.14573669433594 77.85298156738281 C 123.83075018150714 60.86990910158025 118.22248097678056 79.23664862859626 127.04683984500682 98.68882312930629" stroke-width="1.0" fill="none" stroke="rgb(255, 0, 0)" stroke-opacity="1.0" stroke-linecap="round" stroke-linejoin="round"/>
    <path d="M 145.86758422851562 113.6717529296875 C 129.08759401941882 95.89579895404266 118.334030546494 114.9028383296537 129.45430986256784 134.51619271159433" stroke-width="1.0" fill="none" stroke="rgb(255, 0, 0)" stroke-opacity="1.0" stroke-linecap="round" stroke-linejoin="round"/>
  </g>
</svg>
