<?xml version="1.0" ?>
<svg xmlns="http://www.w3.org/2000/svg" version="1.1" width="256" height="256">
  <defs/>
  <g>
    <path d="M 103.87018585205078 199.68101501464844 C 103.87295941847779 199.68271327024402 103.86895081451704 199.68124297535593 103.86862989194604 199.68158981277062" stroke-width="1.0" fill="none" stroke="rgb(255, 0, 0)" stroke-opacity="1.0" stroke-linecap="round" stroke-linejoin="round"/>
    <path d="M 120.65206909179688 196.2711181640625 C 120.656852182406 196.2674213175641 120.6585646170883 196.26606361172358 120.65845297415993 196.2630937338309" stroke-width="1.0" fill="none" stroke="rgb(255, 0, 0)" stroke-opacity="1.0" stroke-linecap="round" stroke-linejoin="round"/>
    <path d="M 139.79421997070312 150.57765197753906 C 139.79588195445885 150.57492860785112 139.7954625950418 150.57033583182667 139.8002054929956 150.57021059256937" stroke-width="1.0" fill="none" stroke="rgb(255, 0, 0)" stroke-opacity="1.0" stroke-linecap="round" stroke-linejoin="round"/>
    <path d="M 113.5157241821289 205.4871368408203 C 113.51534032076528 205.4892783123784 113.51449760226028 205.49315842925841 113.50973053674751 205.49649349193626" stroke-width="1.0" fill="none" stroke="rgb(255, 0, 0)" stroke-opacity="1.0" stroke-linecap="round" stroke-linejoin="round"/>
    <path d="M 107.08233642578125 177.81878662109375 C 107.08202137319122 177.82190141922018 107.08647728807739 177.82673230300213 107.08323910883317 177.8287188605979" stroke-width="1.0" fill="none" stroke="rgb(255, 0, 0)" stroke-opacity="1.0" stroke-linecap="round" stroke-linejoin="round"/>
    <path d="M 125.96084594726562 203.1285858154297 C 125.95693450437875 203.12518845277174 125.952863107119 203.12332907357066 125.94802849396238 203.126869564828" stroke-width="1.0" fill="none" stroke="rgb(255, 0, 0)" stroke-opacity="1.0" stroke-linecap="round" stroke-linejoin="round"/>
    <path d="M 134.44004821777344 202.45913696289062 C 134.4379583781599 202.46193743875398 134.43843934332114 202.458880745521 134.43635972604295 202.45707527329498" stroke-width="1.0" fill="none" stroke="rgb(255, 0, 0)" stroke-opacity="1.0" stroke-linecap="round" stroke-linejoin="round"/>
    <path d="M 177.0657958984375 107.99081420898438 C 177.06738188067288 107.98812941933849 177.06857618404283 107.99208280543651 177.07227052612853 107.99002087479319" stroke-width="1.0" fill="none" stroke="rgb(255, 0, 0)" stroke-opacity="1.0" stroke-linecap="round" stroke-linejoin="round"/>
    <path d="M 169.71084594726562 128.89768981933594 C 169.71042799535144 128.89753961731464 169.708231878045 128.89582918677814 169.71307430228526 128.89094862815736" stroke-width="1.0" fill="none" stroke="rgb(255, 0, 0)" stroke-opacity="1.0" stroke-linecap="round" stroke-linejoin="round"/>
    <path d="M 130.73585510253906 139.898193359375 C 130.732284110222 139.89971313154044 130.72803404202148 139.89763391856326 130.73096847174338 139.90174984957196" stroke-width="1.0" fill="none" stroke="rgb(255, 0, 0)" stroke-opacity="1.0" stroke-linecap="round" stroke-linejoin="round"/>
    <path d="M 149.55238342285156 103.29920959472656 C 149.55108734064746 103.29626241683843 149.5548881539153 103.29758808134 149.5549232971759 103.29589651693671" stroke-width="1.0" fill="none" stroke="rgb(255, 0, 0)" stroke-opacity="1.0" stroke-linecap="round" stroke-linejoin="round"/>
    <path d="M 142.43814086914062 128.0120391845703 C 142.4366148709757 128.00996330043364 142.43926884532212 128.00974773343242 142.43628421872359 128.0134633607301" stroke-width="1.0" fill="none" stroke="rgb(255, 0, 0)" stroke-opacity="1.0" stroke-linecap="round" stroke-linejoin="round"/>
    <path d="M 148.2096405029297 197.18289184570312 C 148.21219228841915 197.18656743021498 148.2165155253484 197.18398456286837 148.22044003018726 197.1866441297126" stroke-width="1.0" fill="none" stroke="rgb(255, 0, 0)" stroke-opacity="1.0" stroke-linecap="round" stroke-linejoin="round"/>
    <path d="M 116.08269500732422 95.60064697265625 C 116.0818418342472 95.59888379871892 116.08245488663621 95.59979215850775 116.0791107144043 95.59965412915652" stroke-width="1.0" fill="none" stroke="rgb(255, 0, 0)" stroke-opacity="1.0" stroke-linecap="round" stroke-linejoin="round"/>
    <path d="M 167.56309509277344 86.72998046875 C 167.56758530971535 86.72966237972494 167.56655160673978 86.73385044570267 167.57140888299304 86.73824245231567" stroke-width="1.0" fill="none" stroke="rgb(255, 0, 0)" stroke-opacity="1.0" stroke-linecap="round" stroke-linejoin="round"/>
    <path d="M 96.14657592773438 192.3594970703125 C 96.1420522791925 192.3631008294375 96.1390627376845 192.3615369199516 96.14288806470395 192.35752106774422" stroke-width="1.0" fill="none" stroke="rgb(255, 0, 0)" stroke-opacity="1.0" stroke-linecap="round" stroke-linejoin="round"/>
    <path d="M 112.61283111572266 119.35384368896484 C 112.60916373860455 119.35152058474652 112.60625686765506 119.34992724382083 112.60852281215163 119.35124510840664" stroke-width="1.0" fill="none" stroke="rgb(255, 0, 0)" stroke-opacity="1.0" stroke-linecap="round" stroke-linejoin="round"/>
    <path d="M 158.24000549316406 190.9847412109375 C 158.2365933000412 190.98740334650475 158.24083215888749 190.9883141307983 158.23751751233686 190.98820100008575" stroke-width="1.0" fill="none" stroke="rgb(255, 0, 0)" stroke-opacity="1.0" stroke-linecap="round" stroke-linejoin="round"/>
    <path d="M 115.00767517089844 185.8307342529297 C 115.00985851520484 185.82789613047774 115.01097995253211 185.82909953559124 115.00835514411274 185.8255394120555" stroke-width="1.0" fill="none" stroke="rgb(255, 0, 0)" stroke-opacity="1.0" stroke-linecap="round" stroke-linejoin="round"/>
    <path d="M 150.15853881835938 141.30706787109375 C 150.16126095739088 141.3073736165108 150.16064788168993 141.3071526141979 150.16348893494217 141.31052124807303" stroke-width="1.0" fill="none" stroke="rgb(255, 0, 0)" stroke-opacity="1.0" stroke-linecap="round" stroke-linejoin="round"/>
    <path d="M 96.96707153320312 175.67578125 C 96.9661341413635 175.67852310545237 96.96116541425565 175.68228862440444 96.9564822080247 175.68710610741667" stroke-width="1.0" fill="none" stroke="rgb(255, 0, 0)" stroke-opacity="1.0" stroke-linecap="round" stroke-linejoin="round"/>
    <path d="M 145.14573669433594 77.85298156738281 C 145.1506888411751 77.85404186830388 145.15458127280107 77.85580522764106 145.1502677319697 77.85780849612757" stroke-width="1.0" fill="none" stroke="rgb(255, 0, 0)" stroke-opacity="1.0" stroke-linecap="round" stroke-linejoin="round"/>
    <path d="M 145.86758422851562 113.6717529296875 C 145.87257670069323 113.67393234637665 145.86976281578112 113.6731533807325 145.87342492909616 113.67609909892344" stroke-width="1.0" fill="none" stroke="rgb(255, 0, 0)" stroke-opacity="1.0" stroke-linecap="round" stroke-linejoin="round"/>
  </g>
</svg>
