<?xml version="1.0" ?>
<svg xmlns="http://www.w3.org/2000/svg" version="1.1" width="256" height="256">
  <defs/>
  <g>
    <path d="M 116.44412994384766 75.61666107177734 C 116.33837117574348 75.7787755518993 116.15992224747623 76.74902699232847 116.98119475852378 75.36519233026198" stroke-width="1.0" fill="none" stroke="rgb(255, 0, 0)" stroke-opacity="1.0" stroke-linecap="round" stroke-linejoin="round"/>
    <path d="M 112.56014251708984 91.623291015625 C 113.58649629575643 91.06676955355164 113.56065248988011 90.94394397425701 112.75727366603209 91.26037048787532" stroke-width="1.0" fill="none" stroke="rgb(255, 0, 0)" stroke-opacity="1.0" stroke-linecap="round" stroke-linejoin="round"/>
    <path d="M 134.6208038330078 91.68136596679688 C 134.9792297374436 91.06691031304956 134.05730041177233 90.71105377550472 134.31156629375397 90.74639818746964" stroke-width="1.0" fill="none" stroke="rgb(255, 0, 0)" stroke-opacity="1.0" stroke-linecap="round" stroke-linejoin="round"/>
    <path d="M 101.68547821044922 66.86609649658203 C 100.63179612892672 67.12824311288385 101.61805763260018 67.56223815467155 101.99770006923605 67.19358044676696" stroke-width="1.0" fill="none" stroke="rgb(255, 0, 0)" stroke-opacity="1.0" stroke-linecap="round" stroke-linejoin="round"/>
    <path d="M 148.87014770507812 73.25808715820312 C 148.26332139546625 73.87832630084426 149.3637418613244 74.00336364498293 148.49542457717982 74.00578666504063" stroke-width="1.0" fill="none" stroke="rgb(255, 0, 0)" stroke-opacity="1.0" stroke-linecap="round" stroke-linejoin="round"/>
    <path d="M 113.62769317626953 54.132415771484375 C 112.58600881745954 53.58862266796375 113.05661569816915 53.86871917166959 112.7346814392787 53.840465770543375" stroke-width="1.0" fill="none" stroke="rgb(255, 0, 0)" stroke-opacity="1.0" stroke-linecap="round" stroke-linejoin="round"/>
    <path d="M 149.74436950683594 52.0062255859375 C 149.37772036192166 52.432185895177945 149.9515200022433 52.43704449015486 148.22135027752418 52.744140782381315" stroke-width="1.0" fill="none" stroke="rgb(255, 0, 0)" stroke-opacity="1.0" stroke-linecap="round" stroke-linejoin="round"/>
    <path d="M 110.84352111816406 138.4774169921875 C 111.33545873222693 138.1213076504499 111.55536031024245 137.80625735023906 111.57312629568065 137.98748293583205" stroke-width="1.0" fill="none" stroke="rgb(255, 0, 0)" stroke-opacity="1.0" stroke-linecap="round" stroke-linejoin="round"/>
    <path d="M 125.31212615966797 139.69290161132812 C 125.75926346405647 139.53676490328075 124.56565394419269 139.39707351988534 125.24432114812227 139.3358625486383" stroke-width="1.0" fill="none" stroke="rgb(255, 0, 0)" stroke-opacity="1.0" stroke-linecap="round" stroke-linejoin="round"/>
    <path d="M 121.23564910888672 174.66201782226562 C 120.17260738061206 176.15058949079562 119.83147991421865 174.65300333554626 119.86713073741133 175.4011638386699" stroke-width="1.0" fill="none" stroke="rgb(255, 0, 0)" stroke-opacity="1.0" stroke-linecap="round" stroke-linejoin="round"/>
    <path d="M 140.7368927001953 172.70545959472656 C 139.97427589403352 171.23489606339496 140.20357089090132 171.3190697701462 140.50832922989355 171.11001623937136" stroke-width="1.0" fill="none" stroke="rgb(255, 0, 0)" stroke-opacity="1.0" stroke-linecap="round" stroke-linejoin="round"/>
    <path d="M 112.33256530761719 199.42074584960938 C 111.80497596796097 198.7284492652421 111.64937040151112 198.99073002808487 111.75894073114013 198.77863589290467" stroke-width="1.0" fill="none" stroke="rgb(255, 0, 0)" stroke-opacity="1.0" stroke-linecap="round" stroke-linejoin="round"/>
    <path d="M 139.8269805908203 196.2025146484375 C 141.39143321137814 198.06590030268532 141.08249654869115 197.37950171764157 140.33897868883733 197.4538422475252" stroke-width="1.0" fill="none" stroke="rgb(255, 0, 0)" stroke-opacity="1.0" stroke-linecap="round" stroke-linejoin="round"/>
  </g>
</svg>
