<?xml version="1.0" ?>
<svg xmlns="http://www.w3.org/2000/svg" version="1.1" width="256" height="256">
  <defs/>
  <g>
    <path d="M 116.44412994384766 75.61666107177734 C 116.62772109679116 70.63174057573356 114.86765188509906 71.69647292137891 116.54309163402446 76.35344741382292" stroke-width="1.0" fill="none" stroke="rgb(255, 0, 0)" stroke-opacity="1.0" stroke-linecap="round" stroke-linejoin="round"/>
    <path d="M 112.56014251708984 91.623291015625 C 109.26937937957678 87.56386941505428 107.21033560774663 86.99675920295765 110.36642747319533 91.26453896851001" stroke-width="1.0" fill="none" stroke="rgb(255, 0, 0)" stroke-opacity="1.0" stroke-linecap="round" stroke-linejoin="round"/>
    <path d="M 134.6208038330078 91.68136596679688 C 130.48507208041636 89.00275086013437 128.94560166509112 90.47616236086239 131.3953864579576 96.31600359756867" stroke-width="1.0" fill="none" stroke="rgb(255, 0, 0)" stroke-opacity="1.0" stroke-linecap="round" stroke-linejoin="round"/>
    <path d="M 101.68547821044922 66.86609649658203 C 96.87142241734072 64.74690079124956 98.14574740246427 62.59066900398528 100.833465252208 65.48716250248467" stroke-width="1.0" fill="none" stroke="rgb(255, 0, 0)" stroke-opacity="1.0" stroke-linecap="round" stroke-linejoin="round"/>
    <path d="M 148.87014770507812 73.25808715820312 C 144.82096975619547 70.56161380962999 144.0800166592408 73.15818869909202 144.97103221077052 76.79894911523499" stroke-width="1.0" fill="none" stroke="rgb(255, 0, 0)" stroke-opacity="1.0" stroke-linecap="round" stroke-linejoin="round"/>
    <path d="M 113.62769317626953 54.132415771484375 C 115.09572824885984 56.68929990487838 116.2772492645487 61.20144499459516 118.48936339902697 64.81697116929368" stroke-width="1.0" fill="none" stroke="rgb(255, 0, 0)" stroke-opacity="1.0" stroke-linecap="round" stroke-linejoin="round"/>
    <path d="M 149.74436950683594 52.0062255859375 C 146.99750097689378 49.30282635185443 143.98411599433163 52.214129406984924 143.5892260323574 55.69835099669816" stroke-width="1.0" fill="none" stroke="rgb(255, 0, 0)" stroke-opacity="1.0" stroke-linecap="round" stroke-linejoin="round"/>
    <path d="M 110.84352111816406 138.4774169921875 C 120.0743258474563 134.50040445649924 104.94394218222884 133.78417971530845 101.87681428539241 137.33800113265326" stroke-width="1.0" fill="none" stroke="rgb(255, 0, 0)" stroke-opacity="1.0" stroke-linecap="round" stroke-linejoin="round"/>
    <path d="M 125.31212615966797 139.69290161132812 C 133.4746109925141 137.87599864444496 119.2408155443056 138.14111925429086 115.84519438746067 142.9569226518163" stroke-width="1.0" fill="none" stroke="rgb(255, 0, 0)" stroke-opacity="1.0" stroke-linecap="round" stroke-linejoin="round"/>
    <path d="M 121.23564910888672 174.66201782226562 C 121.88503959373968 173.31499936666538 115.52179480317281 170.8030516510713 108.41223524104292 174.18377625183786" stroke-width="1.0" fill="none" stroke="rgb(255, 0, 0)" stroke-opacity="1.0" stroke-linecap="round" stroke-linejoin="round"/>
    <path d="M 140.7368927001953 172.70545959472656 C 142.61238599525652 173.02970373589557 137.7350508679726 170.9590760441311 134.36724047595487 174.68094976016528" stroke-width="1.0" fill="none" stroke="rgb(255, 0, 0)" stroke-opacity="1.0" stroke-linecap="round" stroke-linejoin="round"/>
    <path d="M 112.33256530761719 199.42074584960938 C 111.18804870184006 198.34164302307414 110.01864182890408 198.64219529502785 108.71631635815119 199.97391590837327" stroke-width="1.0" fill="none" stroke="rgb(255, 0, 0)" stroke-opacity="1.0" stroke-linecap="round" stroke-linejoin="round"/>
    <path d="M 139.8269805908203 196.2025146484375 C 136.63120070319562 196.68639869169098 139.58030512432134 195.70856504376195 138.0551562715781 197.98868083457086" stroke-width="1.0" fill="none" stroke="rgb(255, 0, 0)" stroke-opacity="1.0" stroke-linecap="round" stroke-linejoin="round"/>
  </g>
</svg>
