<?xml version="1.0" ?>
<svg xmlns="http://www.w3.org/2000/svg" version="1.1" width="256" height="256">
  <defs/>
  <g>
    <path d="M 116.44412994384766 75.61666107177734 C 114.69033171556129 69.39040947526969 118.09509093100513 63.977194108970465 118.12584655891784 74.99276021756819" stroke-width="1.0" fill="none" stroke="rgb(255, 0, 0)" stroke-opacity="1.0" stroke-linecap="round" stroke-linejoin="round"/>
    <path d="M 112.56014251708984 91.623291015625 C 106.57416415435705 86.1963862760162 109.68009125731328 79.62006023216297 110.80719666875197 88.8367065289682" stroke-width="1.0" fill="none" stroke="rgb(255, 0, 0)" stroke-opacity="1.0" stroke-linecap="round" stroke-linejoin="round"/>
    <path d="M 134.6208038330078 91.68136596679688 C 127.55809826068369 89.66964851466776 130.87075062901934 83.71937667007793 131.57510542921005 95.6786296733133" stroke-width="1.0" fill="none" stroke="rgb(255, 0, 0)" stroke-opacity="1.0" stroke-linecap="round" stroke-linejoin="round"/>
    <path d="M 101.68547821044922 66.86609649658203 C 93.2353097273688 62.13943647774248 89.5052885802139 60.787687627337334 87.97766957073141 74.42634192295586" stroke-width="1.0" fill="none" stroke="rgb(255, 0, 0)" stroke-opacity="1.0" stroke-linecap="round" stroke-linejoin="round"/>
    <path d="M 148.87014770507812 73.25808715820312 C 140.86700743014566 72.01683164791734 146.96673350189218 64.39038187107002 136.95237118858424 73.44790714259781" stroke-width="1.0" fill="none" stroke="rgb(255, 0, 0)" stroke-opacity="1.0" stroke-linecap="round" stroke-linejoin="round"/>
    <path d="M 113.62769317626953 54.132415771484375 C 104.84315571239134 48.546222292955164 104.46264998895971 53.341278143164025 104.63078137922106 67.9118093116887" stroke-width="1.0" fill="none" stroke="rgb(255, 0, 0)" stroke-opacity="1.0" stroke-linecap="round" stroke-linejoin="round"/>
    <path d="M 149.74436950683594 52.0062255859375 C 153.6667962878679 52.757143057319745 151.26495949065426 43.357979554709075 139.8210466157009 52.514383480871935" stroke-width="1.0" fill="none" stroke="rgb(255, 0, 0)" stroke-opacity="1.0" stroke-linecap="round" stroke-linejoin="round"/>
    <path d="M 110.84352111816406 138.4774169921875 C 130.93610506040795 132.72548137033286 106.57876455085066 129.28798463741234 102.8228935395428 134.2303399450045" stroke-width="1.0" fill="none" stroke="rgb(255, 0, 0)" stroke-opacity="1.0" stroke-linecap="round" stroke-linejoin="round"/>
    <path d="M 125.31212615966797 139.69290161132812 C 144.77957887276312 138.56072619399788 120.9738101007326 134.18552018469552 115.72057871821018 142.17386734633536" stroke-width="1.0" fill="none" stroke="rgb(255, 0, 0)" stroke-opacity="1.0" stroke-linecap="round" stroke-linejoin="round"/>
    <path d="M 121.23564910888672 174.66201782226562 C 131.95148422913093 171.80158009614993 103.99362660172628 168.170416057657 107.20150945674116 170.84623961882318" stroke-width="1.0" fill="none" stroke="rgb(255, 0, 0)" stroke-opacity="1.0" stroke-linecap="round" stroke-linejoin="round"/>
    <path d="M 140.7368927001953 172.70545959472656 C 149.2990510533925 174.65421771962207 139.22936208146595 167.4649463267811 129.85410695010648 175.7445743806029" stroke-width="1.0" fill="none" stroke="rgb(255, 0, 0)" stroke-opacity="1.0" stroke-linecap="round" stroke-linejoin="round"/>
    <path d="M 112.33256530761719 199.42074584960938 C 115.58222065504135 195.51373018580722 110.2001214021539 198.0109483408252 110.04746140629267 196.812375400103" stroke-width="1.0" fill="none" stroke="rgb(255, 0, 0)" stroke-opacity="1.0" stroke-linecap="round" stroke-linejoin="round"/>
    <path d="M 139.8269805908203 196.2025146484375 C 124.45920601706891 190.4347814388643 129.40235295394933 188.7299962514188 125.31429557097081 199.2419983694944" stroke-width="1.0" fill="none" stroke="rgb(255, 0, 0)" stroke-opacity="1.0" stroke-linecap="round" stroke-linejoin="round"/>
  </g>
</svg>
