<?xml version="1.0" ?>
<svg xmlns="http://www.w3.org/2000/svg" version="1.1" width="256" height="256">
  <defs/>
  <g>
    <path d="M 116.44412994384766 75.61666107177734 C 118.00767697713508 73.68408704370536 115.91188842589344 75.58989695549757 114.81067603241333 77.33302400149992" stroke-width="1.0" fill="none" stroke="rgb(255, 0, 0)" stroke-opacity="1.0" stroke-linecap="round" stroke-linejoin="round"/>
    <path d="M 112.56014251708984 91.623291015625 C 114.21235203964147 90.56021833253857 111.60234725020268 91.16729712548901 109.87886863149001 92.39848471671996" stroke-width="1.0" fill="none" stroke="rgb(255, 0, 0)" stroke-opacity="1.0" stroke-linecap="round" stroke-linejoin="round"/>
    <path d="M 134.6208038330078 91.68136596679688 C 134.73560662977187 92.2093101009524 132.82368584783038 92.98375021095623 131.89578056386887 94.6794464953653" stroke-width="1.0" fill="none" stroke="rgb(255, 0, 0)" stroke-opacity="1.0" stroke-linecap="round" stroke-linejoin="round"/>
    <path d="M 101.68547821044922 66.86609649658203 C 100.99749327438876 68.11409705313234 100.57800541237485 66.99211737301147 101.55564304454852 66.04379180260216" stroke-width="1.0" fill="none" stroke="rgb(255, 0, 0)" stroke-opacity="1.0" stroke-linecap="round" stroke-linejoin="round"/>
    <path d="M 148.87014770507812 73.25808715820312 C 145.76884334857218 73.2172054167238 146.80767969940194 74.4526870830909 146.04810602325526 76.013975255448" stroke-width="1.0" fill="none" stroke="rgb(255, 0, 0)" stroke-opacity="1.0" stroke-linecap="round" stroke-linejoin="round"/>
    <path d="M 113.62769317626953 54.132415771484375 C 113.63866028239866 55.482501112993006 114.18215744478552 57.14600242295514 116.12464853811083 56.037858591855326" stroke-width="1.0" fill="none" stroke="rgb(255, 0, 0)" stroke-opacity="1.0" stroke-linecap="round" stroke-linejoin="round"/>
    <path d="M 149.74436950683594 52.0062255859375 C 148.96558003720986 52.79778347108088 148.16525927817563 53.44618119674551 145.95109512911338 54.37015792819383" stroke-width="1.0" fill="none" stroke="rgb(255, 0, 0)" stroke-opacity="1.0" stroke-linecap="round" stroke-linejoin="round"/>
    <path d="M 110.84352111816406 138.4774169921875 C 115.67462139112695 138.24636791074576 109.33807420031813 138.163171617183 103.8678588067242 138.46209192340186" stroke-width="1.0" fill="none" stroke="rgb(255, 0, 0)" stroke-opacity="1.0" stroke-linecap="round" stroke-linejoin="round"/>
    <path d="M 125.31212615966797 139.69290161132812 C 129.30542058571478 140.41422101697685 123.3272435905321 140.68469644850472 117.98050551416965 141.6558085694799" stroke-width="1.0" fill="none" stroke="rgb(255, 0, 0)" stroke-opacity="1.0" stroke-linecap="round" stroke-linejoin="round"/>
    <path d="M 121.23564910888672 174.66201782226562 C 121.60556879238622 176.24248674001743 120.09302848923252 174.79540824944854 113.35734460841353 174.30263810591424" stroke-width="1.0" fill="none" stroke="rgb(255, 0, 0)" stroke-opacity="1.0" stroke-linecap="round" stroke-linejoin="round"/>
    <path d="M 140.7368927001953 172.70545959472656 C 141.25115270124635 174.0970349307732 139.2886979092934 173.39386623816569 136.0142183774136 173.3763690716887" stroke-width="1.0" fill="none" stroke="rgb(255, 0, 0)" stroke-opacity="1.0" stroke-linecap="round" stroke-linejoin="round"/>
    <path d="M 112.33256530761719 199.42074584960938 C 112.81738219793381 200.81976808863925 113.71267843187802 200.32031665318405 111.4060626187942 200.06501397851792" stroke-width="1.0" fill="none" stroke="rgb(255, 0, 0)" stroke-opacity="1.0" stroke-linecap="round" stroke-linejoin="round"/>
    <path d="M 139.8269805908203 196.2025146484375 C 138.47376504760174 197.06117624715668 139.4767179737476 197.25007401640676 138.19497327101354 196.80104356507394" stroke-width="1.0" fill="none" stroke="rgb(255, 0, 0)" stroke-opacity="1.0" stroke-linecap="round" stroke-linejoin="round"/>
  </g>
</svg>
