<?xml version="1.0" ?>
<svg xmlns="http://www.w3.org/2000/svg" version="1.1" width="256" height="256">
  <defs/>
  <g>
    <path d="M 116.44412994384766 75.61666107177734 C 115.37942912004127 68.43723822206535 116.67463667849387 65.35786179543287 116.07414048324951 76.68921879567793" stroke-width="1.0" fill="none" stroke="rgb(255, 0, 0)" stroke-opacity="1.0" stroke-linecap="round" stroke-linejoin="round"/>
    <path d="M 112.56014251708984 91.623291015625 C 106.82916426879797 85.01367753578182 109.16442811034062 81.27618911552479 110.96034841931655 90.86154283077178" stroke-width="1.0" fill="none" stroke="rgb(255, 0, 0)" stroke-opacity="1.0" stroke-linecap="round" stroke-linejoin="round"/>
    <path d="M 134.6208038330078 91.68136596679688 C 127.95118564776865 88.2287847861445 130.19256755025347 85.99551402206768 131.50006055883347 95.30592802841583" stroke-width="1.0" fill="none" stroke="rgb(255, 0, 0)" stroke-opacity="1.0" stroke-linecap="round" stroke-linejoin="round"/>
    <path d="M 101.68547821044922 66.86609649658203 C 93.16592324513003 60.835689300618455 92.67662666157376 59.44605335380828 92.88209709911276 71.58436575718437" stroke-width="1.0" fill="none" stroke="rgb(255, 0, 0)" stroke-opacity="1.0" stroke-linecap="round" stroke-linejoin="round"/>
    <path d="M 148.87014770507812 73.25808715820312 C 145.80792563731424 72.89630289034517 148.43522112224588 70.18113094409858 142.9597426142129 75.78947567220368" stroke-width="1.0" fill="none" stroke="rgb(255, 0, 0)" stroke-opacity="1.0" stroke-linecap="round" stroke-linejoin="round"/>
    <path d="M 113.62769317626953 54.132415771484375 C 110.89333877017637 53.39358276980663 110.82661311609594 57.64060772576581 110.35408898877917 69.98447071153001" stroke-width="1.0" fill="none" stroke="rgb(255, 0, 0)" stroke-opacity="1.0" stroke-linecap="round" stroke-linejoin="round"/>
    <path d="M 149.74436950683594 52.0062255859375 C 155.96719463762986 53.39737022611819 152.7044636372302 50.36986066776144 143.1084048996975 54.8867004820955" stroke-width="1.0" fill="none" stroke="rgb(255, 0, 0)" stroke-opacity="1.0" stroke-linecap="round" stroke-linejoin="round"/>
    <path d="M 110.84352111816406 138.4774169921875 C 122.4295504568313 132.38882050836386 103.40705549018172 130.2090909759133 100.99537126171077 135.63233870332053" stroke-width="1.0" fill="none" stroke="rgb(255, 0, 0)" stroke-opacity="1.0" stroke-linecap="round" stroke-linejoin="round"/>
    <path d="M 125.31212615966797 139.69290161132812 C 136.14201135262152 137.50092556915047 117.66727008837299 135.19708539313058 115.37349562647434 141.25732839255423" stroke-width="1.0" fill="none" stroke="rgb(255, 0, 0)" stroke-opacity="1.0" stroke-linecap="round" stroke-linejoin="round"/>
    <path d="M 121.23564910888672 174.66201782226562 C 121.80182817177312 171.57276454057742 101.82121372941182 168.29757088477493 101.1730403710478 173.19874124960626" stroke-width="1.0" fill="none" stroke="rgb(255, 0, 0)" stroke-opacity="1.0" stroke-linecap="round" stroke-linejoin="round"/>
    <path d="M 140.7368927001953 172.70545959472656 C 145.59563327537737 172.1214648481087 137.6725337018349 167.45594459490854 131.67767815524564 174.6153543717528" stroke-width="1.0" fill="none" stroke="rgb(255, 0, 0)" stroke-opacity="1.0" stroke-linecap="round" stroke-linejoin="round"/>
    <path d="M 112.33256530761719 199.42074584960938 C 109.5431257301146 195.65073599177646 107.5915722841119 196.76842997544205 107.80366934925532 198.03028110030976" stroke-width="1.0" fill="none" stroke="rgb(255, 0, 0)" stroke-opacity="1.0" stroke-linecap="round" stroke-linejoin="round"/>
    <path d="M 139.8269805908203 196.2025146484375 C 134.60678997855572 193.41122043804032 135.76248612503088 192.29497008259557 133.6266210485709 197.94257017473313" stroke-width="1.0" fill="none" stroke="rgb(255, 0, 0)" stroke-opacity="1.0" stroke-linecap="round" stroke-linejoin="round"/>
  </g>
</svg>
