<?xml version="1.0" ?>
<svg xmlns="http://www.w3.org/2000/svg" version="1.1" width="256" height="256">
  <defs/>
  <g>
    <path d="M 116.44412994384766 75.61666107177734 C 115.67620601079597 72.76726008028068 115.60106140906299 72.02661065102369 117.41690801988968 77.00339744128874" stroke-width="1.0" fill="none" stroke="rgb(255, 0, 0)" stroke-opacity="1.0" stroke-linecap="round" stroke-linejoin="round"/>
    <path d="M 112.56014251708984 91.623291015625 C 108.97972607833776 88.17814248634335 109.60337531111577 87.42304470825245 111.83995931542708 91.82725561649261" stroke-width="1.0" fill="none" stroke="rgb(255, 0, 0)" stroke-opacity="1.0" stroke-linecap="round" stroke-linejoin="round"/>
    <path d="M 134.6208038330078 91.68136596679688 C 131.2438423078486 89.78229628650308 131.893569194388 89.87066076870312 133.20257079652725 95.440627849888" stroke-width="1.0" fill="none" stroke="rgb(255, 0, 0)" stroke-opacity="1.0" stroke-linecap="round" stroke-linejoin="round"/>
    <path d="M 101.68547821044922 66.86609649658203 C 96.59623349445864 64.95517444046526 96.88039539173734 63.42154463913238 96.94007954387594 69.74413362331902" stroke-width="1.0" fill="none" stroke="rgb(255, 0, 0)" stroke-opacity="1.0" stroke-linecap="round" stroke-linejoin="round"/>
    <path d="M 148.87014770507812 73.25808715820312 C 146.93905442530863 72.6078873987642 146.61196474884042 72.56499951919471 145.95774323600855 75.6286117958609" stroke-width="1.0" fill="none" stroke="rgb(255, 0, 0)" stroke-opacity="1.0" stroke-linecap="round" stroke-linejoin="round"/>
    <path d="M 113.62769317626953 54.132415771484375 C 112.76635136505504 53.92053886609817 111.90825276357977 59.07032240548383 114.25190648126421 64.97109161454514" stroke-width="1.0" fill="none" stroke="rgb(255, 0, 0)" stroke-opacity="1.0" stroke-linecap="round" stroke-linejoin="round"/>
    <path d="M 149.74436950683594 52.0062255859375 C 151.70116027292954 51.874841935369595 149.47631922995785 51.228492397841094 147.96551659212608 54.097264976228495" stroke-width="1.0" fill="none" stroke="rgb(255, 0, 0)" stroke-opacity="1.0" stroke-linecap="round" stroke-linejoin="round"/>
    <path d="M 110.84352111816406 138.4774169921875 C 119.81785421354516 134.96914778077902 104.33219539420394 134.30200984874656 102.99331132518734 136.75993764464667" stroke-width="1.0" fill="none" stroke="rgb(255, 0, 0)" stroke-opacity="1.0" stroke-linecap="round" stroke-linejoin="round"/>
    <path d="M 125.31212615966797 139.69290161132812 C 133.13552445992133 138.38864031276466 119.07542362230853 137.36046577757577 117.0414214611301 141.2803783431539" stroke-width="1.0" fill="none" stroke="rgb(255, 0, 0)" stroke-opacity="1.0" stroke-linecap="round" stroke-linejoin="round"/>
    <path d="M 121.23564910888672 174.66201782226562 C 120.13493858621852 173.64820864286472 110.28958607438253 171.41143673713088 106.89490697871382 173.46136908964837" stroke-width="1.0" fill="none" stroke="rgb(255, 0, 0)" stroke-opacity="1.0" stroke-linecap="round" stroke-linejoin="round"/>
    <path d="M 140.7368927001953 172.70545959472656 C 145.01983381019792 172.0506280060486 139.04801268476032 169.51420050578196 133.49014143878446 174.3650692231322" stroke-width="1.0" fill="none" stroke="rgb(255, 0, 0)" stroke-opacity="1.0" stroke-linecap="round" stroke-linejoin="round"/>
    <path d="M 112.33256530761719 199.42074584960938 C 112.1144649797255 198.90563734132098 110.47437620104306 198.80034331553375 109.49157394558405 199.0684374904999" stroke-width="1.0" fill="none" stroke="rgb(255, 0, 0)" stroke-opacity="1.0" stroke-linecap="round" stroke-linejoin="round"/>
    <path d="M 139.8269805908203 196.2025146484375 C 137.15059104781537 195.2468262977968 137.63542142013586 195.20775704319738 135.41809252989415 196.955412919322" stroke-width="1.0" fill="none" stroke="rgb(255, 0, 0)" stroke-opacity="1.0" stroke-linecap="round" stroke-linejoin="round"/>
  </g>
</svg>
