<?xml version="1.0" ?>
<svg xmlns="http://www.w3.org/2000/svg" version="1.1" width="256" height="256">
  <defs/>
  <g>
    <path d="M 116.44412994384766 75.61666107177734 C 113.92231680772437 68.04182482332267 115.80326885516132 63.761952676780524 115.80527555357345 75.66485736407927" stroke-width="1.0" fill="none" stroke="rgb(255, 0, 0)" stroke-opacity="1.0" stroke-linecap="round" stroke-linejoin="round"/>
    <path d="M 112.56014251708984 91.623291015625 C 105.95460009796057 83.83364337516781 108.02014719984868 79.20578506279041 109.22580795682265 90.14330006629882" stroke-width="1.0" fill="none" stroke="rgb(255, 0, 0)" stroke-opacity="1.0" stroke-linecap="round" stroke-linejoin="round"/>
    <path d="M 134.6208038330078 91.68136596679688 C 127.44057888202158 87.63193033782602 128.89502974660357 84.23119698639263 130.95129561475693 94.55241302330414" stroke-width="1.0" fill="none" stroke="rgb(255, 0, 0)" stroke-opacity="1.0" stroke-linecap="round" stroke-linejoin="round"/>
    <path d="M 101.68547821044922 66.86609649658203 C 92.76098073261782 60.1656711045125 92.03746364430081 57.45222410347259 89.72477230815817 71.62500181980644" stroke-width="1.0" fill="none" stroke="rgb(255, 0, 0)" stroke-opacity="1.0" stroke-linecap="round" stroke-linejoin="round"/>
    <path d="M 148.87014770507812 73.25808715820312 C 143.36332481677286 72.08868671612413 146.29485564086923 67.84871250232612 141.93418509620753 73.51241304751076" stroke-width="1.0" fill="none" stroke="rgb(255, 0, 0)" stroke-opacity="1.0" stroke-linecap="round" stroke-linejoin="round"/>
    <path d="M 113.62769317626953 54.132415771484375 C 109.88232168605467 51.653540575082545 109.3883332489237 57.0259393564726 106.26529475736437 67.98014198380784" stroke-width="1.0" fill="none" stroke="rgb(255, 0, 0)" stroke-opacity="1.0" stroke-linecap="round" stroke-linejoin="round"/>
    <path d="M 149.74436950683594 52.0062255859375 C 155.57533272204148 52.73293423223816 152.00302282607296 46.77206446605551 142.30380799875755 52.37616047355058" stroke-width="1.0" fill="none" stroke="rgb(255, 0, 0)" stroke-opacity="1.0" stroke-linecap="round" stroke-linejoin="round"/>
    <path d="M 110.84352111816406 138.4774169921875 C 123.20555429441674 131.34041152322592 103.10013162390975 128.79360654750755 101.54425183879817 135.44308847253134" stroke-width="1.0" fill="none" stroke="rgb(255, 0, 0)" stroke-opacity="1.0" stroke-linecap="round" stroke-linejoin="round"/>
    <path d="M 125.31212615966797 139.69290161132812 C 137.3944050751557 135.85476615867378 117.72118892687396 133.11665774649362 115.9067779064426 141.76369774489493" stroke-width="1.0" fill="none" stroke="rgb(255, 0, 0)" stroke-opacity="1.0" stroke-linecap="round" stroke-linejoin="round"/>
    <path d="M 121.23564910888672 174.66201782226562 C 124.93473437027471 170.95780458536197 101.31124211075948 167.55613964850784 101.29234121333296 172.23209171728814" stroke-width="1.0" fill="none" stroke="rgb(255, 0, 0)" stroke-opacity="1.0" stroke-linecap="round" stroke-linejoin="round"/>
    <path d="M 140.7368927001953 172.70545959472656 C 145.54808164344988 171.0164337750153 136.30236048596882 166.03765207247812 132.22751622134672 175.03479678699023" stroke-width="1.0" fill="none" stroke="rgb(255, 0, 0)" stroke-opacity="1.0" stroke-linecap="round" stroke-linejoin="round"/>
    <path d="M 112.33256530761719 199.42074584960938 C 111.94861188169064 196.01962222415256 108.43563318193905 197.48787806504166 108.29589451939081 197.84169164661256" stroke-width="1.0" fill="none" stroke="rgb(255, 0, 0)" stroke-opacity="1.0" stroke-linecap="round" stroke-linejoin="round"/>
    <path d="M 139.8269805908203 196.2025146484375 C 130.35533371787457 192.1435650654207 131.9186970243839 191.36962466175817 130.4829614568961 198.83401530484292" stroke-width="1.0" fill="none" stroke="rgb(255, 0, 0)" stroke-opacity="1.0" stroke-linecap="round" stroke-linejoin="round"/>
  </g>
</svg>
