<?xml version="1.0" ?>
<svg xmlns="http://www.w3.org/2000/svg" version="1.1" width="256" height="256">
  <defs/>
  <g>
    <path d="M 116.44412994384766 75.61666107177734 C 112.18782569787635 72.0724675712017 116.79360634619678 62.64597348213941 118.97935479294189 72.81734654941252" stroke-width="1.0" fill="none" stroke="rgb(255, 0, 0)" stroke-opacity="1.0" stroke-linecap="round" stroke-linejoin="round"/>
    <path d="M 112.56014251708984 91.623291015625 C 104.67601418716345 87.71564453674313 108.68691575072148 78.70106914329578 110.15803985989882 86.84869636089263" stroke-width="1.0" fill="none" stroke="rgb(255, 0, 0)" stroke-opacity="1.0" stroke-linecap="round" stroke-linejoin="round"/>
    <path d="M 134.6208038330078 91.68136596679688 C 125.95493263415781 92.28524731246591 130.07105990560015 83.09040652389874 130.46079397252976 94.80175904114166" stroke-width="1.0" fill="none" stroke="rgb(255, 0, 0)" stroke-opacity="1.0" stroke-linecap="round" stroke-linejoin="round"/>
    <path d="M 101.68547821044922 66.86609649658203 C 92.71611226337954 62.284629577718064 89.70792339161527 58.62937387611663 86.46370968608785 73.12884560413872" stroke-width="1.0" fill="none" stroke="rgb(255, 0, 0)" stroke-opacity="1.0" stroke-linecap="round" stroke-linejoin="round"/>
    <path d="M 148.87014770507812 73.25808715820312 C 135.6325442152714 71.63317848400743 144.621237801056 62.22967439731514 133.93004376548853 71.73038946862854" stroke-width="1.0" fill="none" stroke="rgb(255, 0, 0)" stroke-opacity="1.0" stroke-linecap="round" stroke-linejoin="round"/>
    <path d="M 113.62769317626953 54.132415771484375 C 106.20023760249754 49.08155974107528 105.97214620096533 52.309169661190616 103.7206623225194 68.78567348557786" stroke-width="1.0" fill="none" stroke="rgb(255, 0, 0)" stroke-opacity="1.0" stroke-linecap="round" stroke-linejoin="round"/>
    <path d="M 149.74436950683594 52.0062255859375 C 152.73281963762986 54.32670313808642 149.7547359827731 41.97571064906943 140.61087205515403 51.589797587121744" stroke-width="1.0" fill="none" stroke="rgb(255, 0, 0)" stroke-opacity="1.0" stroke-linecap="round" stroke-linejoin="round"/>
    <path d="M 110.84352111816406 138.4774169921875 C 134.04115991575463 132.6015761884481 105.46776878134993 128.2242496291726 102.74701730358089 133.12459200684836" stroke-width="1.0" fill="none" stroke="rgb(255, 0, 0)" stroke-opacity="1.0" stroke-linecap="round" stroke-linejoin="round"/>
    <path d="M 125.31212615966797 139.69290161132812 C 147.24884576424262 140.16034456929924 119.10569133776264 133.83124924963693 114.99838118555637 141.29454267172903" stroke-width="1.0" fill="none" stroke="rgb(255, 0, 0)" stroke-opacity="1.0" stroke-linecap="round" stroke-linejoin="round"/>
    <path d="M 121.23564910888672 174.66201782226562 C 136.053661849065 172.34164848413516 104.28438378098653 167.65641945655227 107.38967893611128 170.8530135674926" stroke-width="1.0" fill="none" stroke="rgb(255, 0, 0)" stroke-opacity="1.0" stroke-linecap="round" stroke-linejoin="round"/>
    <path d="M 140.7368927001953 172.70545959472656 C 151.76358772026262 176.80608129460376 139.98622233766102 166.8007994266041 127.63284783298002 175.79443008967883" stroke-width="1.0" fill="none" stroke="rgb(255, 0, 0)" stroke-opacity="1.0" stroke-linecap="round" stroke-linejoin="round"/>
    <path d="M 112.33256530761719 199.42074584960938 C 116.4967013412291 195.12767423945712 109.85943090857022 197.7548180627147 109.86507584244227 197.2411446309456" stroke-width="1.0" fill="none" stroke="rgb(255, 0, 0)" stroke-opacity="1.0" stroke-linecap="round" stroke-linejoin="round"/>
    <path d="M 139.8269805908203 196.2025146484375 C 121.81193009238629 190.62411773876053 130.09837021926916 187.48427157337926 121.04879454863195 198.89286845425698" stroke-width="1.0" fill="none" stroke="rgb(255, 0, 0)" stroke-opacity="1.0" stroke-linecap="round" stroke-linejoin="round"/>
  </g>
</svg>
