<?xml version="1.0" ?>
<svg xmlns="http://www.w3.org/2000/svg" version="1.1" width="256" height="256">
  <defs/>
  <g>
    <path d="M 116.44412994384766 75.61666107177734 C 111.87461139581336 73.34153199762382 117.00397134358371 60.701206483848395 117.77694147240051 72.13766739406279" stroke-width="1.0" fill="none" stroke="rgb(255, 0, 0)" stroke-opacity="1.0" stroke-linecap="round" stroke-linejoin="round"/>
    <path d="M 112.56014251708984 91.623291015625 C 102.94386792404089 88.56044953895565 108.30592095396855 76.25640132713367 109.75980835355116 85.81606925517974" stroke-width="1.0" fill="none" stroke="rgb(255, 0, 0)" stroke-opacity="1.0" stroke-linecap="round" stroke-linejoin="round"/>
    <path d="M 134.6208038330078 91.68136596679688 C 124.2076286714503 93.98724125472665 129.07268305928667 81.78391085739483 130.01161670736252 93.56726101715485" stroke-width="1.0" fill="none" stroke="rgb(255, 0, 0)" stroke-opacity="1.0" stroke-linecap="round" stroke-linejoin="round"/>
    <path d="M 101.68547821044922 66.86609649658203 C 92.83163750904605 63.412118190846726 87.2865614683975 56.25129350807464 85.9947994688027 73.78199663944756" stroke-width="1.0" fill="none" stroke="rgb(255, 0, 0)" stroke-opacity="1.0" stroke-linecap="round" stroke-linejoin="round"/>
    <path d="M 148.87014770507812 73.25808715820312 C 132.20668857867472 73.03053100065858 142.43701414917 61.04577737888252 131.27626378196803 70.65401875253357" stroke-width="1.0" fill="none" stroke="rgb(255, 0, 0)" stroke-opacity="1.0" stroke-linecap="round" stroke-linejoin="round"/>
    <path d="M 113.62769317626953 54.132415771484375 C 106.5880554621472 51.58934100824142 102.93234031183569 48.714552294399844 103.04882260846911 68.2531064613469" stroke-width="1.0" fill="none" stroke="rgb(255, 0, 0)" stroke-opacity="1.0" stroke-linecap="round" stroke-linejoin="round"/>
    <path d="M 149.74436950683594 52.0062255859375 C 151.81196578440415 56.72220415565692 149.8979392412875 41.424062509115814 139.61071755991478 51.7644179770601" stroke-width="1.0" fill="none" stroke="rgb(255, 0, 0)" stroke-opacity="1.0" stroke-linecap="round" stroke-linejoin="round"/>
    <path d="M 110.84352111816406 138.4774169921875 C 136.97558526975854 132.12655911767783 102.97615396277693 127.06426980892113 102.81137601482357 132.09437674348166" stroke-width="1.0" fill="none" stroke="rgb(255, 0, 0)" stroke-opacity="1.0" stroke-linecap="round" stroke-linejoin="round"/>
    <path d="M 125.31212615966797 139.69290161132812 C 150.40144319161078 140.55837717494728 116.71189203280048 132.56378699606637 115.29588370325656 140.4532839670667" stroke-width="1.0" fill="none" stroke="rgb(255, 0, 0)" stroke-opacity="1.0" stroke-linecap="round" stroke-linejoin="round"/>
    <path d="M 121.23564910888672 174.66201782226562 C 139.04355004028815 171.24524130907108 101.60088444474385 165.9085204010713 106.55176542292769 169.73584132628167" stroke-width="1.0" fill="none" stroke="rgb(255, 0, 0)" stroke-opacity="1.0" stroke-linecap="round" stroke-linejoin="round"/>
    <path d="M 140.7368927001953 172.70545959472656 C 151.28169704185686 177.90970897633593 138.5365623940804 164.764606055785 125.40834622317777 175.9814661271239" stroke-width="1.0" fill="none" stroke="rgb(255, 0, 0)" stroke-opacity="1.0" stroke-linecap="round" stroke-linejoin="round"/>
    <path d="M 112.33256530761719 199.42074584960938 C 119.74754963453354 193.8268863137369 109.79445934236996 195.98854313366806 110.40887667328333 195.57910558942643" stroke-width="1.0" fill="none" stroke="rgb(255, 0, 0)" stroke-opacity="1.0" stroke-linecap="round" stroke-linejoin="round"/>
    <path d="M 139.8269805908203 196.2025146484375 C 121.59826508384137 191.50357378200394 132.2998005400089 187.09071593220494 118.85797957670812 198.94205098847482" stroke-width="1.0" fill="none" stroke="rgb(255, 0, 0)" stroke-opacity="1.0" stroke-linecap="round" stroke-linejoin="round"/>
  </g>
</svg>
