<?xml version="1.0" ?>
<svg xmlns="http://www.w3.org/2000/svg" version="1.1" width="256" height="256">
  <defs/>
  <g>
    <path d="M 116.44412994384766 75.61666107177734 C 113.5665910424961 69.48676539033927 117.95092577273334 64.80818776131422 117.33765941273101 76.37779144086531" stroke-width="1.0" fill="none" stroke="rgb(255, 0, 0)" stroke-opacity="1.0" stroke-linecap="round" stroke-linejoin="round"/>
    <path d="M 112.56014251708984 91.623291015625 C 107.80102849227819 84.99865382743832 110.38355695746282 80.3465607433324 110.30797701276137 90.9149360457128" stroke-width="1.0" fill="none" stroke="rgb(255, 0, 0)" stroke-opacity="1.0" stroke-linecap="round" stroke-linejoin="round"/>
    <path d="M 134.6208038330078 91.68136596679688 C 128.7104944627711 88.11270116416574 131.78786512525042 84.33148919220318 131.83533549360214 96.19123867828766" stroke-width="1.0" fill="none" stroke="rgb(255, 0, 0)" stroke-opacity="1.0" stroke-linecap="round" stroke-linejoin="round"/>
    <path d="M 101.68547821044922 66.86609649658203 C 93.17864430683657 62.78538917931108 91.73941753224027 60.03423627998626 89.45827851085592 74.20606938190971" stroke-width="1.0" fill="none" stroke="rgb(255, 0, 0)" stroke-opacity="1.0" stroke-linecap="round" stroke-linejoin="round"/>
    <path d="M 148.87014770507812 73.25808715820312 C 142.17735737139932 71.36305524067552 145.94732479904184 64.38365465244209 137.57711465019312 73.47061543937363" stroke-width="1.0" fill="none" stroke="rgb(255, 0, 0)" stroke-opacity="1.0" stroke-linecap="round" stroke-linejoin="round"/>
    <path d="M 113.62769317626953 54.132415771484375 C 107.78677591731687 50.34189137178207 108.23852698786108 56.33066309609662 105.01820727872668 66.90223060685472" stroke-width="1.0" fill="none" stroke="rgb(255, 0, 0)" stroke-opacity="1.0" stroke-linecap="round" stroke-linejoin="round"/>
    <path d="M 149.74436950683594 52.0062255859375 C 154.64452656206834 52.569876588317975 151.74783769881466 44.78921248393881 140.5587289582302 52.024208159173746" stroke-width="1.0" fill="none" stroke="rgb(255, 0, 0)" stroke-opacity="1.0" stroke-linecap="round" stroke-linejoin="round"/>
    <path d="M 110.84352111816406 138.4774169921875 C 125.97651414854272 131.38484750116172 104.05741845862654 129.79044416347435 99.85082856761898 135.46351331536582" stroke-width="1.0" fill="none" stroke="rgb(255, 0, 0)" stroke-opacity="1.0" stroke-linecap="round" stroke-linejoin="round"/>
    <path d="M 125.31212615966797 139.69290161132812 C 140.35899419411322 136.6085696502662 118.59137859362201 134.38987160986642 114.11881785395236 141.802713753272" stroke-width="1.0" fill="none" stroke="rgb(255, 0, 0)" stroke-opacity="1.0" stroke-linecap="round" stroke-linejoin="round"/>
    <path d="M 121.23564910888672 174.66201782226562 C 126.91157057480352 170.41772117700626 101.4107828212087 168.21609276587844 102.29592321406538 172.23969321684564" stroke-width="1.0" fill="none" stroke="rgb(255, 0, 0)" stroke-opacity="1.0" stroke-linecap="round" stroke-linejoin="round"/>
    <path d="M 140.7368927001953 172.70545959472656 C 147.01988626228533 172.52892839867633 137.16629977124714 167.2549591632374 129.6631079190396 175.4614010579253" stroke-width="1.0" fill="none" stroke="rgb(255, 0, 0)" stroke-opacity="1.0" stroke-linecap="round" stroke-linejoin="round"/>
    <path d="M 112.33256530761719 199.42074584960938 C 113.48202858503403 194.43150820094394 107.92423200548642 197.41984520428574 108.89533890873408 197.29293701413957" stroke-width="1.0" fill="none" stroke="rgb(255, 0, 0)" stroke-opacity="1.0" stroke-linecap="round" stroke-linejoin="round"/>
    <path d="M 139.8269805908203 196.2025146484375 C 127.01086464744 191.7267736263643 130.4544874678043 190.18116669590734 129.78287772429113 199.82013183335397" stroke-width="1.0" fill="none" stroke="rgb(255, 0, 0)" stroke-opacity="1.0" stroke-linecap="round" stroke-linejoin="round"/>
  </g>
</svg>
