<?xml version="1.0" ?>
<svg xmlns="http://www.w3.org/2000/svg" version="1.1" width="256" height="256">
  <defs/>
  <g>
    <path d="M 116.44412994384766 75.61666107177734 C 113.52175523660316 74.72627521127738 117.54893225962604 61.722425737388434 117.2659745753897 73.98666224517515" stroke-width="1.0" fill="none" stroke="rgb(255, 0, 0)" stroke-opacity="1.0" stroke-linecap="round" stroke-linejoin="round"/>
    <path d="M 112.56014251708984 91.623291015625 C 103.68555283767614 90.19005662036892 109.24040257475713 77.11385276603748 110.13641100323989 88.40782822162566" stroke-width="1.0" fill="none" stroke="rgb(255, 0, 0)" stroke-opacity="1.0" stroke-linecap="round" stroke-linejoin="round"/>
    <path d="M 134.6208038330078 91.68136596679688 C 124.87414306811777 95.25353811828256 130.3850891223665 82.24913226242413 130.82069635442673 94.68128851730744" stroke-width="1.0" fill="none" stroke="rgb(255, 0, 0)" stroke-opacity="1.0" stroke-linecap="round" stroke-linejoin="round"/>
    <path d="M 101.68547821044922 66.86609649658203 C 94.28218568104312 64.71226763161211 87.90438602284085 57.717287389300225 86.24714455394674 74.88250723667656" stroke-width="1.0" fill="none" stroke="rgb(255, 0, 0)" stroke-opacity="1.0" stroke-linecap="round" stroke-linejoin="round"/>
    <path d="M 148.87014770507812 73.25808715820312 C 131.4143111067509 72.91495777325304 142.77238898132333 60.544563351477734 132.311290332261 71.77381073709168" stroke-width="1.0" fill="none" stroke="rgb(255, 0, 0)" stroke-opacity="1.0" stroke-linecap="round" stroke-linejoin="round"/>
    <path d="M 113.62769317626953 54.132415771484375 C 107.88286337306639 52.50157823520446 101.53603618128149 47.830744635250674 102.15504571485339 67.40930114823655" stroke-width="1.0" fill="none" stroke="rgb(255, 0, 0)" stroke-opacity="1.0" stroke-linecap="round" stroke-linejoin="round"/>
    <path d="M 149.74436950683594 52.0062255859375 C 149.8586640566324 56.23903126213275 149.37642527258137 40.14984585719931 142.45912482843895 53.32045754882218" stroke-width="1.0" fill="none" stroke="rgb(255, 0, 0)" stroke-opacity="1.0" stroke-linecap="round" stroke-linejoin="round"/>
    <path d="M 110.84352111816406 138.4774169921875 C 136.50864915830834 134.15120206201377 103.23501264350203 127.97240903774193 103.37529079067195 134.1683747178774" stroke-width="1.0" fill="none" stroke="rgb(255, 0, 0)" stroke-opacity="1.0" stroke-linecap="round" stroke-linejoin="round"/>
    <path d="M 125.31212615966797 139.69290161132812 C 149.79853028877875 143.09864595374825 117.1493643762453 132.7195382243989 116.75147395136447 141.44885766654104" stroke-width="1.0" fill="none" stroke="rgb(255, 0, 0)" stroke-opacity="1.0" stroke-linecap="round" stroke-linejoin="round"/>
    <path d="M 121.23564910888672 174.66201782226562 C 140.33951332764167 172.9210087307935 102.66792965653585 166.7161890869844 109.00595281611616 170.11449246840203" stroke-width="1.0" fill="none" stroke="rgb(255, 0, 0)" stroke-opacity="1.0" stroke-linecap="round" stroke-linejoin="round"/>
    <path d="M 140.7368927001953 172.70545959472656 C 151.99865604149065 179.46609067875903 140.33752589645766 163.95871644930918 127.74315648013578 176.26184160777575" stroke-width="1.0" fill="none" stroke="rgb(255, 0, 0)" stroke-opacity="1.0" stroke-linecap="round" stroke-linejoin="round"/>
    <path d="M 112.33256530761719 199.42074584960938 C 118.63472757871689 194.8540157254343 108.8210828298425 196.3628331231395 110.443845049443 196.7851286864647" stroke-width="1.0" fill="none" stroke="rgb(255, 0, 0)" stroke-opacity="1.0" stroke-linecap="round" stroke-linejoin="round"/>
    <path d="M 139.8269805908203 196.2025146484375 C 119.10228196006207 191.11795223430497 133.8552195082096 186.51964049275182 118.05285720121984 198.43564611176583" stroke-width="1.0" fill="none" stroke="rgb(255, 0, 0)" stroke-opacity="1.0" stroke-linecap="round" stroke-linejoin="round"/>
  </g>
</svg>
