<?xml version="1.0" ?>
<svg xmlns="http://www.w3.org/2000/svg" version="1.1" width="256" height="256">
  <defs/>
  <g>
    <path d="M 116.44412994384766 75.61666107177734 C 116.44690351027467 75.61835932737294 116.44289490631391 75.61688903248485 116.44257398374292 75.61723586989956" stroke-width="1.0" fill="none" stroke="rgb(255, 0, 0)" stroke-opacity="1.0" stroke-linecap="round" stroke-linejoin="round"/>
    <path d="M 112.56014251708984 91.623291015625 C 112.56492560769897 91.61959416912659 112.56663804238127 91.61823646328605 112.5665263994529 91.6152665853934" stroke-width="1.0" fill="none" stroke="rgb(255, 0, 0)" stroke-opacity="1.0" stroke-linecap="round" stroke-linejoin="round"/>
    <path d="M 134.6208038330078 91.68136596679688 C 134.62246581676354 91.67864259710895 134.6220464573465 91.6740498210845 134.62678935530028 91.67392458182718" stroke-width="1.0" fill="none" stroke="rgb(255, 0, 0)" stroke-opacity="1.0" stroke-linecap="round" stroke-linejoin="round"/>
    <path d="M 101.68547821044922 66.86609649658203 C 101.68509434908559 66.86823796814011 101.68425163058059 66.87211808502012 101.67948456506782 66.87545314769797" stroke-width="1.0" fill="none" stroke="rgb(255, 0, 0)" stroke-opacity="1.0" stroke-linecap="round" stroke-linejoin="round"/>
    <path d="M 148.87014770507812 73.25808715820312 C 148.8698326524881 73.26120195632957 148.87428856737426 73.26603284011152 148.87105038813004 73.26801939770728" stroke-width="1.0" fill="none" stroke="rgb(255, 0, 0)" stroke-opacity="1.0" stroke-linecap="round" stroke-linejoin="round"/>
    <path d="M 113.62769317626953 54.132415771484375 C 113.62378173338266 54.12901840882644 113.6197103361229 54.12715902962537 113.61487572296629 54.13069952088273" stroke-width="1.0" fill="none" stroke="rgb(255, 0, 0)" stroke-opacity="1.0" stroke-linecap="round" stroke-linejoin="round"/>
    <path d="M 149.74436950683594 52.0062255859375 C 149.7422796672224 52.00902606180085 149.74276063238364 52.005969368567854 149.74068101510545 52.00416389634185" stroke-width="1.0" fill="none" stroke="rgb(255, 0, 0)" stroke-opacity="1.0" stroke-linecap="round" stroke-linejoin="round"/>
    <path d="M 110.84352111816406 138.4774169921875 C 110.84510710039945 138.47473220254162 110.8463014037694 138.47868558863965 110.8499957458551 138.47662365799633" stroke-width="1.0" fill="none" stroke="rgb(255, 0, 0)" stroke-opacity="1.0" stroke-linecap="round" stroke-linejoin="round"/>
    <path d="M 125.31212615966797 139.69290161132812 C 125.31170820775377 139.69275140930682 125.30951209044736 139.69104097877033 125.31435451468762 139.68616042014955" stroke-width="1.0" fill="none" stroke="rgb(255, 0, 0)" stroke-opacity="1.0" stroke-linecap="round" stroke-linejoin="round"/>
    <path d="M 121.23564910888672 174.66201782226562 C 121.23207811656965 174.66353759443106 121.22782804836912 174.66145838145388 121.23076247809104 174.66557431246258" stroke-width="1.0" fill="none" stroke="rgb(255, 0, 0)" stroke-opacity="1.0" stroke-linecap="round" stroke-linejoin="round"/>
    <path d="M 140.7368927001953 172.70545959472656 C 140.7355966179912 172.70251241683843 140.73939743125905 172.70383808134 140.73943257451964 172.7021465169367" stroke-width="1.0" fill="none" stroke="rgb(255, 0, 0)" stroke-opacity="1.0" stroke-linecap="round" stroke-linejoin="round"/>
    <path d="M 112.33256530761719 199.42074584960938 C 112.33103930945227 199.4186699654727 112.3336932837987 199.41845439847148 112.33070865720016 199.42217002576916" stroke-width="1.0" fill="none" stroke="rgb(255, 0, 0)" stroke-opacity="1.0" stroke-linecap="round" stroke-linejoin="round"/>
    <path d="M 139.8269805908203 196.2025146484375 C 139.82953237630977 196.20619023294935 139.83385561323902 196.20360736560275 139.8377801180779 196.20626693244697" stroke-width="1.0" fill="none" stroke="rgb(255, 0, 0)" stroke-opacity="1.0" stroke-linecap="round" stroke-linejoin="round"/>
  </g>
</svg>
